<svg xmlns="http://www.w3.org/2000/svg" xmlns:xlink="http://www.w3.org/1999/xlink" width="93.934" height="93.934" viewBox="0 0 93.934 93.934">
  <defs>
    <filter id="Path_978624" x="0" y="0" width="93.934" height="93.934" filterUnits="userSpaceOnUse">
      <feOffset dy="3" input="SourceAlpha"/>
      <feGaussianBlur stdDeviation="3" result="blur"/>
      <feFlood flood-opacity="0.161"/>
      <feComposite operator="in" in2="blur"/>
      <feComposite in="SourceGraphic"/>
    </filter>
  </defs>
  <g id="Group_1222555" data-name="Group 1222555" transform="translate(-189 -1721)">
    <g id="Group_1222162" data-name="Group 1222162">
      <g id="Group_1221057" data-name="Group 1221057" transform="translate(0 -4078.375)">
        <g id="Group_1208655" data-name="Group 1208655" transform="translate(-420 3898.655)">
          <g id="Group_1208068" data-name="Group 1208068" transform="translate(412 470.719)">
            <g id="Group_1144123" data-name="Group 1144123" transform="translate(206 1436)">
              <g transform="matrix(1, 0, 0, 1, -9, -6)" filter="url(#Path_978624)">
                <g id="Path_978624-2" data-name="Path 978624" transform="translate(9 6)" fill="#f7fbfc">
                  <path d="M 37.966796875 74.43359375 C 33.04315185546875 74.43359375 28.26757431030273 73.46962738037109 23.77274131774902 71.56847381591797 C 19.43047523498535 69.73184967041016 15.53040790557861 67.10224914550781 12.18087482452393 63.75271987915039 C 8.831341743469238 60.4031867980957 6.201741218566895 56.50312042236328 4.365118980407715 52.16086196899414 C 2.463963508605957 47.66601943969727 1.499996900558472 42.89044189453125 1.499996900558472 37.966796875 C 1.499996900558472 33.04315185546875 2.463963508605957 28.26757431030273 4.365118980407715 23.77274131774902 C 6.201741218566895 19.43047523498535 8.831341743469238 15.53040790557861 12.18087482452393 12.18087482452393 C 15.53040790557861 8.831341743469238 19.43047523498535 6.201741218566895 23.77274131774902 4.365118980407715 C 28.26757431030273 2.463963508605957 33.04315185546875 1.499996900558472 37.966796875 1.499996900558472 C 42.89044189453125 1.499996900558472 47.66601943969727 2.463963508605957 52.16086196899414 4.365118980407715 C 56.50312042236328 6.201741218566895 60.4031867980957 8.831341743469238 63.75271987915039 12.18087482452393 C 67.10224914550781 15.53040790557861 69.73184967041016 19.43047523498535 71.56847381591797 23.77274131774902 C 73.46962738037109 28.26757431030273 74.43359375 33.04315185546875 74.43359375 37.966796875 C 74.43359375 42.89044189453125 73.46962738037109 47.66601943969727 71.56847381591797 52.16086196899414 C 69.73184967041016 56.50313186645508 67.10224914550781 60.4031867980957 63.75271987915039 63.75271987915039 C 60.4031867980957 67.10224914550781 56.50313186645508 69.73184967041016 52.16086196899414 71.56847381591797 C 47.66601943969727 73.46962738037109 42.89044189453125 74.43359375 37.966796875 74.43359375 Z" stroke="none"/>
                  <path d="M 37.966796875 3 C 33.2449836730957 3 28.66600799560547 3.924095153808594 24.35705947875977 5.746635437011719 C 20.19359588623047 7.507621765136719 16.45379638671875 10.02927398681641 13.24153518676758 13.24153518676758 C 10.02927398681641 16.45379638671875 7.507621765136719 20.19359588623047 5.746635437011719 24.35705947875977 C 3.924095153808594 28.66600799560547 3 33.2449836730957 3 37.966796875 C 3 42.6886100769043 3.924095153808594 47.26758575439453 5.746635437011719 51.57653427124023 C 7.507621765136719 55.73999786376953 10.02927398681641 59.47979736328125 13.24153518676758 62.69205856323242 C 16.45379638671875 65.90431976318359 20.19359588623047 68.42597198486328 24.35705947875977 70.18695831298828 C 28.66600799560547 72.00949859619141 33.2449836730957 72.93359375 37.966796875 72.93359375 C 42.6886100769043 72.93359375 47.26758575439453 72.00949859619141 51.57653427124023 70.18695831298828 C 55.73999786376953 68.42597198486328 59.47979736328125 65.90431976318359 62.69205856323242 62.69205856323242 C 65.90431976318359 59.47979736328125 68.42597198486328 55.73999786376953 70.18695831298828 51.57653427124023 C 72.00949859619141 47.26758575439453 72.93359375 42.6886100769043 72.93359375 37.966796875 C 72.93359375 33.2449836730957 72.00949859619141 28.66600799560547 70.18695831298828 24.35705947875977 C 68.42597198486328 20.19359588623047 65.90431976318359 16.45379638671875 62.69205856323242 13.24153518676758 C 59.47979736328125 10.02927398681641 55.73999786376953 7.507621765136719 51.57653427124023 5.746635437011719 C 47.26758575439453 3.924095153808594 42.6886100769043 3 37.966796875 3 M 37.966796875 0 C 58.93528366088867 0 75.93359375 16.99831008911133 75.93359375 37.966796875 C 75.93359375 58.93528366088867 58.93528366088867 75.93359375 37.966796875 75.93359375 C 16.99831008911133 75.93359375 0 58.93528366088867 0 37.966796875 C 0 16.99831008911133 16.99831008911133 0 37.966796875 0 Z" stroke="none" fill="#62797e"/>
                </g>
              </g>
            </g>
          </g>
        </g>
      </g>
      <g id="_06-clipboard" data-name="06-clipboard" transform="translate(212.567 1735.567)">
        <path id="Path_1171989" data-name="Path 1171989" d="M65.146,12.735A14.176,14.176,0,0,1,60.063,23.7L44.073,36.823,28.083,23.7A14.176,14.176,0,0,1,23,12.735,11.7,11.7,0,0,1,44.073,5.716a11.7,11.7,0,0,1,21.073,7.019Z" transform="translate(1.234 0.054)" fill="#e96565"/>
        <path id="Path_1171990" data-name="Path 1171990" d="M53.741,1.167c.09.105.189.211.273.326.064-.086.139-.161.211-.245C54.062,1.214,53.9,1.194,53.741,1.167Z" transform="translate(2.883 0.063)" fill="#d34c4c"/>
        <path id="Path_1171991" data-name="Path 1171991" d="M39.673,19.486A14.176,14.176,0,0,1,34.59,8.521a11.7,11.7,0,0,1,2.517-7.255A11.635,11.635,0,0,0,23,12.735,14.176,14.176,0,0,0,28.083,23.7l15.99,13.123,8.363-6.863Z" transform="translate(1.234 0.054)" fill="#d34c4c"/>
        <path id="Path_1171992" data-name="Path 1171992" d="M27.341,19h11.59V65.36H1V19H27.341Z" transform="translate(0.054 1.019)" fill="#298279"/>
        <path id="Path_1171993" data-name="Path 1171993" d="M27.18,22h8.429V62.038H4V22H27.18Z" transform="translate(0.215 1.18)" fill="#eaeaea"/>
        <g id="Group_1222160" data-name="Group 1222160" transform="translate(7.376 28.448)">
          <path id="Path_1171994" data-name="Path 1171994" d="M7,27h8.429v8.429H7Z" transform="translate(-7 -27)" fill="#e9c3b0"/>
          <path id="Path_1171995" data-name="Path 1171995" d="M7,38h8.429v8.429H7Z" transform="translate(-7 -26.41)" fill="#e9c3b0"/>
          <path id="Path_1171996" data-name="Path 1171996" d="M7,49h8.429v8.429H7Z" transform="translate(-7 -25.82)" fill="#e9c3b0"/>
        </g>
        <g id="Group_1222161" data-name="Group 1222161" transform="translate(1.054 20.019)" opacity="0.2">
          <path id="Path_1171997" data-name="Path 1171997" d="M7.322,27.429V19H1V65.36H38.931V59.038A31.609,31.609,0,0,1,7.322,27.429Z" transform="translate(-1 -19)"/>
        </g>
        <path id="Path_1171998" data-name="Path 1171998" d="M9,52.161l2.107,2.107L17.429,49" transform="translate(0.483 2.629)" fill="none"/>
        <path id="Path_1171999" data-name="Path 1171999" d="M12,17H26.751v7.376H12Z" transform="translate(0.644 0.912)" fill="#5fcfb1"/>
        <path id="Path_1172000" data-name="Path 1172000" d="M38.985,18.107H28.448V17.054A1.054,1.054,0,0,0,27.395,16H12.644a1.054,1.054,0,0,0-1.054,1.054v1.054H1.054A1.054,1.054,0,0,0,0,19.161v46.36a1.054,1.054,0,0,0,1.054,1.054H38.985a1.054,1.054,0,0,0,1.054-1.054V19.161A1.054,1.054,0,0,0,38.985,18.107Zm-25.287,0H26.341v5.268H13.7Zm13.7,7.376a1.054,1.054,0,0,0,1.054-1.054V23.376H34.77V61.307H5.268V23.376H11.59v1.054a1.054,1.054,0,0,0,1.054,1.054ZM37.931,64.468H2.107V20.215H11.59v1.054H4.215a1.054,1.054,0,0,0-1.054,1.054V62.36a1.054,1.054,0,0,0,1.054,1.054H35.824a1.054,1.054,0,0,0,1.054-1.054V22.322a1.054,1.054,0,0,0-1.054-1.054H28.448V20.215h9.483Z" transform="translate(0 0.858)"/>
        <path id="Path_1172001" data-name="Path 1172001" d="M18,28H32.751v2.107H18Z" transform="translate(0.966 1.502)"/>
        <path id="Path_1172002" data-name="Path 1172002" d="M18,32h9.483v2.107H18Z" transform="translate(0.966 1.717)"/>
        <path id="Path_1172003" data-name="Path 1172003" d="M29,32h3.161v2.107H29Z" transform="translate(1.556 1.717)"/>
        <path id="Path_1172004" data-name="Path 1172004" d="M7.054,36.536h8.429a1.054,1.054,0,0,0,1.054-1.054V29.3l1.728-1.44-1.349-1.618-.468.39A1.054,1.054,0,0,0,15.483,26H7.054A1.054,1.054,0,0,0,6,27.054v8.429a1.054,1.054,0,0,0,1.054,1.054Zm1.054-8.429h6.322v.211l-3.1,2.58L9.906,29.47l-1.49,1.49,2.107,2.107a1.054,1.054,0,0,0,1.419.064l2.487-2.074v3.372H8.107Z" transform="translate(0.322 1.395)"/>
        <path id="Path_1172005" data-name="Path 1172005" d="M16.448,37.632A1.054,1.054,0,0,0,15.483,37H7.054A1.054,1.054,0,0,0,6,38.054v8.429a1.054,1.054,0,0,0,1.054,1.054h8.429a1.054,1.054,0,0,0,1.054-1.054V40.3l1.728-1.44-1.349-1.618Zm-2.019,7.8H8.107V39.107h6.322v.211l-3.1,2.58L9.906,40.47l-1.49,1.49,2.107,2.107a1.054,1.054,0,0,0,1.419.064l2.487-2.074Z" transform="translate(0.322 1.985)"/>
        <path id="Path_1172006" data-name="Path 1172006" d="M16.916,48.244l-.468.39A1.054,1.054,0,0,0,15.483,48H7.054A1.054,1.054,0,0,0,6,49.054v8.429a1.054,1.054,0,0,0,1.054,1.054h8.429a1.054,1.054,0,0,0,1.054-1.054V51.3l1.728-1.44Zm-2.487,8.185H8.107V50.107h6.322v.211l-3.1,2.58L9.906,51.47l-1.49,1.49,2.107,2.107a1.054,1.054,0,0,0,1.419.064l2.487-2.074Z" transform="translate(0.322 2.575)"/>
        <path id="Path_1172007" data-name="Path 1172007" d="M18,39h5.268v2.107H18Z" transform="translate(0.966 2.092)"/>
        <path id="Path_1172008" data-name="Path 1172008" d="M25,39h7.376v2.107H25Z" transform="translate(1.341 2.092)"/>
        <path id="Path_1172009" data-name="Path 1172009" d="M18,43h8.429v2.107H18Z" transform="translate(0.966 2.307)"/>
        <path id="Path_1172010" data-name="Path 1172010" d="M28,43h4.215v2.107H28Z" transform="translate(1.502 2.307)"/>
        <path id="Path_1172011" data-name="Path 1172011" d="M18,54H32.751v2.107H18Z" transform="translate(0.966 2.897)"/>
        <path id="Path_1172012" data-name="Path 1172012" d="M18,50H28.536v2.107H18Z" transform="translate(0.966 2.682)"/>
        <path id="Path_1172013" data-name="Path 1172013" d="M30,50h2.107v2.107H30Z" transform="translate(1.609 2.682)"/>
        <path id="Path_1172014" data-name="Path 1172014" d="M43.536,25.858h-.058a1.054,1.054,0,0,1-.973-.832L39.975,13.215l-1.812,3.632a1.054,1.054,0,0,1-.948.583H33V15.322h3.563l2.864-5.739a1.054,1.054,0,0,1,1.973.251l2.357,10.976,1.94-5.82a1.054,1.054,0,0,1,1.979-.059l1.234,3.09L49.964,15.9a1.054,1.054,0,0,1,.948-.583h3.161v2.107h-2.51l-1.81,3.632a1.086,1.086,0,0,1-.987.582,1.054,1.054,0,0,1-.935-.661l-1.039-2.6-2.251,6.754a1.054,1.054,0,0,1-1.005.721Z" transform="translate(1.77 0.483)"/>
        <path id="Path_1172015" data-name="Path 1172015" d="M44.127,37.931a1.054,1.054,0,0,1-.668-.239l-4.215-3.459L40.58,32.6l3.547,2.911L59.449,22.94a13.215,13.215,0,0,0,4.7-10.151A10.68,10.68,0,0,0,53.49,2.107,10.555,10.555,0,0,0,44.969,6.4a1.092,1.092,0,0,1-1.686,0,10.555,10.555,0,0,0-8.523-4.293A10.68,10.68,0,0,0,24.107,12.789a13.6,13.6,0,0,0,.291,2.8l-2.062.436A15.7,15.7,0,0,1,22,12.789,12.789,12.789,0,0,1,34.761,0a12.616,12.616,0,0,1,9.366,4.119A12.616,12.616,0,0,1,53.492,0,12.789,12.789,0,0,1,66.253,12.789a15.138,15.138,0,0,1-5.467,11.78L44.795,37.692a1.054,1.054,0,0,1-.668.239Z" transform="translate(1.18 0)"/>
      </g>
    </g>
  </g>
</svg>
