<svg xmlns="http://www.w3.org/2000/svg" xmlns:xlink="http://www.w3.org/1999/xlink" width="113" height="113" viewBox="0 0 113 113">
  <defs>
    <filter id="Path_982547" x="0" y="0" width="113" height="113" filterUnits="userSpaceOnUse">
      <feOffset dy="3" input="SourceAlpha"/>
      <feGaussianBlur stdDeviation="3" result="blur"/>
      <feFlood flood-opacity="0.161"/>
      <feComposite operator="in" in2="blur"/>
      <feComposite in="SourceGraphic"/>
    </filter>
  </defs>
  <g id="Group_1222517" data-name="Group 1222517" transform="translate(-1162.5 -888.867)">
    <g id="Group_1221186" data-name="Group 1221186">
      <g id="Group_1210679" data-name="Group 1210679" transform="translate(0 -6639.941)">
        <g id="Group_1208707" data-name="Group 1208707" transform="translate(-1.454 3213.429)">
          <g id="Group_1148635" data-name="Group 1148635" transform="translate(908.908 600.047)">
            <g id="Group_1148525" data-name="Group 1148525" transform="translate(264.046 3721.333)">
              <g transform="matrix(1, 0, 0, 1, -9, -6)" filter="url(#Path_982547)">
                <g id="Path_982547-2" data-name="Path 982547" transform="translate(9 6)" fill="#ffe6ef">
                  <path d="M 47.5 93.5 C 41.28937149047852 93.5 35.26533508300781 92.28397369384766 29.59518623352051 89.88570404052734 C 24.11771965026855 87.56893157958984 19.19813346862793 84.25196075439453 14.97309303283691 80.02691650390625 C 10.74804019927979 75.80186462402344 7.431066513061523 70.88229370117188 5.114293098449707 65.40481567382812 C 2.716026782989502 59.73468017578125 1.5 53.71062850952148 1.5 47.5 C 1.5 41.28937149047852 2.716026782989502 35.26533508300781 5.114293098449707 29.59518623352051 C 7.431066513061523 24.11771965026855 10.74804019927979 19.19813346862793 14.97309303283691 14.97309303283691 C 19.19813346862793 10.74804019927979 24.11771965026855 7.431066513061523 29.59518623352051 5.114293098449707 C 35.26533508300781 2.716026782989502 41.28937149047852 1.5 47.5 1.5 C 53.71062850952148 1.5 59.73468017578125 2.716026782989502 65.40481567382812 5.114293098449707 C 70.88229370117188 7.431066513061523 75.80186462402344 10.74804019927979 80.02691650390625 14.97309303283691 C 84.25196075439453 19.19813346862793 87.56893157958984 24.11771965026855 89.88570404052734 29.59518623352051 C 92.28397369384766 35.26533508300781 93.5 41.28937149047852 93.5 47.5 C 93.5 53.71062850952148 92.28397369384766 59.73468017578125 89.88570404052734 65.40481567382812 C 87.56893157958984 70.88229370117188 84.25196075439453 75.80186462402344 80.02691650390625 80.02691650390625 C 75.80186462402344 84.25196075439453 70.88229370117188 87.56893157958984 65.40481567382812 89.88570404052734 C 59.73468017578125 92.28397369384766 53.71062850952148 93.5 47.5 93.5 Z" stroke="none"/>
                  <path d="M 47.5 3 C 41.49121475219727 3 35.66376876831055 4.176155090332031 30.17950439453125 6.495796203613281 C 24.88084411621094 8.736953735351562 20.12152099609375 11.94598388671875 16.03375244140625 16.03375244140625 C 11.94598388671875 20.12152099609375 8.736953735351562 24.88084411621094 6.495796203613281 30.17950439453125 C 4.176155090332031 35.66376876831055 3 41.49121475219727 3 47.5 C 3 53.50878524780273 4.176155090332031 59.33623123168945 6.495796203613281 64.82049560546875 C 8.736953735351562 70.11915588378906 11.94598388671875 74.87847900390625 16.03375244140625 78.96624755859375 C 20.12152099609375 83.05401611328125 24.88084411621094 86.26304626464844 30.17950439453125 88.50419616699219 C 35.66376876831055 90.82384490966797 41.49121475219727 92 47.5 92 C 53.50878524780273 92 59.33623123168945 90.82384490966797 64.82049560546875 88.50419616699219 C 70.11915588378906 86.26304626464844 74.87847900390625 83.05401611328125 78.96624755859375 78.96624755859375 C 83.05401611328125 74.87847900390625 86.26304626464844 70.11915588378906 88.50419616699219 64.82049560546875 C 90.82384490966797 59.33623123168945 92 53.50878524780273 92 47.5 C 92 41.49121475219727 90.82384490966797 35.66376876831055 88.50419616699219 30.17950439453125 C 86.26304626464844 24.88084411621094 83.05401611328125 20.12152099609375 78.96624755859375 16.03375244140625 C 74.87847900390625 11.94598388671875 70.11915588378906 8.736953735351562 64.82049560546875 6.495796203613281 C 59.33623123168945 4.176155090332031 53.50878524780273 3 47.5 3 M 47.5 0 C 73.7335205078125 0 95 21.2664794921875 95 47.5 C 95 73.7335205078125 73.7335205078125 95 47.5 95 C 21.2664794921875 95 0 73.7335205078125 0 47.5 C 0 21.2664794921875 21.2664794921875 0 47.5 0 Z" stroke="none" fill="#ffadcc"/>
                </g>
              </g>
            </g>
          </g>
        </g>
      </g>
      <g id="medico" transform="translate(1153.903 907.397)">
        <g id="Group_1221162" data-name="Group 1221162" transform="translate(37.386 18.337)">
          <path id="Path_1171244" data-name="Path 1171244" d="M95.352,118.429l-4.111-4.588H88.075a1.882,1.882,0,0,0-1.8,1.889l0,3.194c0,2.081,1.674,3.226,4.967,3.226Z" transform="translate(-86.269 -113.841)" fill="#e5c093" fill-rule="evenodd"/>
        </g>
        <g id="Group_1221163" data-name="Group 1221163" transform="translate(73.342 18.337)">
          <path id="Path_1171245" data-name="Path 1171245" d="M318.155,115.73a1.882,1.882,0,0,0-1.8-1.889h-3.165l-3.7,4.155,3.7,4.155c3.3,0,4.967-1.145,4.967-3.226V115.73Z" transform="translate(-309.492 -113.841)" fill="#e5c093" fill-rule="evenodd"/>
        </g>
        <g id="Group_1221164" data-name="Group 1221164" transform="translate(29.207 47.374)">
          <path id="Path_1171246" data-name="Path 1171246" d="M87.707,311.389a3.334,3.334,0,1,1-6.668,0C81.039,307,87.707,307,87.707,311.389Zm8.748,14.448c0-6.539.027-10.934,0-17.341-.182-3.614-7.507-10.044-13.049-12.44l-4.515-1.944H53.058l-6.111,2.629-5.2,2.236c-4.15,1.784-6.221,3.413-6.244,8.867-.027,6.763,0,11.231,0,17.994A2.123,2.123,0,0,0,37.555,328H94.4A2.123,2.123,0,0,0,96.454,325.837Z" transform="translate(-35.487 -294.112)" fill="#eceaed" fill-rule="evenodd"/>
        </g>
        <g id="Group_1221165" data-name="Group 1221165" transform="translate(51.717 53.462)">
          <path id="Path_1171247" data-name="Path 1171247" d="M178.245,341.987l3.256-1.1v-4.441l-2.276-4.244-3.01-.3-.981,3.956Z" transform="translate(-175.235 -331.906)" fill="#b6b1b7" fill-rule="evenodd"/>
        </g>
        <g id="Group_1221166" data-name="Group 1221166" transform="translate(52.095 38.138)">
          <path id="Path_1171248" data-name="Path 1171248" d="M177.585,236.775V247l7.6,3.345,7.6-3.345V236.775c0-.027-.137.082-.169.1C187.391,239.97,182.78,239.919,177.585,236.775Z" transform="translate(-177.585 -236.771)" fill="#f1d0a5" fill-rule="evenodd"/>
        </g>
        <g id="Group_1221167" data-name="Group 1221167" transform="translate(42.353 9.217)">
          <path id="Path_1171249" data-name="Path 1171249" d="M151.789,71.162c-10.408-16.291-18.061-20.745-34.685,0v3.491a10.917,10.917,0,0,0,.31,2.528c.981,4.185,4.223,8.657,8.438,11.55.041-.009.88.57.994.639a18.746,18.746,0,0,0,3.256,1.57,11.484,11.484,0,0,0,8.688,0,18.781,18.781,0,0,0,3.261-1.57c.064-.041.725-.466.73-.466,4.337-2.88,7.7-7.452,8.7-11.723a11.158,11.158,0,0,0,.306-2.528V71.162Z" transform="translate(-117.104 -57.223)" fill="#ffe4c1" fill-rule="evenodd"/>
        </g>
        <g id="Group_1221168" data-name="Group 1221168" transform="translate(42.354 1.252)">
          <path id="Path_1171250" data-name="Path 1171250" d="M124.13,23.052a11.3,11.3,0,0,0,2.4,1.4c6.312,2.765,16.6,1.821,18.768-1.424.9,3.108,3.32,6.644,6.49,6.644V22.609c0-9.378-7.047-14.334-14.312-14.84H135a14.557,14.557,0,0,0-10.408,5.043c-5.236.789-7.475,5.768-7.48,9.8l0,2.245,0,4.819C122.492,29.486,122.907,26.214,124.13,23.052Z" transform="translate(-117.106 -7.769)" fill="#d19a6e" fill-rule="evenodd"/>
        </g>
        <g id="Group_1221169" data-name="Group 1221169" transform="translate(51.16 21.582)">
          <path id="Path_1171251" data-name="Path 1171251" d="M194.125,133.984a24.6,24.6,0,0,1-.306,5.677c-1.377,5.869-6.837,11.641-12.693,13.759a11.416,11.416,0,0,1-8.684,0c-.223-.078-.442-.164-.661-.256.306.21.616.411.935.6a18.745,18.745,0,0,0,3.256,1.57,11.484,11.484,0,0,0,8.688,0,18.78,18.78,0,0,0,3.261-1.57c4.283-2.592,8.278-7.283,9.432-12.189a11.157,11.157,0,0,0,.306-2.528v-3.491A5.171,5.171,0,0,1,194.125,133.984Z" transform="translate(-171.781 -133.984)" fill="#f1d0a5" fill-rule="evenodd"/>
        </g>
        <g id="Group_1221170" data-name="Group 1221170" transform="translate(67.78 2.365)">
          <path id="Path_1171252" data-name="Path 1171252" d="M284.22,28.409a14.067,14.067,0,0,0-9.259-13.727,14.033,14.033,0,0,1,5.724,11.81V33.9a5.186,5.186,0,0,0,3.535,1.57V28.409Z" transform="translate(-274.961 -14.682)" fill="#c38c66" fill-rule="evenodd"/>
        </g>
        <g id="Group_1221171" data-name="Group 1221171" transform="translate(61.413 53.462)">
          <path id="Path_1171253" data-name="Path 1171253" d="M238.685,341.987l3.01-6.124-1.233-3.956-2.758.3-2.271,4.244.278,4.6Z" transform="translate(-235.433 -331.906)" fill="#b6b1b7" fill-rule="evenodd"/>
        </g>
        <g id="Group_1221172" data-name="Group 1221172" transform="translate(55.707 50.103)">
          <path id="Path_1171254" data-name="Path 1171254" d="M205.717,318.953l2.271-4.244.86-3.074L204,311.054l-3.991.915v2.74l2.276,4.244h3.43Z" transform="translate(-200.011 -311.054)" fill="#ffe07d" fill-rule="evenodd"/>
        </g>
        <g id="Group_1221173" data-name="Group 1221173" transform="translate(59.698 46.763)">
          <path id="Path_1171255" data-name="Path 1171255" d="M232.764,300.972l4.939-10.044-5.314-.611-7.6,3.34,3.986,3.655Z" transform="translate(-224.787 -290.316)" fill="#c3ddff" fill-rule="evenodd"/>
        </g>
        <g id="Group_1221174" data-name="Group 1221174" transform="translate(46.777 46.763)">
          <path id="Path_1171256" data-name="Path 1171256" d="M153.5,297.312l3.991-3.655-7.6-3.34-5.318.611,4.939,10.044Z" transform="translate(-144.57 -290.316)" fill="#c3ddff" fill-rule="evenodd"/>
        </g>
        <g id="Group_1221175" data-name="Group 1221175" transform="translate(74.758 61.316)">
          <path id="Path_1171257" data-name="Path 1171257" d="M321.618,387.336A3.336,3.336,0,1,0,318.284,384,3.333,3.333,0,0,0,321.618,387.336Z" transform="translate(-318.284 -380.664)" fill="#b6b1b7" fill-rule="evenodd"/>
        </g>
        <g id="Group_1221176" data-name="Group 1221176" transform="translate(54.727 56.43)">
          <path id="Path_1171258" data-name="Path 1171258" d="M203.861,357.444l-3.252-5.54-1.717-1.573-1.713,1.573-3.256,5.54,4.971,10.1Z" transform="translate(-193.923 -350.331)" fill="#ffe07d" fill-rule="evenodd"/>
        </g>
        <g id="Group_1221177" data-name="Group 1221177" transform="translate(56.761 58.003)">
          <path id="Path_1171259" data-name="Path 1171259" d="M214.456,365.636,211.2,360.1h-3.43l-1.222,2.081h3.293l3.434,5.85Z" transform="translate(-206.552 -360.096)" fill="#ffd064" fill-rule="evenodd"/>
        </g>
        <g id="Group_1221178" data-name="Group 1221178" transform="translate(55.707 50.103)">
          <path id="Path_1171260" data-name="Path 1171260" d="M207.988,314.709l-2.8-2.565L204,311.054l-1.19,1.091-2.8,2.565,1.026,1.907,2.846-2.61,3.005,2.756Z" transform="translate(-200.011 -311.054)" fill="#ffd064" fill-rule="evenodd"/>
        </g>
        <g id="Group_1221179" data-name="Group 1221179" transform="translate(63.329 46.763)">
          <path id="Path_1171261" data-name="Path 1171261" d="M256.612,290.927l-5.314-.611-1.4.611-.274.119-2.3,1.013,2.139.671,5.427,1.693Z" transform="translate(-247.326 -290.316)" fill="#9dc6fb" fill-rule="evenodd"/>
        </g>
        <g id="Group_1221180" data-name="Group 1221180" transform="translate(70.895 47.374)">
          <path id="Path_1171262" data-name="Path 1171262" d="M300.536,296.056l-4.515-1.944-1.719,3.5,4.287,1.337a12.567,12.567,0,0,1,2.91,1.255c0-.388-.027-.771-.064-1.15A7.218,7.218,0,0,1,300.536,296.056Z" transform="translate(-294.301 -294.112)" fill="#dad8db" fill-rule="evenodd"/>
        </g>
        <g id="Group_1221181" data-name="Group 1221181" transform="translate(83.433 60.097)">
          <path id="Path_1171263" data-name="Path 1171263" d="M378.88,392.1c0-6.539.027-10.934,0-17.341l-.826.822c-.337.265-.506.411-.675.415s-.337-.151-.68-.415l-2.5-2.482c.009,6.037-.009,13.476-.009,19a2.126,2.126,0,0,1-2.057,2.163h4.689A2.123,2.123,0,0,0,378.88,392.1Z" transform="translate(-372.139 -373.1)" fill="#dad8db" fill-rule="evenodd"/>
        </g>
        <g id="Group_1221182" data-name="Group 1221182" transform="translate(52.095 41.364)">
          <path id="Path_1171264" data-name="Path 1171264" d="M182.251,258.817a17.326,17.326,0,0,1-2.18-.748,19.3,19.3,0,0,1-2.486-1.269v2.8c6.773,3.236,10.809,1.894,11.863,1.419.356-.16.283,0,.283.415v2.108l1.391-.611,1.669-.73v-5.4c-.032.018-.068.037-.1.059a.014.014,0,0,0-.009,0,18.172,18.172,0,0,1-3.152,1.506,12.736,12.736,0,0,1-4.342.853,11.4,11.4,0,0,1-2.937-.406Z" transform="translate(-177.585 -256.8)" fill="#e5c093" fill-rule="evenodd"/>
        </g>
        <g id="Group_1221183" data-name="Group 1221183" transform="translate(77.111 42.206)">
          <path id="Path_1171265" data-name="Path 1171265" d="M352.975,274.617l1.067-1.059a7.234,7.234,0,0,0,0-9.939c-2.394-2.482-6.262-1.862-8.821.447-.474.424-.643.634-.766.634s-.3-.21-.766-.634c-2.559-2.309-6.431-2.93-8.825-.447a7.134,7.134,0,0,0-1.975,4.865c0,.219,0,.433.018.652a7.218,7.218,0,0,0,.9,2.994,7.064,7.064,0,0,0,1.058,1.428l1.072,1.059,7.84,7.781c.342.265.511.411.68.415s.337-.151.675-.415l.826-.821Z" transform="translate(-332.888 -262.024)" fill="#ff8086" fill-rule="evenodd"/>
        </g>
        <g id="Group_1221184" data-name="Group 1221184" transform="translate(85.367 42.207)">
          <path id="Path_1171266" data-name="Path 1171266" d="M397.042,263.627a5.519,5.519,0,0,0-5.706-1.314c.068.064.137.132.205.2a7.234,7.234,0,0,1,0,9.939l-1.067,1.059-6.331,6.279.132.132,2.5,2.483c.342.265.511.411.68.415s.337-.151.675-.415l.826-.822,7.019-6.959,1.067-1.059A7.234,7.234,0,0,0,397.042,263.627Z" transform="translate(-384.144 -262.033)" fill="#e5646e" fill-rule="evenodd"/>
        </g>
        <g id="Group_1221185" data-name="Group 1221185" transform="translate(28.001 0)">
          <path id="Path_1171267" data-name="Path 1171267" d="M177.89,164.03a1.208,1.208,0,0,0,1.208-1.208v-.849a1.208,1.208,0,0,0-2.416,0v.849A1.208,1.208,0,0,0,177.89,164.03Z" transform="translate(-152.733 -134.87)"/>
          <path id="Path_1171268" data-name="Path 1171268" d="M261.789,164.007A1.208,1.208,0,0,0,263,162.8v-.826a1.208,1.208,0,1,0-2.416,0v.826A1.208,1.208,0,0,0,261.789,164.007Z" transform="translate(-223.118 -134.87)"/>
          <path id="Path_1171269" data-name="Path 1171269" d="M208.613,215.5h.078a4.239,4.239,0,0,0,3.067-1.361,1.208,1.208,0,1,0-1.743-1.673,1.829,1.829,0,0,1-1.323.618h-.031a1.661,1.661,0,0,1-1.212-.583,1.208,1.208,0,0,0-1.807,1.6A4.051,4.051,0,0,0,208.613,215.5Z" transform="translate(-176.772 -177.936)"/>
          <path id="Path_1171270" data-name="Path 1171270" d="M182.185,63.625a22.651,22.651,0,0,0,7.378-1.3,1.208,1.208,0,1,0-.788-2.284,18.39,18.39,0,0,1-9.652.873c-2.5-.5-4.1-1.563-4.574-2.393a1.208,1.208,0,0,0-2.092,1.208c1.18,2.044,4.813,3.892,9.729,3.892Z" transform="translate(-149.052 -48.591)"/>
          <path id="Path_1171271" data-name="Path 1171271" d="M99.134,42.962c-3.029-3.14-7.638-2.164-10.456.35-2.824-2.516-7.432-3.491-10.461-.35a8.185,8.185,0,0,0-1.592,2.368,14.407,14.407,0,0,0-6.013-4.842,21.345,21.345,0,0,0,7.3-11.039,13.147,13.147,0,0,0,.276-1.644c4.508-.4,5.028-3.149,5.028-4.384V20.226a3.1,3.1,0,0,0-3.01-3.1H78.247V16.092A15.339,15.339,0,0,0,67.734,1.061,18.88,18.88,0,0,0,57.53.422,15.128,15.128,0,0,0,49.2,5.18c-5.516,1.09-8.041,6.359-8.046,10.91v1.039h-1.96a3.1,3.1,0,0,0-3.01,3.1l0,3.2c0,1.235.52,3.987,5.029,4.384a12.74,12.74,0,0,0,.28,1.646A21.164,21.164,0,0,0,48.415,40.18a14.349,14.349,0,0,0-8.731,8.929l-4.7,2.021C30.367,53.115,28.02,55.2,28.01,61.1L28,67.447a1.208,1.208,0,0,0,1.206,1.21h0a1.208,1.208,0,0,0,1.208-1.206l.009-6.343c.008-4.883,1.686-6.114,5.513-7.759l3.1-1.332a14.131,14.131,0,0,0-.1,1.61v3.747c-2.786.516-5.3,2.93-5.3,7.1v3.436a1.208,1.208,0,1,0,2.416,0V64.469c0-3.305,2.019-4.785,4.021-4.785a3.8,3.8,0,0,1,2.733,1.136A5.073,5.073,0,0,1,44.1,64.469v3.436a1.208,1.208,0,0,0,2.416,0V64.469c0-4.095-2.429-6.5-5.158-7.067V53.626a11.585,11.585,0,0,1,.334-2.751L46.2,48.938l4.42,8.988,7.994,16.254a1.219,1.219,0,0,0,2.168,0l12.41-25.241,2.823,1.215a8.4,8.4,0,0,0,.828,2.506c.025.329.042.654.042.967v6.646a4.542,4.542,0,1,0,2.416,0V55.65l.007.007,7.84,7.781a2.125,2.125,0,0,0,1.829.733c.005,3,0,5.635,0,8.39,0,2.028-.007,4.139-.007,6.539a.923.923,0,0,1-.858.955H80.783V73.646a1.208,1.208,0,0,0-2.416,0v6.408H41.025V73.646a1.208,1.208,0,1,0-2.416,0v6.408H31.289a.923.923,0,0,1-.858-.955c0-1.073,0-1.942,0-2.751,0-1.084,0-2.06,0-3.271a1.208,1.208,0,0,0-1.208-1.205h0a1.208,1.208,0,0,0-1.205,1.211c0,1.207,0,2.18,0,3.261,0,.81,0,1.681,0,2.756a3.328,3.328,0,0,0,3.274,3.371H88.108A3.328,3.328,0,0,0,91.382,79.1c0-2.4,0-4.508.007-6.535.006-3.325.011-6.476,0-10.3l2.811-2.79a1.208,1.208,0,1,0-1.7-1.715L88.676,61.55l-7.668-7.61-1.061-1.048a6.057,6.057,0,0,1-1.115-6.585,5.838,5.838,0,0,1,1.124-1.667c1.991-2.064,5.168-1.28,7.146.5.129.116.234.216.32.3a1.773,1.773,0,0,0,1.256.648,1.75,1.75,0,0,0,1.239-.634c.089-.084.2-.187.337-.311,1.978-1.785,5.153-2.568,7.142-.505a6,6,0,0,1,.009,8.253l-1.057,1.049a1.208,1.208,0,0,0,1.7,1.715L99.116,54.6l.019-.019a8.439,8.439,0,0,0,0-11.616Zm-20.888-23.3v-.12H80.2a.686.686,0,0,1,.593.681v3.194c0,.439,0,1.664-2.55,1.955V19.665Zm-37.1,3.49h0v2.22c-2.55-.291-2.551-1.517-2.551-1.954l0-3.2a.686.686,0,0,1,.594-.681H41.15l0,3.609Zm2.425-7.062c0-3.676,2.025-7.937,6.452-8.6a1.208,1.208,0,0,0,.759-.434c3.44-4.248,10.231-5.811,16.146-3.716a12.854,12.854,0,0,1,8.9,12.753V21.7c-1.875-.756-3.432-3.153-4.122-5.528a1.219,1.219,0,0,0-2.165-.334c-.954,1.428-4.512,2.461-8.651,2.512a22.769,22.769,0,0,1-7.254-1c-3.815-1.524-4.5-2.658-4.8-3.081a1.208,1.208,0,0,0-1.975,1.392A8.175,8.175,0,0,0,47.95,16.9l-.137.385c-.849,2.4-1.445,4.086-4.25,4.543Zm.268,12.8a9.747,9.747,0,0,1-.277-2.248V24.272c4.385-.557,5.517-3.327,6.427-5.887a22.418,22.418,0,0,0,10.6,2.386l.34,0c3.15-.039,6.846-.644,9.12-2.144,1.172,2.614,3.213,5.013,5.787,5.6v2.422a9.985,9.985,0,0,1-.274,2.252C74.3,34.244,69.173,39.79,63.629,41.8a10.291,10.291,0,0,1-7.866,0C50.217,39.789,45.091,34.244,43.839,28.9ZM53.3,45.974v-2.59c.539.256,1.086.486,1.638.686a12.679,12.679,0,0,0,9.511,0c.553-.2,1.1-.432,1.642-.688v2.592L59.7,48.784Zm8.873,8.041-1.487,2.779H58.706l-1.49-2.778L59.7,51.742ZM46.285,46.271l-3.3,1.419A11.967,11.967,0,0,1,50.837,42l.05.033v3.653l-4.24.488a2.449,2.449,0,0,0-.362.1Zm2.333,2.108L51.909,48l5.608,2.464L52.09,55.438ZM53.2,57.7l2.178-2,1.22,2.274L54.823,61Zm6.5,13.211-3.6-7.317,2.575-4.381h2.047l2.573,4.383ZM64.571,61,62.8,57.975,64.015,55.7l2.178,2ZM67.3,55.439l-5.424-4.974L67.488,48l3.287.378Zm5.8-9.167a1.214,1.214,0,0,0-.361-.1l-4.237-.488v-3.4a11.955,11.955,0,0,1,6.352,4.742Zm7.111,18.38a2.126,2.126,0,1,1-2.126-2.128A2.129,2.129,0,0,1,80.218,64.651Z" transform="translate(-28.001 0)"/>
        </g>
      </g>
    </g>
  </g>
</svg>
