<svg xmlns="http://www.w3.org/2000/svg" xmlns:xlink="http://www.w3.org/1999/xlink" width="113" height="113" viewBox="0 0 113 113">
  <defs>
    <filter id="Path_982547" x="0" y="0" width="113" height="113" filterUnits="userSpaceOnUse">
      <feOffset dy="3" input="SourceAlpha"/>
      <feGaussianBlur stdDeviation="3" result="blur"/>
      <feFlood flood-opacity="0.161"/>
      <feComposite operator="in" in2="blur"/>
      <feComposite in="SourceGraphic"/>
    </filter>
  </defs>
  <g id="Group_1222516" data-name="Group 1222516" transform="translate(-742.046 -888.867)">
    <g id="Group_1221161" data-name="Group 1221161">
      <g id="Group_1210678" data-name="Group 1210678" transform="translate(0 -6639.941)">
        <g id="Group_1208706" data-name="Group 1208706" transform="translate(-1.454 3213.429)">
          <g id="Group_1148634" data-name="Group 1148634" transform="translate(488.454 600.047)">
            <g id="Group_1148525" data-name="Group 1148525" transform="translate(264.046 3721.333)">
              <g transform="matrix(1, 0, 0, 1, -9, -6)" filter="url(#Path_982547)">
                <g id="Path_982547-2" data-name="Path 982547" transform="translate(9 6)" fill="#ffe6ef">
                  <path d="M 47.5 93.5 C 41.28937149047852 93.5 35.26533508300781 92.28397369384766 29.59518623352051 89.88570404052734 C 24.11771965026855 87.56893157958984 19.19813346862793 84.25196075439453 14.97309303283691 80.02691650390625 C 10.74804019927979 75.80186462402344 7.431066513061523 70.88229370117188 5.114293098449707 65.40481567382812 C 2.716026782989502 59.73468017578125 1.5 53.71062850952148 1.5 47.5 C 1.5 41.28937149047852 2.716026782989502 35.26533508300781 5.114293098449707 29.59518623352051 C 7.431066513061523 24.11771965026855 10.74804019927979 19.19813346862793 14.97309303283691 14.97309303283691 C 19.19813346862793 10.74804019927979 24.11771965026855 7.431066513061523 29.59518623352051 5.114293098449707 C 35.26533508300781 2.716026782989502 41.28937149047852 1.5 47.5 1.5 C 53.71062850952148 1.5 59.73468017578125 2.716026782989502 65.40481567382812 5.114293098449707 C 70.88229370117188 7.431066513061523 75.80186462402344 10.74804019927979 80.02691650390625 14.97309303283691 C 84.25196075439453 19.19813346862793 87.56893157958984 24.11771965026855 89.88570404052734 29.59518623352051 C 92.28397369384766 35.26533508300781 93.5 41.28937149047852 93.5 47.5 C 93.5 53.71062850952148 92.28397369384766 59.73468017578125 89.88570404052734 65.40481567382812 C 87.56893157958984 70.88229370117188 84.25196075439453 75.80186462402344 80.02691650390625 80.02691650390625 C 75.80186462402344 84.25196075439453 70.88229370117188 87.56893157958984 65.40481567382812 89.88570404052734 C 59.73468017578125 92.28397369384766 53.71062850952148 93.5 47.5 93.5 Z" stroke="none"/>
                  <path d="M 47.5 3 C 41.49121475219727 3 35.66376876831055 4.176155090332031 30.17950439453125 6.495796203613281 C 24.88084411621094 8.736953735351562 20.12152099609375 11.94598388671875 16.03375244140625 16.03375244140625 C 11.94598388671875 20.12152099609375 8.736953735351562 24.88084411621094 6.495796203613281 30.17950439453125 C 4.176155090332031 35.66376876831055 3 41.49121475219727 3 47.5 C 3 53.50878524780273 4.176155090332031 59.33623123168945 6.495796203613281 64.82049560546875 C 8.736953735351562 70.11915588378906 11.94598388671875 74.87847900390625 16.03375244140625 78.96624755859375 C 20.12152099609375 83.05401611328125 24.88084411621094 86.26304626464844 30.17950439453125 88.50419616699219 C 35.66376876831055 90.82384490966797 41.49121475219727 92 47.5 92 C 53.50878524780273 92 59.33623123168945 90.82384490966797 64.82049560546875 88.50419616699219 C 70.11915588378906 86.26304626464844 74.87847900390625 83.05401611328125 78.96624755859375 78.96624755859375 C 83.05401611328125 74.87847900390625 86.26304626464844 70.11915588378906 88.50419616699219 64.82049560546875 C 90.82384490966797 59.33623123168945 92 53.50878524780273 92 47.5 C 92 41.49121475219727 90.82384490966797 35.66376876831055 88.50419616699219 30.17950439453125 C 86.26304626464844 24.88084411621094 83.05401611328125 20.12152099609375 78.96624755859375 16.03375244140625 C 74.87847900390625 11.94598388671875 70.11915588378906 8.736953735351562 64.82049560546875 6.495796203613281 C 59.33623123168945 4.176155090332031 53.50878524780273 3 47.5 3 M 47.5 0 C 73.7335205078125 0 95 21.2664794921875 95 47.5 C 95 73.7335205078125 73.7335205078125 95 47.5 95 C 21.2664794921875 95 0 73.7335205078125 0 47.5 C 0 21.2664794921875 21.2664794921875 0 47.5 0 Z" stroke="none" fill="#ffadcc"/>
                </g>
              </g>
            </g>
          </g>
        </g>
      </g>
      <g id="limite-de-tiempo_1_" data-name="limite-de-tiempo (1)" transform="translate(758.435 885.998)">
        <g id="Group_1221159" data-name="Group 1221159" transform="translate(1.177 28.857)">
          <g id="Group_1221148" data-name="Group 1221148" transform="translate(12.653)">
            <path id="Path_1171213" data-name="Path 1171213" d="M155.332,68.43a26.874,26.874,0,0,0-19.37,8.212l2.852,4.94a21.53,21.53,0,0,1,35.878,23.227,14.571,14.571,0,0,1,6.1-.546A26.97,26.97,0,0,0,155.332,68.43Z" transform="translate(-128.489 -68.43)" fill="#fe646f"/>
            <path id="Path_1171214" data-name="Path 1171214" d="M124.842,272.937A21.535,21.535,0,0,1,93.725,256.2H88.268a26.975,26.975,0,0,0,36.124,22.851,14.546,14.546,0,0,1,.45-6.109Z" transform="translate(-88.268 -226.775)" fill="#fe646f"/>
          </g>
          <g id="Group_1221151" data-name="Group 1221151" transform="translate(48.481 35.567)">
            <g id="Group_1221149" data-name="Group 1221149">
              <path id="Path_1171215" data-name="Path 1171215" d="M331.625,295.426a14.683,14.683,0,0,0-4.438.683,21.512,21.512,0,0,1-9.641,9.8,14.7,14.7,0,1,0,14.08-10.478Z" transform="translate(-316.93 -295.426)" fill="#05e39c"/>
            </g>
            <g id="Group_1221150" data-name="Group 1221150" transform="translate(11.41)">
              <path id="Path_1171216" data-name="Path 1171216" d="M393.035,295.426a14.736,14.736,0,0,0-3.285.369,14.7,14.7,0,0,1,0,28.651,14.7,14.7,0,1,0,3.285-29.02Z" transform="translate(-389.75 -295.426)" fill="#0ed290"/>
            </g>
          </g>
          <g id="Group_1221154" data-name="Group 1221154" transform="translate(18.109 5.429)">
            <g id="Group_1221152" data-name="Group 1221152">
              <path id="Path_1171217" data-name="Path 1171217" d="M144.479,103.077a21.481,21.481,0,0,0-16.518,7.723l6.594,11.421a3.232,3.232,0,0,1-2.8,4.848h-8.663a21.527,21.527,0,1,0,21.386-23.991Z" transform="translate(-123.093 -103.077)" fill="#fff"/>
            </g>
            <g id="Group_1221153" data-name="Group 1221153" transform="translate(18.098 0)">
              <path id="Path_1171218" data-name="Path 1171218" d="M241.885,103.077a21.692,21.692,0,0,0-3.288.25,21.531,21.531,0,0,1,0,42.555,21.529,21.529,0,1,0,3.288-42.8Z" transform="translate(-238.596 -103.077)" fill="#f3f0f3"/>
            </g>
          </g>
          <g id="Group_1221155" data-name="Group 1221155" transform="translate(36.875 24.335)">
            <circle id="Ellipse_11902" data-name="Ellipse 11902" cx="2.621" cy="2.621" r="2.621" fill="#fe646f"/>
          </g>
          <g id="Group_1221158" data-name="Group 1221158" transform="translate(0 2.551)">
            <g id="Group_1221156" data-name="Group 1221156" transform="translate(0 0)">
              <path id="Path_1171219" data-name="Path 1171219" d="M19.664,86.4,7.973,106.652a3.388,3.388,0,0,0,2.935,5.083H34.289a3.389,3.389,0,0,0,2.935-5.083L25.533,86.4a3.388,3.388,0,0,0-5.869,0Z" transform="translate(-7.514 -84.709)" fill="#ffd15b"/>
            </g>
            <g id="Group_1221157" data-name="Group 1221157" transform="translate(11.833)">
              <path id="Path_1171220" data-name="Path 1171220" d="M100.912,106.652,89.222,86.4a3.388,3.388,0,0,0-5.869,0l-.317.549,11.374,19.7a3.388,3.388,0,0,1-2.935,5.083h6.5A3.388,3.388,0,0,0,100.912,106.652Z" transform="translate(-83.036 -84.709)" fill="#ffc344"/>
            </g>
          </g>
        </g>
        <g id="Group_1221160" data-name="Group 1221160" transform="translate(-0.001 21.505)">
          <path id="Path_1171221" data-name="Path 1171221" d="M345.668,45.193c.54.265,1.08.548,1.6.843a1.175,1.175,0,0,0,1.152-2.048c-.562-.316-1.141-.621-1.721-.905a1.175,1.175,0,1,0-1.034,2.11Z" transform="translate(-290.952 -39.601)"/>
          <path id="Path_1171222" data-name="Path 1171222" d="M381.089,67.155c.478.366.952.751,1.407,1.143a1.175,1.175,0,0,0,1.533-1.782c-.489-.421-1-.833-1.51-1.227a1.175,1.175,0,1,0-1.43,1.865Z" transform="translate(-320.99 -58.225)"/>
          <path id="Path_1171223" data-name="Path 1171223" d="M306.608,30.679c.581.152,1.167.323,1.74.508a1.175,1.175,0,1,0,.724-2.236c-.615-.2-1.244-.383-1.869-.546a1.175,1.175,0,0,0-.594,2.274Z" transform="translate(-257.826 -27.291)"/>
          <path id="Path_1171224" data-name="Path 1171224" d="M436.612,131.187a1.175,1.175,0,0,0,2.1-1.052c-.29-.578-.6-1.156-.922-1.716a1.175,1.175,0,0,0-2.038,1.17C436.053,130.11,436.342,130.648,436.612,131.187Z" transform="translate(-367.346 -111.169)"/>
          <path id="Path_1171225" data-name="Path 1171225" d="M463.176,248.93a1.173,1.173,0,0,0-1.259,1.084c-.045.6-.108,1.207-.186,1.8a1.175,1.175,0,1,0,2.33.308c.085-.64.152-1.291.2-1.936A1.175,1.175,0,0,0,463.176,248.93Z" transform="translate(-389.375 -213.293)"/>
          <path id="Path_1171226" data-name="Path 1171226" d="M412.669,97.056a1.175,1.175,0,0,0,1.852-1.446c-.4-.51-.815-1.014-1.24-1.5a1.175,1.175,0,0,0-1.768,1.548C411.91,96.111,412.3,96.581,412.669,97.056Z" transform="translate(-346.79 -82.395)"/>
          <path id="Path_1171227" data-name="Path 1171227" d="M463,207.022a1.175,1.175,0,0,0-1.024,1.309c.073.6.13,1.2.169,1.805a1.175,1.175,0,0,0,1.172,1.1l.078,0a1.175,1.175,0,0,0,1.1-1.249c-.042-.645-.1-1.3-.182-1.937A1.174,1.174,0,0,0,463,207.022Z" transform="translate(-389.586 -177.947)"/>
          <path id="Path_1171228" data-name="Path 1171228" d="M452.816,167.646c.19.572.367,1.156.524,1.738a1.175,1.175,0,1,0,2.269-.614c-.169-.625-.359-1.253-.563-1.867a1.175,1.175,0,1,0-2.23.743Z" transform="translate(-381.816 -143.443)"/>
          <path id="Path_1171229" data-name="Path 1171229" d="M73.409,66.1q.156-.5.3-.994a1.175,1.175,0,1,0-2.263-.636c-.037.133-.079.266-.118.4a15.749,15.749,0,0,0-3.618-1.258A28.168,28.168,0,0,0,62.843,38.5a1.175,1.175,0,0,0-1.851,1.448,25.819,25.819,0,0,1,4.361,23.336c-.331-.021-.665-.032-1-.032a15.855,15.855,0,0,0-2.288.166A22.7,22.7,0,0,0,24.48,39.905l-1.59-2.754a25.771,25.771,0,0,1,34.466-.991,1.175,1.175,0,1,0,1.522-1.791,28.124,28.124,0,0,0-37.2.691l-1.47-2.546a4.659,4.659,0,0,0-.56-.773,31.807,31.807,0,0,1,21.019-7.886,1.175,1.175,0,0,0,0-2.35,34.152,34.152,0,0,0-23.079,8.924,4.62,4.62,0,0,0-1.332-.2,4.517,4.517,0,0,0-3.952,2.282L7.854,40.23A1.175,1.175,0,1,0,9.89,41.4l4.454-7.715a2.213,2.213,0,0,1,3.833,0L29.868,53.939a2.213,2.213,0,0,1-1.917,3.32H4.57a2.213,2.213,0,0,1-1.917-3.32l4.495-7.785a1.175,1.175,0,0,0-2.035-1.175L.618,52.764A4.564,4.564,0,0,0,4.57,59.609h2a34.309,34.309,0,0,0,34.1,30.512,1.175,1.175,0,0,0,0-2.35A31.96,31.96,0,0,1,8.94,59.609H12.8A28.147,28.147,0,0,0,48.893,82.721a15.768,15.768,0,0,0,2.415,5.437,1.175,1.175,0,1,0,1.931-1.34,13.437,13.437,0,0,1-2.406-7.7,13.578,13.578,0,0,1,.383-3.2,22.858,22.858,0,0,0,9.724-9.879,13.521,13.521,0,1,1-4.1,24.324,1.175,1.175,0,1,0-1.308,1.952A15.867,15.867,0,0,0,73.409,66.1ZM48.532,80.371a25.789,25.789,0,0,1-33.36-20.762h3.116A22.7,22.7,0,0,0,48.614,77.081a16.007,16.007,0,0,0-.132,2.038Q48.482,79.749,48.532,80.371Zm-7.859-4.206a20.36,20.36,0,0,1-20-16.556h7.276A4.564,4.564,0,0,0,31.9,52.764l-6.2-10.737A20.351,20.351,0,1,1,40.672,76.165Z" transform="translate(0.001 -21.505)"/>
          <path id="Path_1171230" data-name="Path 1171230" d="M366.384,361.318h.019a1.175,1.175,0,0,0,.87-.407l8.6-9.957a1.175,1.175,0,1,0-1.778-1.537l-7.744,8.962-4.908-5.317a1.175,1.175,0,0,0-1.727,1.594l5.8,6.284a1.176,1.176,0,0,0,.863.378Z" transform="translate(-303.094 -297.695)"/>
          <path id="Path_1171231" data-name="Path 1171231" d="M253.259,125.744a1.175,1.175,0,0,0,1.175-1.175v-.936a1.175,1.175,0,1,0-2.35,0v.936A1.175,1.175,0,0,0,253.259,125.744Z" transform="translate(-212.586 -106.64)"/>
          <path id="Path_1171232" data-name="Path 1171232" d="M253.259,337.506a1.175,1.175,0,0,0-1.175,1.175v.936a1.175,1.175,0,1,0,2.35,0v-.936A1.175,1.175,0,0,0,253.259,337.506Z" transform="translate(-212.586 -287.993)"/>
          <path id="Path_1171233" data-name="Path 1171233" d="M356.622,234.144a1.175,1.175,0,0,0,1.175,1.175h.936a1.175,1.175,0,1,0,0-2.35H357.8A1.175,1.175,0,0,0,356.622,234.144Z" transform="translate(-300.745 -199.836)"/>
          <path id="Path_1171234" data-name="Path 1171234" d="M199.021,137.85a1.175,1.175,0,0,0-2.035,1.175l.468.811a1.175,1.175,0,1,0,2.035-1.175Z" transform="translate(-165.988 -119.125)"/>
          <path id="Path_1171235" data-name="Path 1171235" d="M306.545,324.087a1.175,1.175,0,1,0-2.035,1.175l.468.811a1.175,1.175,0,1,0,2.035-1.175Z" transform="translate(-256.664 -276.182)"/>
          <path id="Path_1171236" data-name="Path 1171236" d="M157.776,285.393l-.811.468a1.175,1.175,0,1,0,1.175,2.035l.811-.468a1.175,1.175,0,1,0-1.175-2.035Z" transform="translate(-131.876 -243.913)"/>
          <path id="Path_1171237" data-name="Path 1171237" d="M342.773,179.943a1.175,1.175,0,0,0,1.605.43l.811-.468a1.175,1.175,0,1,0-1.175-2.035l-.811.468A1.175,1.175,0,0,0,342.773,179.943Z" transform="translate(-288.932 -153.237)"/>
          <path id="Path_1171238" data-name="Path 1171238" d="M345.189,285.861l-.811-.468a1.175,1.175,0,0,0-1.175,2.036l.811.468a1.175,1.175,0,1,0,1.175-2.036Z" transform="translate(-288.932 -243.913)"/>
          <path id="Path_1171239" data-name="Path 1171239" d="M199.058,323.657a1.175,1.175,0,0,0-1.605.43l-.468.811a1.175,1.175,0,1,0,2.035,1.175l.468-.811A1.175,1.175,0,0,0,199.058,323.657Z" transform="translate(-165.987 -276.182)"/>
          <path id="Path_1171240" data-name="Path 1171240" d="M304.94,140.267a1.174,1.174,0,0,0,1.605-.43l.468-.811a1.175,1.175,0,0,0-2.036-1.175l-.468.811A1.175,1.175,0,0,0,304.94,140.267Z" transform="translate(-256.665 -119.125)"/>
          <path id="Path_1171241" data-name="Path 1171241" d="M97.46,132.607a1.175,1.175,0,0,0,1.175-1.175v-8.877a1.175,1.175,0,0,0-2.35,0v8.877A1.175,1.175,0,0,0,97.46,132.607Z" transform="translate(-81.198 -105.731)"/>
          <path id="Path_1171242" data-name="Path 1171242" d="M96.285,209.875a1.175,1.175,0,1,0,2.35,0v-1.082a1.175,1.175,0,0,0-2.35,0Z" transform="translate(-81.198 -178.457)"/>
          <path id="Path_1171243" data-name="Path 1171243" d="M249.075,166.473h-6.313a3.812,3.812,0,0,0-2.434-2.434v-8.746a1.175,1.175,0,1,0-2.35,0v8.746a3.8,3.8,0,1,0,4.784,4.784h6.313a1.175,1.175,0,1,0,0-2.35Zm-9.921,2.621a1.446,1.446,0,1,1,1.446-1.446A1.447,1.447,0,0,1,239.154,169.093Z" transform="translate(-198.481 -133.34)"/>
        </g>
      </g>
    </g>
  </g>
</svg>
