<svg xmlns="http://www.w3.org/2000/svg" xmlns:xlink="http://www.w3.org/1999/xlink" width="93.934" height="93.934" viewBox="0 0 93.934 93.934">
  <defs>
    <filter id="Path_982547" x="0" y="0" width="93.934" height="93.934" filterUnits="userSpaceOnUse">
      <feOffset dy="3" input="SourceAlpha"/>
      <feGaussianBlur stdDeviation="3" result="blur"/>
      <feFlood flood-opacity="0.161"/>
      <feComposite operator="in" in2="blur"/>
      <feComposite in="SourceGraphic"/>
    </filter>
  </defs>
  <g id="Group_1222562" data-name="Group 1222562" transform="translate(-823.066 -3168.533)">
    <g id="Group_1222474" data-name="Group 1222474">
      <g id="Group_1221059" data-name="Group 1221059" transform="translate(212 1973.836)">
        <g id="Group_1215985" data-name="Group 1215985" transform="translate(-0.229 -2679.151)">
          <g id="Group_1214663" data-name="Group 1214663" transform="translate(0 -1254.151)">
            <g id="Group_1214433" data-name="Group 1214433" transform="translate(-0.771 -2738.674)">
              <g id="Group_1183190" data-name="Group 1183190" transform="translate(1 1016.674)">
                <g id="Group_1179611" data-name="Group 1179611" transform="translate(428 4723.467)">
                  <g id="Group_1175227" data-name="Group 1175227" transform="translate(-5.967 140.533)">
                    <g id="Group_1167337" data-name="Group 1167337" transform="translate(198.033 1992)">
                      <g id="Group_1166720" data-name="Group 1166720">
                        <g id="Group_1164305" data-name="Group 1164305">
                          <g id="Group_1163948" data-name="Group 1163948">
                            <g id="Group_1158168" data-name="Group 1158168">
                              <g id="Group_1152576" data-name="Group 1152576">
                                <g id="Group_1148633" data-name="Group 1148633">
                                  <g id="Group_1148525" data-name="Group 1148525">
                                    <g transform="matrix(1, 0, 0, 1, -9, -6)" filter="url(#Path_982547)">
                                      <g id="Path_982547-2" data-name="Path 982547" transform="translate(9 6)" fill="#f7fbfc">
                                        <path d="M 37.966796875 74.43359375 C 33.04315185546875 74.43359375 28.26757431030273 73.46962738037109 23.77274131774902 71.56847381591797 C 19.43047523498535 69.73184967041016 15.53040790557861 67.10224914550781 12.18087482452393 63.75271987915039 C 8.831341743469238 60.4031867980957 6.201741218566895 56.50312042236328 4.365118980407715 52.16086196899414 C 2.463963508605957 47.66601943969727 1.499996900558472 42.89044189453125 1.499996900558472 37.966796875 C 1.499996900558472 33.04315185546875 2.463963508605957 28.26757431030273 4.365118980407715 23.77274131774902 C 6.201741218566895 19.43047523498535 8.831341743469238 15.53040790557861 12.18087482452393 12.18087482452393 C 15.53040790557861 8.831341743469238 19.43047523498535 6.201741218566895 23.77274131774902 4.365118980407715 C 28.26757431030273 2.463963508605957 33.04315185546875 1.499996900558472 37.966796875 1.499996900558472 C 42.89044189453125 1.499996900558472 47.66601943969727 2.463963508605957 52.16086196899414 4.365118980407715 C 56.50312042236328 6.201741218566895 60.4031867980957 8.831341743469238 63.75271987915039 12.18087482452393 C 67.10224914550781 15.53040790557861 69.73184967041016 19.43047523498535 71.56847381591797 23.77274131774902 C 73.46962738037109 28.26757431030273 74.43359375 33.04315185546875 74.43359375 37.966796875 C 74.43359375 42.89044189453125 73.46962738037109 47.66601943969727 71.56847381591797 52.16086196899414 C 69.73184967041016 56.50313186645508 67.10224914550781 60.4031867980957 63.75271987915039 63.75271987915039 C 60.4031867980957 67.10224914550781 56.50313186645508 69.73184967041016 52.16086196899414 71.56847381591797 C 47.66601943969727 73.46962738037109 42.89044189453125 74.43359375 37.966796875 74.43359375 Z" stroke="none"/>
                                        <path d="M 37.966796875 3 C 33.2449836730957 3 28.66600799560547 3.924095153808594 24.35705947875977 5.746635437011719 C 20.19359588623047 7.507637023925781 16.45379638671875 10.02928161621094 13.24153518676758 13.24153518676758 C 10.02927398681641 16.45379638671875 7.507621765136719 20.19359588623047 5.746635437011719 24.35705947875977 C 3.924095153808594 28.66600799560547 3 33.2449836730957 3 37.966796875 C 3 42.6886100769043 3.924095153808594 47.26758575439453 5.746635437011719 51.57653427124023 C 7.507621765136719 55.73999786376953 10.02927398681641 59.47979736328125 13.24153518676758 62.69205856323242 C 16.45379638671875 65.90431976318359 20.19359588623047 68.42597198486328 24.35705947875977 70.18695831298828 C 28.66600799560547 72.00949859619141 33.2449836730957 72.93359375 37.966796875 72.93359375 C 42.6886100769043 72.93359375 47.26758575439453 72.00949859619141 51.57653427124023 70.18695831298828 C 55.73999786376953 68.42597198486328 59.47979736328125 65.90431976318359 62.69205856323242 62.69205856323242 C 65.90431976318359 59.47979736328125 68.42597198486328 55.73999786376953 70.18695831298828 51.57653427124023 C 72.00949859619141 47.26758575439453 72.93359375 42.6886100769043 72.93359375 37.966796875 C 72.93359375 33.2449836730957 72.00949859619141 28.66600799560547 70.18695831298828 24.35705947875977 C 68.42597198486328 20.19359588623047 65.90431976318359 16.45379638671875 62.69205856323242 13.24153518676758 C 59.47979736328125 10.02928161621094 55.73999786376953 7.507637023925781 51.57653427124023 5.746635437011719 C 47.26758575439453 3.924095153808594 42.6886100769043 3 37.966796875 3 M 37.966796875 0 C 58.93528366088867 0 75.93359375 16.99832153320312 75.93359375 37.966796875 C 75.93359375 58.93528366088867 58.93528366088867 75.93359375 37.966796875 75.93359375 C 16.99831008911133 75.93359375 0 58.93528366088867 0 37.966796875 C 0 16.99832153320312 16.99831008911133 0 37.966796875 0 Z" stroke="none" fill="#62797e"/>
                                      </g>
                                    </g>
                                  </g>
                                </g>
                              </g>
                            </g>
                          </g>
                        </g>
                      </g>
                    </g>
                  </g>
                </g>
              </g>
            </g>
          </g>
        </g>
      </g>
      <g id="salud_1_" data-name="salud (1)" transform="translate(832.066 3170)">
        <path id="Path_1172220" data-name="Path 1172220" d="M0,333.664H7.167V350.6H0Zm0,0" transform="translate(0 -290.206)" fill="#96d1f3"/>
        <path id="Path_1172221" data-name="Path 1172221" d="M0,433.715H7.167v3.909H0Zm0,0" transform="translate(0 -377.226)" fill="#73c1ef"/>
        <path id="Path_1172222" data-name="Path 1172222" d="M113.108,336.093a6.255,6.255,0,0,0-8.085-1.855l-12.267,6.691a3.129,3.129,0,0,0-3.067-3.741H80.216s-1.484-3.235-2.681-4.072c-6.3-5.762-18.2.478-18.2.478h-4.3v11.873h6.843l24.088,7.619,27.187-16.94Zm0,0" transform="translate(-47.86 -287.604)" fill="#f7e0ba"/>
        <path id="Path_1172223" data-name="Path 1172223" d="M113.109,357.948A6.232,6.232,0,0,0,110.4,355.8l-14.1,8.787a7.03,7.03,0,0,0,.273-3.885l-3.815,2.08A3.128,3.128,0,0,1,89.69,365.3H79.108a2.71,2.71,0,0,0-2.71,2.71l-14.527-4.6H55.028v3.909h6.843l24.088,7.619L113.146,358Zm0,0" transform="translate(-47.861 -309.459)" fill="#f5cc89"/>
        <path id="Path_1172224" data-name="Path 1172224" d="M130.51,48.9l-19.773-19.85a12.633,12.633,0,1,1,17.9-17.831L130.51,13.1l1.872-1.879a12.633,12.633,0,0,1,17.9,17.831Zm0,0" transform="translate(-93.111 -6.526)" fill="#e46a4a"/>
        <path id="Path_1172225" data-name="Path 1172225" d="M235.353,94.756h-5.212V89.544h-7.819v5.212H217.11v7.819h5.212v5.212h7.819v-5.212h5.212Zm0,0" transform="translate(-188.832 -77.881)" fill="#fff"/>
        <path id="Path_1172226" data-name="Path 1172226" d="M130.533,125.634l-23.449-23.54a12.6,12.6,0,0,0,3.675,9.229l19.773,19.85,19.773-19.85a12.593,12.593,0,0,0,3.675-9.229Zm0,0" transform="translate(-93.134 -88.797)" fill="#db380e"/>
        <path id="Path_1172227" data-name="Path 1172227" d="M222.045,335.405a7.23,7.23,0,0,0-9.348-2.145L201.813,339.2a4.112,4.112,0,0,0-3.982-3.106h-8.858a12.358,12.358,0,0,0-2.68-3.855,9.683,9.683,0,0,0-2.654-1.7l-.776,1.793a7.729,7.729,0,0,1,2.154,1.388l.047.043.053.037a12.589,12.589,0,0,1,2.352,3.678l.262.57h10.1a2.15,2.15,0,1,1,0,4.3H184.54V344.3h13.292a4.111,4.111,0,0,0,3.9-2.834l11.9-6.49a5.274,5.274,0,0,1,6.175.82l-25.843,16.1-14.013-4.432-.589,1.864,14.871,4.7L222.687,336.3Zm0,0" transform="translate(-156.002 -287.485)"/>
        <path id="Path_1172228" data-name="Path 1172228" d="M25.6,323.48a14.184,14.184,0,0,0-3.017-.308h0a28.251,28.251,0,0,0-11.344,2.92H8.144v-2.531H0v1.955H6.19V340.5H0v1.955H8.144v-2.537h5.715l7.638,2.416.59-1.864-7.926-2.507H8.144v-9.918h3.567l.213-.111c.054-.028,5.435-2.809,10.657-2.809h0a12.269,12.269,0,0,1,2.6.263Zm0,0" transform="translate(0 -281.08)"/>
        <path id="Path_1172229" data-name="Path 1172229" d="M206.737,60.476a11.58,11.58,0,0,1-3.4,8.226L184.485,87.629l-.226.227L170.236,73.78l-1.385,1.379,15.407,15.467,20.465-20.545a13.62,13.62,0,0,0,2.268-16.2l-1.71.947a11.67,11.67,0,0,1,1.455,5.645Zm0,0" transform="translate(-146.859 -46.865)"/>
        <path id="Path_1172230" data-name="Path 1172230" d="M147.668,186.773l1.385-1.379,1.379,1.385-1.385,1.379Zm0,0" transform="translate(-128.435 -161.247)"/>
        <path id="Path_1172231" data-name="Path 1172231" d="M432.832,31.216l1.543-1.2a13.782,13.782,0,0,0-1.146-1.294q-.134-.133-.269-.26l-1.342,1.421q.117.111.232.225a11.849,11.849,0,0,1,.982,1.11Zm0,0" transform="translate(-375.402 -24.754)"/>
        <path id="Path_1172232" data-name="Path 1172232" d="M104.439,24.14l1.384-1.379-.92-.924A11.656,11.656,0,0,1,121.419,5.384L122.832,6.8l1.152,1.157,2.565-2.575A11.662,11.662,0,0,1,141.4,4l1.107-1.611a13.616,13.616,0,0,0-17.343,1.62l-1.18,1.184L122.8,4.005a13.611,13.611,0,0,0-19.285,19.211Zm0,0" transform="translate(-86.585)"/>
        <path id="Path_1172233" data-name="Path 1172233" d="M214.818,82.039v5.212h-5.212v9.773h5.212v5.212h9.773V97.025H229.8V87.251h-5.212V82.039Zm13.031,7.167V95.07h-5.212v5.212h-5.864V95.07H211.56V89.206h5.212V83.994h5.864v5.212Zm0,0" transform="translate(-182.305 -71.354)"/>
        <g id="Group_1222473" data-name="Group 1222473" transform="translate(2.15 3.91)">
          <path id="Path_1172234" data-name="Path 1172234" d="M18.462,362.54H16.508v-1.955h1.955Zm0-3.909H16.508v-1.955h1.955Zm0,0" transform="translate(-16.508 -314.13)" fill="#fff"/>
          <path id="Path_1172235" data-name="Path 1172235" d="M112.984,356.794l-.73-1.813c.62-.25,1.26-.481,1.9-.689l.6,1.861C114.157,356.346,113.561,356.562,112.984,356.794Zm3.582-1.151-.455-1.9a14.725,14.725,0,0,1,6.076-.36l-.371,1.919a12.9,12.9,0,0,0-5.249.342Zm0,0" transform="translate(-99.783 -311.112)" fill="#fff"/>
          <path id="Path_1172236" data-name="Path 1172236" d="M377.985,39.7a7.769,7.769,0,0,0-4.39-6.971l.848-1.761a9.725,9.725,0,0,1,5.5,8.729Zm-6.023-7.54a7.832,7.832,0,0,0-1.723-.191V30.016a9.785,9.785,0,0,1,2.154.239Zm0,0" transform="translate(-324.167 -30.016)" fill="#fff"/>
        </g>
      </g>
    </g>
  </g>
</svg>
