<svg xmlns="http://www.w3.org/2000/svg" xmlns:xlink="http://www.w3.org/1999/xlink" width="108" height="108" viewBox="0 0 108 108">
  <defs>
    <filter id="Path_978624" x="0" y="0" width="108" height="108" filterUnits="userSpaceOnUse">
      <feOffset dy="3" input="SourceAlpha"/>
      <feGaussianBlur stdDeviation="3" result="blur"/>
      <feFlood flood-opacity="0.161"/>
      <feComposite operator="in" in2="blur"/>
      <feComposite in="SourceGraphic"/>
    </filter>
    <filter id="Path_1076716" x="0" y="0" width="108" height="108" filterUnits="userSpaceOnUse">
      <feOffset dy="3" input="SourceAlpha"/>
      <feGaussianBlur stdDeviation="3" result="blur-2"/>
      <feFlood flood-opacity="0.161"/>
      <feComposite operator="in" in2="blur-2"/>
      <feComposite in="SourceGraphic"/>
    </filter>
  </defs>
  <g id="Group_1222552" data-name="Group 1222552" transform="translate(-615 -855.883)">
    <g id="Group_1221887" data-name="Group 1221887">
      <g id="Group_1221054" data-name="Group 1221054" transform="translate(-1 -1443.117)">
        <g id="Group_1208503" data-name="Group 1208503" transform="translate(0 1813)">
          <g id="Group_1200660" data-name="Group 1200660">
            <g id="Group_1181203" data-name="Group 1181203" transform="translate(625 492)">
              <g id="Group_1172348" data-name="Group 1172348" transform="translate(0)">
                <g id="Group_1171897" data-name="Group 1171897">
                  <g id="Group_1171052" data-name="Group 1171052">
                    <g id="Group_1164581" data-name="Group 1164581">
                      <g id="Group_1144123" data-name="Group 1144123">
                        <g transform="matrix(1, 0, 0, 1, -9, -6)" filter="url(#Path_978624)">
                          <g id="Path_978624-2" data-name="Path 978624" transform="translate(9 6)" fill="#fff9f4">
                            <path d="M 45 88.5 C 39.12687683105469 88.5 33.43022537231445 87.35007476806641 28.06830024719238 85.08217620849609 C 22.88852500915527 82.89131164550781 18.23629951477051 79.75458526611328 14.2408504486084 75.75914764404297 C 10.24541282653809 71.76370239257812 7.108687400817871 67.11147308349609 4.917825222015381 61.93170166015625 C 2.649924993515015 56.56977462768555 1.5 50.87312316894531 1.5 45 C 1.5 39.12687683105469 2.649924993515015 33.43022537231445 4.917825222015381 28.06830024719238 C 7.108687400817871 22.88852500915527 10.24541282653809 18.23629951477051 14.2408504486084 14.2408504486084 C 18.23629951477051 10.24541282653809 22.88852500915527 7.108687400817871 28.06830024719238 4.917825222015381 C 33.43022537231445 2.649924993515015 39.12687683105469 1.5 45 1.5 C 50.87312316894531 1.5 56.56977462768555 2.649924993515015 61.93170166015625 4.917825222015381 C 67.11147308349609 7.108687400817871 71.76370239257812 10.24541282653809 75.75914764404297 14.2408504486084 C 79.75458526611328 18.23629951477051 82.89131164550781 22.88852500915527 85.08217620849609 28.06830024719238 C 87.35007476806641 33.43022537231445 88.5 39.12687683105469 88.5 45 C 88.5 50.87312316894531 87.35007476806641 56.56977462768555 85.08217620849609 61.93170166015625 C 82.89131164550781 67.11147308349609 79.75458526611328 71.76370239257812 75.75914764404297 75.75914764404297 C 71.76370239257812 79.75458526611328 67.11147308349609 82.89131164550781 61.93170166015625 85.08217620849609 C 56.56977462768555 87.35007476806641 50.87312316894531 88.5 45 88.5 Z" stroke="none"/>
                            <path d="M 45 3 C 39.32871246337891 3 33.82865524291992 4.110054016113281 28.65262985229492 6.299339294433594 C 23.65165710449219 8.414573669433594 19.15968322753906 11.44334411621094 15.301513671875 15.301513671875 C 11.44334411621094 19.15968322753906 8.414573669433594 23.65165710449219 6.299339294433594 28.65262985229492 C 4.110054016113281 33.82865524291992 3 39.32871246337891 3 45 C 3 50.67128753662109 4.110054016113281 56.17134475708008 6.299339294433594 61.34737396240234 C 8.414573669433594 66.34834289550781 11.44334411621094 70.84031677246094 15.301513671875 74.698486328125 C 19.15968322753906 78.55665588378906 23.65165710449219 81.58542633056641 28.65262985229492 83.70066070556641 C 33.82865524291992 85.88994598388672 39.32871246337891 87 45 87 C 50.67128753662109 87 56.17134475708008 85.88994598388672 61.34737396240234 83.70066070556641 C 66.34834289550781 81.58542633056641 70.84031677246094 78.55665588378906 74.698486328125 74.698486328125 C 78.55665588378906 70.84031677246094 81.58542633056641 66.34834289550781 83.70066070556641 61.34737396240234 C 85.88994598388672 56.17134475708008 87 50.67128753662109 87 45 C 87 39.32871246337891 85.88994598388672 33.82865524291992 83.70066070556641 28.65262985229492 C 81.58542633056641 23.65165710449219 78.55665588378906 19.15968322753906 74.698486328125 15.301513671875 C 70.84031677246094 11.44334411621094 66.34834289550781 8.414573669433594 61.34737396240234 6.299339294433594 C 56.17134475708008 4.110054016113281 50.67128753662109 3 45 3 M 45 0 C 69.85281372070312 0 90 20.14718627929688 90 45 C 90 69.85281372070312 69.85281372070312 90 45 90 C 20.14718627929688 90 0 69.85281372070312 0 45 C 0 20.14718627929688 20.14718627929688 0 45 0 Z" stroke="none" fill="#8b7157"/>
                          </g>
                        </g>
                        <g transform="matrix(1, 0, 0, 1, -9, -6)" filter="url(#Path_1076716)">
                          <g id="Path_1076716-2" data-name="Path 1076716" transform="translate(9 6)" fill="#fff9f4">
                            <path d="M 45 88.5 C 39.12687683105469 88.5 33.43022537231445 87.35007476806641 28.06830024719238 85.08217620849609 C 22.88852500915527 82.89131164550781 18.23629951477051 79.75458526611328 14.2408504486084 75.75914764404297 C 10.24541282653809 71.76370239257812 7.108687400817871 67.11147308349609 4.917825222015381 61.93170166015625 C 2.649924993515015 56.56977462768555 1.5 50.87312316894531 1.5 45 C 1.5 39.12687683105469 2.649924993515015 33.43022537231445 4.917825222015381 28.06830024719238 C 7.108687400817871 22.88852500915527 10.24541282653809 18.23629951477051 14.2408504486084 14.2408504486084 C 18.23629951477051 10.24541282653809 22.88852500915527 7.108687400817871 28.06830024719238 4.917825222015381 C 33.43022537231445 2.649924993515015 39.12687683105469 1.5 45 1.5 C 50.87312316894531 1.5 56.56977462768555 2.649924993515015 61.93170166015625 4.917825222015381 C 67.11147308349609 7.108687400817871 71.76370239257812 10.24541282653809 75.75914764404297 14.2408504486084 C 79.75458526611328 18.23629951477051 82.89131164550781 22.88852500915527 85.08217620849609 28.06830024719238 C 87.35007476806641 33.43022537231445 88.5 39.12687683105469 88.5 45 C 88.5 50.87312316894531 87.35007476806641 56.56977462768555 85.08217620849609 61.93170166015625 C 82.89131164550781 67.11147308349609 79.75458526611328 71.76370239257812 75.75914764404297 75.75914764404297 C 71.76370239257812 79.75458526611328 67.11147308349609 82.89131164550781 61.93170166015625 85.08217620849609 C 56.56977462768555 87.35007476806641 50.87312316894531 88.5 45 88.5 Z" stroke="none"/>
                            <path d="M 45 3 C 39.32871246337891 3 33.82865524291992 4.110054016113281 28.65262985229492 6.299339294433594 C 23.65165710449219 8.414573669433594 19.15968322753906 11.44334411621094 15.301513671875 15.301513671875 C 11.44334411621094 19.15968322753906 8.414573669433594 23.65165710449219 6.299339294433594 28.65262985229492 C 4.110054016113281 33.82865524291992 3 39.32871246337891 3 45 C 3 50.67128753662109 4.110054016113281 56.17134475708008 6.299339294433594 61.34737396240234 C 8.414573669433594 66.34834289550781 11.44334411621094 70.84031677246094 15.301513671875 74.698486328125 C 19.15968322753906 78.55665588378906 23.65165710449219 81.58542633056641 28.65262985229492 83.70066070556641 C 33.82865524291992 85.88994598388672 39.32871246337891 87 45 87 C 50.67128753662109 87 56.17134475708008 85.88994598388672 61.34737396240234 83.70066070556641 C 66.34834289550781 81.58542633056641 70.84031677246094 78.55665588378906 74.698486328125 74.698486328125 C 78.55665588378906 70.84031677246094 81.58542633056641 66.34834289550781 83.70066070556641 61.34737396240234 C 85.88994598388672 56.17134475708008 87 50.67128753662109 87 45 C 87 39.32871246337891 85.88994598388672 33.82865524291992 83.70066070556641 28.65262985229492 C 81.58542633056641 23.65165710449219 78.55665588378906 19.15968322753906 74.698486328125 15.301513671875 C 70.84031677246094 11.44334411621094 66.34834289550781 8.414573669433594 61.34737396240234 6.299339294433594 C 56.17134475708008 4.110054016113281 50.67128753662109 3 45 3 M 45 0 C 69.85281372070312 0 90 20.14718627929688 90 45 C 90 69.85281372070312 69.85281372070312 90 45 90 C 20.14718627929688 90 0 69.85281372070312 0 45 C 0 20.14718627929688 20.14718627929688 0 45 0 Z" stroke="none" fill="#8b7157"/>
                          </g>
                        </g>
                      </g>
                    </g>
                  </g>
                </g>
              </g>
            </g>
          </g>
        </g>
      </g>
      <g id="identificar" transform="translate(623.999 879.5)">
        <path id="Path_1171789" data-name="Path 1171789" d="M144.321,7.5a27.346,27.346,0,0,0-22.575,42.285,1.777,1.777,0,0,1-.226,2.231l-9.294,9.294,5.949,5.949,9.294-9.294a1.777,1.777,0,0,1,2.231-.226A27.343,27.343,0,1,0,144.321,7.5Z" transform="translate(-95.128 -6.358)" fill="#c5d3dd"/>
        <circle id="Ellipse_11932" data-name="Ellipse 11932" cx="21.032" cy="21.032" r="21.032" transform="translate(28.485 7.452)" fill="#f9f7f8"/>
        <path id="Path_1171790" data-name="Path 1171790" d="M262.71,55.065a21.038,21.038,0,0,1-18.544,37.144A21.035,21.035,0,1,0,262.71,55.065Z" transform="translate(-206.968 -46.676)" fill="#dff6fd"/>
        <path id="Path_1171791" data-name="Path 1171791" d="M260.932,104.139l-11.52,19.953h23.039Z" transform="translate(-211.415 -88.274)" fill="#fdb441"/>
        <path id="Path_1171792" data-name="Path 1171792" d="M33.453,342.58l-8.7-8.7a.16.16,0,0,0-.226,0L7.547,350.866a.16.16,0,0,0-.047.113v8.857h8.857a.159.159,0,0,0,.113-.047l16.983-16.983A.159.159,0,0,0,33.453,342.58Z" transform="translate(-6.357 -282.978)" fill="#7a6d79"/>
        <g id="Group_1221886" data-name="Group 1221886" transform="translate(5.429 3.754)">
          <path id="Path_1171793" data-name="Path 1171793" d="M51.61,109.663,45.5,108.081a2.1,2.1,0,0,1,1.055-4.072l6.108,1.582a2.1,2.1,0,1,1-1.055,4.072Z" transform="translate(-42.662 -91.86)" fill="#fe646f"/>
          <path id="Path_1171794" data-name="Path 1171794" d="M44.157,191.713l-6.3.386a2.1,2.1,0,1,1-.257-4.2l6.3-.386a2.1,2.1,0,1,1,.257,4.2Z" transform="translate(-35.628 -162.698)" fill="#fe646f"/>
          <path id="Path_1171795" data-name="Path 1171795" d="M87.016,28.363,81.7,24.969a2.1,2.1,0,1,0-2.263,3.546l5.319,3.394a2.1,2.1,0,0,0,2.263-3.546Z" transform="translate(-71.936 -24.639)" fill="#fe646f"/>
        </g>
        <path id="Path_1171796" data-name="Path 1171796" d="M82.463,362.164,72.212,351.913a.188.188,0,0,1,0-.265l3.325-3.325a.188.188,0,0,1,.265,0l10.251,10.251a.188.188,0,0,1,0,.265l-3.325,3.325A.188.188,0,0,1,82.463,362.164Z" transform="translate(-61.163 -295.212)" fill="#c5d3dd"/>
        <path id="Path_1171797" data-name="Path 1171797" d="M201.648,85.766a22.174,22.174,0,1,0-22.175-22.175A22.2,22.2,0,0,0,201.648,85.766Zm0-42.064a19.889,19.889,0,1,1-19.889,19.889A19.912,19.912,0,0,1,201.648,43.7Z" transform="translate(-152.131 -35.107)"/>
        <path id="Path_1171798" data-name="Path 1171798" d="M243.056,118.877h23.039a1.143,1.143,0,0,0,.989-1.714l-2.066-3.578a1.143,1.143,0,0,0-1.979,1.143l1.076,1.865H245.035l9.541-16.525,5.746,9.952a1.143,1.143,0,1,0,1.979-1.143L255.565,97.21a1.143,1.143,0,0,0-1.979,0l-11.52,19.953a1.143,1.143,0,0,0,.989,1.714Z" transform="translate(-205.058 -81.917)"/>
        <path id="Path_1171799" data-name="Path 1171799" d="M319.814,153a1.143,1.143,0,0,0-2.285,0v3.14a1.143,1.143,0,0,0,2.285,0Z" transform="translate(-269.155 -128.727)"/>
        <circle id="Ellipse_11933" data-name="Ellipse 11933" cx="1.143" cy="1.143" r="1.143" transform="translate(48.372 30.389)"/>
        <path id="Path_1171800" data-name="Path 1171800" d="M38.86,102.826l6.108,1.582A3.246,3.246,0,1,0,46.6,98.124l-6.108-1.582a3.246,3.246,0,1,0-1.627,6.284Zm-.116-3.383a.96.96,0,0,1,1.171-.689l6.108,1.582a.961.961,0,0,1-.482,1.86l-6.108-1.582a.962.962,0,0,1-.689-1.171Z" transform="translate(-30.877 -81.746)"/>
        <path id="Path_1171801" data-name="Path 1171801" d="M31.572,186.881l6.3-.386h0a3.246,3.246,0,0,0-.4-6.479l-6.3.386a3.246,3.246,0,1,0,.4,6.479ZM30.654,183a.955.955,0,0,1,.661-.322l6.3-.386a.961.961,0,0,1,.117,1.918l-6.3.386A.962.962,0,0,1,30.654,183Z" transform="translate(-23.842 -152.586)"/>
        <path id="Path_1171802" data-name="Path 1171802" d="M72.457,23.127l5.319,3.394a3.246,3.246,0,1,0,3.492-5.472l-5.319-3.394a3.246,3.246,0,0,0-3.492,5.472Zm.936-3.253a.962.962,0,0,1,1.327-.293l5.319,3.394a.961.961,0,1,1-1.034,1.62L73.686,21.2A.96.96,0,0,1,73.393,19.874Z" transform="translate(-60.146 -14.534)"/>
        <path id="Path_1171803" data-name="Path 1171803" d="M69.658,8.343A28.541,28.541,0,0,0,31.721,6.209a1.143,1.143,0,1,0,1.426,1.785A26.22,26.22,0,0,1,75.714,28.8,26.2,26.2,0,0,1,35.2,50.427a2.933,2.933,0,0,0-3.664.375l-5.811,5.811-4.333-4.333,5.81-5.81a2.933,2.933,0,0,0,.375-3.664,26.271,26.271,0,0,1,1.88-31.211,1.143,1.143,0,0,0-1.748-1.471,28.56,28.56,0,0,0-2.044,33.933.63.63,0,0,1-.078.8l-5.81,5.811-.567-.567a1.3,1.3,0,0,0-1.841,0L15.291,52.17a1.33,1.33,0,0,0-1.726.133L10.24,55.629a1.33,1.33,0,0,0-.133,1.726L.381,67.081A1.294,1.294,0,0,0,0,68v8.857A1.143,1.143,0,0,0,1.144,78H10a1.294,1.294,0,0,0,.921-.381l9.725-9.725a1.33,1.33,0,0,0,1.726-.133L25.7,64.435a1.33,1.33,0,0,0,.133-1.726L27.9,60.636a1.3,1.3,0,0,0,0-1.841l-.566-.566,5.811-5.811a.63.63,0,0,1,.8-.078,28.486,28.486,0,0,0,35.712-44ZM18.286,52.408l7.307,7.307-1.368,1.368-7.307-7.307Zm3.146,13.062-1.357-1.357a1.143,1.143,0,1,0-1.616,1.616l.561.561L9.593,75.715H2.286V68.408l9.426-9.426,2.973,2.973A1.143,1.143,0,0,0,16.3,60.338l-3.769-3.769,1.975-1.975,8.9,8.9Z"/>
      </g>
    </g>
  </g>
</svg>
