<svg xmlns="http://www.w3.org/2000/svg" xmlns:xlink="http://www.w3.org/1999/xlink" width="93.934" height="93.934" viewBox="0 0 93.934 93.934">
  <defs>
    <filter id="Path_978624" x="0" y="0" width="93.934" height="93.934" filterUnits="userSpaceOnUse">
      <feOffset dy="3" input="SourceAlpha"/>
      <feGaussianBlur stdDeviation="3" result="blur"/>
      <feFlood flood-opacity="0.161"/>
      <feComposite operator="in" in2="blur"/>
      <feComposite in="SourceGraphic"/>
    </filter>
  </defs>
  <g id="Group_1222553" data-name="Group 1222553" transform="translate(-189 -1426.299)">
    <g id="Group_1222099" data-name="Group 1222099">
      <g id="Group_1221055" data-name="Group 1221055" transform="translate(0 -4373.076)">
        <g id="Group_1208655" data-name="Group 1208655" transform="translate(-420 3898.655)">
          <g id="Group_1208068" data-name="Group 1208068" transform="translate(412 470.719)">
            <g id="Group_1144123" data-name="Group 1144123" transform="translate(206 1436)">
              <g transform="matrix(1, 0, 0, 1, -9, -6)" filter="url(#Path_978624)">
                <g id="Path_978624-2" data-name="Path 978624" transform="translate(9 6)" fill="#f7fbfc">
                  <path d="M 37.966796875 74.43359375 C 33.04315185546875 74.43359375 28.26757431030273 73.46962738037109 23.77274131774902 71.56847381591797 C 19.43047523498535 69.73184967041016 15.53040790557861 67.10224914550781 12.18087482452393 63.75271987915039 C 8.831341743469238 60.4031867980957 6.201741218566895 56.50312042236328 4.365118980407715 52.16086196899414 C 2.463963508605957 47.66601943969727 1.499996900558472 42.89044189453125 1.499996900558472 37.966796875 C 1.499996900558472 33.04315185546875 2.463963508605957 28.26757431030273 4.365118980407715 23.77274131774902 C 6.201741218566895 19.43047523498535 8.831341743469238 15.53040790557861 12.18087482452393 12.18087482452393 C 15.53040790557861 8.831341743469238 19.43047523498535 6.201741218566895 23.77274131774902 4.365118980407715 C 28.26757431030273 2.463963508605957 33.04315185546875 1.499996900558472 37.966796875 1.499996900558472 C 42.89044189453125 1.499996900558472 47.66601943969727 2.463963508605957 52.16086196899414 4.365118980407715 C 56.50312042236328 6.201741218566895 60.4031867980957 8.831341743469238 63.75271987915039 12.18087482452393 C 67.10224914550781 15.53040790557861 69.73184967041016 19.43047523498535 71.56847381591797 23.77274131774902 C 73.46962738037109 28.26757431030273 74.43359375 33.04315185546875 74.43359375 37.966796875 C 74.43359375 42.89044189453125 73.46962738037109 47.66601943969727 71.56847381591797 52.16086196899414 C 69.73184967041016 56.50313186645508 67.10224914550781 60.4031867980957 63.75271987915039 63.75271987915039 C 60.4031867980957 67.10224914550781 56.50313186645508 69.73184967041016 52.16086196899414 71.56847381591797 C 47.66601943969727 73.46962738037109 42.89044189453125 74.43359375 37.966796875 74.43359375 Z" stroke="none"/>
                  <path d="M 37.966796875 3 C 33.2449836730957 3 28.66600799560547 3.924095153808594 24.35705947875977 5.746635437011719 C 20.19359588623047 7.507621765136719 16.45379638671875 10.02927398681641 13.24153518676758 13.24153518676758 C 10.02927398681641 16.45379638671875 7.507621765136719 20.19359588623047 5.746635437011719 24.35705947875977 C 3.924095153808594 28.66600799560547 3 33.2449836730957 3 37.966796875 C 3 42.6886100769043 3.924095153808594 47.26758575439453 5.746635437011719 51.57653427124023 C 7.507621765136719 55.73999786376953 10.02927398681641 59.47979736328125 13.24153518676758 62.69205856323242 C 16.45379638671875 65.90431976318359 20.19359588623047 68.42597198486328 24.35705947875977 70.18695831298828 C 28.66600799560547 72.00949859619141 33.2449836730957 72.93359375 37.966796875 72.93359375 C 42.6886100769043 72.93359375 47.26758575439453 72.00949859619141 51.57653427124023 70.18695831298828 C 55.73999786376953 68.42597198486328 59.47979736328125 65.90431976318359 62.69205856323242 62.69205856323242 C 65.90431976318359 59.47979736328125 68.42597198486328 55.73999786376953 70.18695831298828 51.57653427124023 C 72.00949859619141 47.26758575439453 72.93359375 42.6886100769043 72.93359375 37.966796875 C 72.93359375 33.2449836730957 72.00949859619141 28.66600799560547 70.18695831298828 24.35705947875977 C 68.42597198486328 20.19359588623047 65.90431976318359 16.45379638671875 62.69205856323242 13.24153518676758 C 59.47979736328125 10.02927398681641 55.73999786376953 7.507621765136719 51.57653427124023 5.746635437011719 C 47.26758575439453 3.924095153808594 42.6886100769043 3 37.966796875 3 M 37.966796875 0 C 58.93528366088867 0 75.93359375 16.99831008911133 75.93359375 37.966796875 C 75.93359375 58.93528366088867 58.93528366088867 75.93359375 37.966796875 75.93359375 C 16.99831008911133 75.93359375 0 58.93528366088867 0 37.966796875 C 0 16.99831008911133 16.99831008911133 0 37.966796875 0 Z" stroke="none" fill="#62797e"/>
                </g>
              </g>
            </g>
          </g>
        </g>
      </g>
      <g id="Layer_12" data-name="Layer 12" transform="translate(199.795 1443.887)">
        <rect id="Rectangle_420113" data-name="Rectangle 420113" width="54.708" height="42.985" rx="21.492" transform="translate(8.977 12.887)" fill="#686868"/>
        <path id="Path_1171926" data-name="Path 1171926" d="M67.034,48H19.779a3.626,3.626,0,0,0-3.617,3.453A40.886,40.886,0,0,0,57.038,91.621h10a3.635,3.635,0,0,0,3.635-3.635V51.635A3.635,3.635,0,0,0,67.034,48Z" transform="translate(-7.235 -35.454)" fill="#939393"/>
        <rect id="Rectangle_420114" data-name="Rectangle 420114" width="46.893" height="33.216" rx="16" transform="translate(12.885 15.818)" fill="#5ed3f2"/>
        <path id="Path_1171927" data-name="Path 1171927" d="M95.256,81.818A1.818,1.818,0,0,0,93.438,80H49.818A1.818,1.818,0,0,0,48,81.818V95.925a41.035,41.035,0,0,0,14,16.791H93.438a1.818,1.818,0,0,0,1.818-1.818Z" transform="translate(-35.456 -63.819)" fill="#95ebfc"/>
        <path id="Path_1171928" data-name="Path 1171928" d="M265.994,16a9.987,9.987,0,0,0-6.825,17.286l-1.354,2.707,3.647-1.094A9.993,9.993,0,1,0,265.994,16Z" transform="translate(-219.826 -7.089)" fill="#b52f28"/>
        <path id="Path_1171929" data-name="Path 1171929" d="M290,33.263a9.949,9.949,0,0,0,5.573-1.7A10,10,0,0,0,281.7,17.694,10,10,0,0,0,290,33.263Z" transform="translate(-241.102 -7.086)" fill="#d23f34"/>
        <path id="Path_1171930" data-name="Path 1171930" d="M96,131.571V119a7,7,0,0,1,7-7h2.36a7,7,0,0,1,7,7v12.572" transform="translate(-78.004 -92.184)" fill="#474747"/>
        <path id="Path_1171931" data-name="Path 1171931" d="M99.993,251.557v-7.27a3.635,3.635,0,0,0-3.635-3.635H94.873a3.059,3.059,0,0,1-3.059-3.059v-.959H88.179v.909a3.109,3.109,0,0,1-3.109,3.109H83.635A3.635,3.635,0,0,0,80,244.286v7.27Z" transform="translate(-63.821 -202.66)" fill="#2862be"/>
        <path id="Path_1171932" data-name="Path 1171932" d="M101.841,240.651h-1.485a3.059,3.059,0,0,1-3.059-3.059v-.959H93.662v.909a3.109,3.109,0,0,1-3.109,3.109H89.118a3.621,3.621,0,0,0-2.932,1.5,41.108,41.108,0,0,0,9.664,9.4h9.626v-7.27A3.635,3.635,0,0,0,101.841,240.651Z" transform="translate(-69.304 -202.66)" fill="#3279ea"/>
        <path id="Path_1171933" data-name="Path 1171933" d="M175.449,432l6.361,7.27H160l6.361-7.27" transform="translate(-134.734 -375.834)" fill="#474747"/>
        <path id="Path_1171934" data-name="Path 1171934" d="M248,392h1.818v1.818H248Z" transform="translate(-212.737 -340.378)" fill="#2a2a2a"/>
        <path id="Path_1171935" data-name="Path 1171935" d="M136.955,247.728a3.059,3.059,0,0,1-2.74-3.042,4.394,4.394,0,0,1-1.681.332h-.114a4.581,4.581,0,0,1-1.84-.382,3.109,3.109,0,0,1-2.745,3.088l.019.021a6.205,6.205,0,0,0,4.388,1.818h.312a6.205,6.205,0,0,0,4.388-1.818Z" transform="translate(-106.221 -209.753)" fill="#f2b9a1"/>
        <path id="Path_1171936" data-name="Path 1171936" d="M137.088,153.818v4.68a4.407,4.407,0,0,1-4.408,4.407h-.114A4.549,4.549,0,0,1,128,158.361v-4.544L130.726,152a10.821,10.821,0,0,0,6,1.818Z" transform="translate(-106.369 -127.64)" fill="#fbe1ca"/>
        <path id="Path_1171937" data-name="Path 1171937" d="M104,312h1.818v6.361H104Z" transform="translate(-85.095 -269.466)" fill="#2458ad"/>
        <path id="Path_1171938" data-name="Path 1171938" d="M216,312h1.818v6.361H216Z" transform="translate(-184.372 -269.466)" fill="#2458ad"/>
        <path id="Path_1171939" data-name="Path 1171939" d="M160,312h1.818v1.818H160Z" transform="translate(-134.734 -269.466)" fill="#f2f2f2"/>
        <path id="Path_1171940" data-name="Path 1171940" d="M313.088,66.727h-2.726V64h-3.635v2.726H304v3.635h2.726v2.726h3.635V70.362h2.726Z" transform="translate(-262.376 -49.637)" fill="#f2f2f2"/>
        <g id="Group_1222098" data-name="Group 1222098" transform="translate(38.898 34.356)">
          <path id="Path_1171941" data-name="Path 1171941" d="M280,240h18.175v1.818H280Z" transform="translate(-280 -240.001)" fill="#474747"/>
          <path id="Path_1171942" data-name="Path 1171942" d="M280,272h18.175v1.818H280Z" transform="translate(-280 -268.366)" fill="#474747"/>
          <path id="Path_1171943" data-name="Path 1171943" d="M280,304h18.175v1.818H280Z" transform="translate(-280 -296.731)" fill="#474747"/>
        </g>
        <path id="Path_1171944" data-name="Path 1171944" d="M59.8,11.637H54.273a10.854,10.854,0,0,0-16.21,0H12.544A4.549,4.549,0,0,0,8,16.181V52.532a4.549,4.549,0,0,0,4.544,4.544H29.625l-5.042,5.763a.909.909,0,0,0,.684,1.507h21.81a.909.909,0,0,0,.684-1.507l-5.042-5.763H59.8a4.549,4.549,0,0,0,4.544-4.544V16.181A4.549,4.549,0,0,0,59.8,11.637ZM46.168,9.82a9.088,9.088,0,0,1,0,18.175A8.986,8.986,0,0,1,42.049,27a.9.9,0,0,0-.413-.1.916.916,0,0,0-.261.038l-1.633.49.413-.825a.909.909,0,0,0-.192-1.07,9,9,0,0,1-2.883-6.626A9.1,9.1,0,0,1,46.168,9.82Zm10.741,7.27h1.073a.91.91,0,0,1,.909.909v29.08a.91.91,0,0,1-.909.909H37.08V41.626a4.524,4.524,0,0,0-1.818-3.612v-11.2a7.908,7.908,0,0,0-7.908-7.908h-2.36a7.907,7.907,0,0,0-7.907,7.908v11.2a4.524,4.524,0,0,0-1.818,3.612v6.361h-.909a.91.91,0,0,1-.909-.909V18a.91.91,0,0,1,.909-.909H35.427a10.893,10.893,0,0,0-.164,1.818,10.778,10.778,0,0,0,2.973,7.47l-1.06,2.12a.909.909,0,0,0,1.074,1.277l3.307-.992A10.864,10.864,0,0,0,56.909,17.09ZM31.628,42.535v5.453H20.723V42.535H18.905v5.453H17.088V41.626A2.729,2.729,0,0,1,19.814,38.9h1.435c.01,0,.02,0,.03,0a7.054,7.054,0,0,0,4.74,1.82h.312A7.054,7.054,0,0,0,31.068,38.9h1.468a2.729,2.729,0,0,1,2.726,2.726v6.361H33.445V42.535Zm1.818-5.361a4.547,4.547,0,0,0-.909-.092H31.052a2.149,2.149,0,0,1-2.079-1.63,5.315,5.315,0,0,0,2.655-4.6v-4.68a.909.909,0,0,0-.909-.909h-.359a9.879,9.879,0,0,1-5.5-1.665.91.91,0,0,0-1.008,0l-2.726,1.818a.909.909,0,0,0-.4.756v4.544a5.445,5.445,0,0,0,2.661,4.669,2.2,2.2,0,0,1-2.136,1.693H19.814a4.545,4.545,0,0,0-.908.092V26.815a6.091,6.091,0,0,1,6.09-6.09h2.361a6.09,6.09,0,0,1,6.09,6.09Zm-7.134-2.818H26.2a3.65,3.65,0,0,1-3.658-3.635V26.664l1.832-1.221a11.678,11.678,0,0,0,5.438,1.631v3.784A3.5,3.5,0,0,1,26.312,34.356Zm-1.241,1.7a5.494,5.494,0,0,0,1.127.117h.114a5.308,5.308,0,0,0,.962-.092,3.968,3.968,0,0,0,1.606,2.164,5.266,5.266,0,0,1-2.548.654h-.312a5.263,5.263,0,0,1-2.567-.665,4.019,4.019,0,0,0,1.619-2.179Zm20,26.471H27.27l4.771-5.453H40.3Zm17.452-10A2.729,2.729,0,0,1,59.8,55.258H12.544a2.729,2.729,0,0,1-2.726-2.726V16.181a2.729,2.729,0,0,1,2.726-2.726H36.738a10.85,10.85,0,0,0-.839,1.818H14.361A2.729,2.729,0,0,0,11.635,18v29.08a2.729,2.729,0,0,0,2.726,2.726H57.982a2.729,2.729,0,0,0,2.726-2.726V18a2.729,2.729,0,0,0-2.726-2.726H56.437a10.85,10.85,0,0,0-.839-1.818h4.2a2.729,2.729,0,0,1,2.726,2.726Z"/>
        <path id="Path_1171945" data-name="Path 1171945" d="M248,392h1.818v1.818H248Z" transform="translate(-212.737 -340.378)"/>
        <path id="Path_1171946" data-name="Path 1171946" d="M160,312h1.818v1.818H160Z" transform="translate(-134.734 -269.466)"/>
        <path id="Path_1171947" data-name="Path 1171947" d="M296.909,64.179h1.818V66a.909.909,0,0,0,.909.909h3.635a.909.909,0,0,0,.909-.909V64.179H306a.909.909,0,0,0,.909-.909V59.635a.909.909,0,0,0-.909-.909h-1.818V56.909A.909.909,0,0,0,303.27,56h-3.635a.909.909,0,0,0-.909.909v1.818h-1.818a.909.909,0,0,0-.909.909V63.27A.909.909,0,0,0,296.909,64.179Zm.909-3.635h1.818a.909.909,0,0,0,.909-.909V57.818h1.818v1.818a.909.909,0,0,0,.909.909h1.818v1.818H303.27a.909.909,0,0,0-.909.909v1.818h-1.818V63.27a.909.909,0,0,0-.909-.909h-1.818Z" transform="translate(-255.285 -42.545)"/>
        <path id="Path_1171948" data-name="Path 1171948" d="M280,240h18.175v1.818H280Z" transform="translate(-241.102 -205.645)"/>
        <path id="Path_1171949" data-name="Path 1171949" d="M280,272h18.175v1.818H280Z" transform="translate(-241.102 -234.01)"/>
        <path id="Path_1171950" data-name="Path 1171950" d="M280,304h18.175v1.818H280Z" transform="translate(-241.102 -262.374)"/>
      </g>
    </g>
  </g>
</svg>
