<svg xmlns="http://www.w3.org/2000/svg" width="95.072" height="106" viewBox="0 0 95.072 106">
  <g id="Group_1222521" data-name="Group 1222521" transform="translate(-168.928 -1168)">
    <g id="Group_1221725" data-name="Group 1221725">
      <rect id="Rectangle_420058" data-name="Rectangle 420058" width="66" height="106" transform="translate(198 1168)" fill="#cbc9f9"/>
      <g id="estres" transform="translate(168.926 1176.384)">
        <g id="Group_1210193" data-name="Group 1210193" transform="translate(1.392 5.979)">
          <g id="Group_1210170" data-name="Group 1210170" transform="translate(10.403 0)">
            <g id="Group_1210169" data-name="Group 1210169">
              <path id="Path_1079854" data-name="Path 1079854" d="M134.887,45.658a4.065,4.065,0,0,0-1.268-2.955,1.3,1.3,0,0,1-.142-1.743,4.077,4.077,0,0,0-.884-5.891,1.316,1.316,0,0,1-.483-1.475,4.079,4.079,0,0,0-3.9-5.256c-.05,0-.013-1.113-.137-1.712a4.091,4.091,0,0,0-3.546-3.224,4.206,4.206,0,0,0-.661-.018,1.57,1.57,0,0,1-1.618-1.609v-.027a5.262,5.262,0,0,0-5.262-5.262c-.032,0-1.031-3.5-3.976-3.065a7.832,7.832,0,0,0-1.2.185,2.675,2.675,0,0,1-2.533-.514,3.988,3.988,0,0,0-4.7-.356,3.07,3.07,0,0,1-2.456.384,4.005,4.005,0,0,0-2.4.067,2.98,2.98,0,0,1-2.648-.4,3.987,3.987,0,0,0-4.617.089,2.91,2.91,0,0,1-2.892.368,4.539,4.539,0,0,0-5.645,1.778,3.025,3.025,0,0,1-2.443,1.47l-.155.008a5.294,5.294,0,0,0-4.916,5.04q-.005.133,0,.265a1.583,1.583,0,0,1-1.654,1.58,4.213,4.213,0,0,0-.624.019,4.091,4.091,0,0,0-3.548,3.223c-.124.6-.087,1.714-.137,1.714a4.079,4.079,0,0,0-3.9,5.256,1.316,1.316,0,0,1-.483,1.476,4.077,4.077,0,0,0-.884,5.891,1.3,1.3,0,0,1-.142,1.743,4.076,4.076,0,0,0,1.018,6.617,1.337,1.337,0,0,1,.614,1.716A4.077,4.077,0,0,0,71.4,56.528c0,.065,0,.13,0,.2a4.077,4.077,0,0,0,6.656,3.157,4.078,4.078,0,0,0,3.814,2.635h34.913a4.078,4.078,0,0,0,3.814-2.635,4.076,4.076,0,0,0,6.656-3.157c0-.065,0-.131,0-.2a4.077,4.077,0,0,0,4.746-5.491,1.338,1.338,0,0,1,.614-1.717,4.073,4.073,0,0,0,2.287-3.662Z" transform="translate(-63.751 -12.092)" fill="#d77f4a"/>
            </g>
          </g>
          <g id="Group_1210172" data-name="Group 1210172" transform="translate(11.23 61.658)">
            <g id="Group_1210171" data-name="Group 1210171">
              <path id="Path_1079855" data-name="Path 1079855" d="M131.72,350.376c-11.953.5-17.621-2.7-17.621-2.7l-11.122-2.2V345.4l-.2.04-.2-.04v.079l-11.122,2.2s-5.668,3.2-17.621,2.7l-5.61,23.61H137.4Z" transform="translate(-68.223 -345.395)" fill="#ffd15b"/>
            </g>
          </g>
          <g id="Group_1210174" data-name="Group 1210174" transform="translate(34.462 51.688)">
            <g id="Group_1210173" data-name="Group 1210173">
              <path id="Path_1079856" data-name="Path 1079856" d="M211.924,291.5H198.33a18.842,18.842,0,0,1-4.525,12.25l.356.41a10.723,10.723,0,0,0,3.3,2.566,17.251,17.251,0,0,0,15.226.081,10.748,10.748,0,0,0,3.765-3.057A18.843,18.843,0,0,1,211.924,291.5Z" transform="translate(-193.805 -291.5)" fill="#ffcebf"/>
            </g>
          </g>
          <g id="Group_1210176" data-name="Group 1210176" transform="translate(24.049 24.102)">
            <g id="Group_1210175" data-name="Group 1210175">
              <path id="Path_1079857" data-name="Path 1079857" d="M137.515,142.381a33.212,33.212,0,0,0,1.954,7.777h39.936a39.351,39.351,0,0,0,3.567-6.947" transform="translate(-137.515 -142.381)" fill="#d77f4a"/>
            </g>
          </g>
          <g id="Group_1210178" data-name="Group 1210178" transform="translate(25.913 9.213)">
            <g id="Group_1210177" data-name="Group 1210177">
              <ellipse id="Ellipse_11859" data-name="Ellipse 11859" cx="20.058" cy="25.042" rx="20.058" ry="25.042" fill="#ffcebf"/>
            </g>
          </g>
          <g id="Group_1210180" data-name="Group 1210180" transform="translate(31.678 12.989)">
            <g id="Group_1210179" data-name="Group 1210179">
              <path id="Path_1079858" data-name="Path 1079858" d="M203.642,82.3a28.432,28.432,0,0,1,5.765,17.567c0,13.831-8.98,25.042-20.058,25.042a17.157,17.157,0,0,1-10.593-3.776c3.638,4.614,8.7,7.475,14.293,7.475,11.078,0,20.058-11.212,20.058-25.042C213.106,94.6,209.324,86.726,203.642,82.3Z" transform="translate(-178.755 -82.305)" fill="#fba"/>
            </g>
          </g>
          <g id="Group_1210182" data-name="Group 1210182" transform="translate(26.003 8.154)">
            <g id="Group_1210181" data-name="Group 1210181">
              <path id="Path_1079859" data-name="Path 1079859" d="M168.048,56.167c-10.436,0-19.968,10.759-19.968,23.726s5.776-11.257,9.932-8.288a15.264,15.264,0,0,0,10.036,2.945A15.264,15.264,0,0,0,178.084,71.6c4.156-2.968,9.931,8.288,9.931,8.288C188.106,66.926,178.484,56.167,168.048,56.167Z" transform="translate(-148.08 -56.167)" fill="#d77f4a"/>
            </g>
          </g>
          <g id="Group_1210184" data-name="Group 1210184" transform="translate(0 39.794)">
            <g id="Group_1210183" data-name="Group 1210183">
              <path id="Path_1079860" data-name="Path 1079860" d="M37.548,231.092l-5.013-1.944L27.522,227.2s-15.09,24.046-18.411,32.611-1.342,14.618,4.924,17.047,11.808-.708,15.129-9.272S37.548,231.092,37.548,231.092Z" transform="translate(-7.517 -227.205)" fill="#ffe177"/>
            </g>
          </g>
          <g id="Group_1210186" data-name="Group 1210186" transform="translate(21.353 18.208)">
            <g id="Group_1210185" data-name="Group 1210185">
              <path id="Path_1079861" data-name="Path 1079861" d="M123.269,132.754l-.313-6.23a9.887,9.887,0,0,1,3.332-7.908l8.544-7.54a2.223,2.223,0,0,1,3.694,1.667v.773a3.135,3.135,0,0,1-.663,1.928l-3.908,5.528a17.164,17.164,0,0,0-3.148,9.908v4.8Z" transform="translate(-122.944 -110.519)" fill="#ffcebf"/>
            </g>
          </g>
          <g id="Group_1210188" data-name="Group 1210188" transform="translate(61.911 39.794)">
            <g id="Group_1210187" data-name="Group 1210187">
              <path id="Path_1079862" data-name="Path 1079862" d="M342.184,231.092l5.013-1.944,5.013-1.944s15.09,24.046,18.411,32.611,1.343,14.618-4.924,17.047-11.808-.708-15.129-9.272S342.184,231.092,342.184,231.092Z" transform="translate(-342.184 -227.205)" fill="#ffe177"/>
            </g>
          </g>
          <g id="Group_1210190" data-name="Group 1210190" transform="translate(67.466 39.794)">
            <g id="Group_1210189" data-name="Group 1210189">
              <path id="Path_1079863" data-name="Path 1079863" d="M395.1,259.816c-3.321-8.564-18.411-32.611-18.411-32.611l-4.471,1.733c3.51,5.665,14.55,23.7,17.332,30.877,3.321,8.564,1.342,14.618-4.924,17.047q-.575.223-1.142.383a9.918,9.918,0,0,0,6.692-.383C396.44,274.433,398.418,268.38,395.1,259.816Z" transform="translate(-372.216 -227.205)" fill="#ffd15b"/>
            </g>
          </g>
          <g id="Group_1210192" data-name="Group 1210192" transform="translate(55.006 18.208)">
            <g id="Group_1210191" data-name="Group 1210191">
              <path id="Path_1079864" data-name="Path 1079864" d="M320.118,132.754l.313-6.23a9.887,9.887,0,0,0-3.332-7.908l-8.544-7.54a2.223,2.223,0,0,0-3.694,1.667v.773a3.135,3.135,0,0,0,.663,1.928l3.908,5.528a17.165,17.165,0,0,1,3.148,9.908v4.8Z" transform="translate(-304.861 -110.519)" fill="#ffcebf"/>
            </g>
          </g>
        </g>
        <g id="Group_1210194" data-name="Group 1210194" transform="translate(0.002 4.592)">
          <path id="Path_1079865" data-name="Path 1079865" d="M30.5,218.1v-.83a1.387,1.387,0,1,0-2.775,0v.83a1.387,1.387,0,1,0,2.775,0Z" transform="translate(-22.595 -176.794)"/>
          <path id="Path_1079866" data-name="Path 1079866" d="M27.723,251.414a1.387,1.387,0,1,0,2.775,0v-.83a1.387,1.387,0,0,0-2.775,0Z" transform="translate(-22.595 -203.946)"/>
          <path id="Path_1079867" data-name="Path 1079867" d="M42.52,237.558h.83a1.387,1.387,0,0,0,0-2.775h-.83a1.387,1.387,0,0,0,0,2.775Z" transform="translate(-33.524 -192.199)"/>
          <path id="Path_1079868" data-name="Path 1079868" d="M11.211,237.558h.83a1.387,1.387,0,0,0,0-2.775h-.83a1.387,1.387,0,0,0,0,2.775Z" transform="translate(-8.007 -192.199)"/>
          <path id="Path_1079869" data-name="Path 1079869" d="M26.435,15.608a2.494,2.494,0,0,0,4.124.971l1.2-1.193L33.271,19.6a1.388,1.388,0,0,0,2.611-.939l-1.665-4.628a2.494,2.494,0,0,0-4.107-.922l-1.189,1.186L27.6,10.366a1.387,1.387,0,0,0-2.63.885Z" transform="translate(-20.291 -8.527)"/>
          <path id="Path_1079870" data-name="Path 1079870" d="M467.7,229.486a1.387,1.387,0,0,0,1.387-1.387v-.83a1.387,1.387,0,1,0-2.775,0v.83A1.387,1.387,0,0,0,467.7,229.486Z" transform="translate(-380.05 -184.944)"/>
          <path id="Path_1079871" data-name="Path 1079871" d="M467.7,262.8a1.387,1.387,0,0,0,1.387-1.387v-.83a1.387,1.387,0,1,0-2.775,0v.83A1.387,1.387,0,0,0,467.7,262.8Z" transform="translate(-380.05 -212.096)"/>
          <path id="Path_1079872" data-name="Path 1079872" d="M450.633,244.783h-.83a1.387,1.387,0,1,0,0,2.775h.83a1.387,1.387,0,1,0,0-2.775Z" transform="translate(-365.462 -200.35)"/>
          <path id="Path_1079873" data-name="Path 1079873" d="M479.725,246.17a1.387,1.387,0,0,0,1.387,1.387h.83a1.387,1.387,0,0,0,0-2.775h-.83a1.387,1.387,0,0,0-1.387,1.387Z" transform="translate(-390.98 -200.35)"/>
          <path id="Path_1079874" data-name="Path 1079874" d="M432.227,20.435A1.386,1.386,0,0,0,434,19.6l1.515-4.212,1.2,1.193a2.494,2.494,0,0,0,4.124-.971l1.466-4.357a1.387,1.387,0,1,0-2.63-.885L438.352,14.3l-1.19-1.186a2.494,2.494,0,0,0-4.107.922l-1.665,4.628A1.387,1.387,0,0,0,432.227,20.435Z" transform="translate(-351.52 -8.529)"/>
          <path id="Path_1079875" data-name="Path 1079875" d="M93.034,77.883c-1.222-3.153-4.1-8.636-8.544-16.3a1.387,1.387,0,0,0-2.4,1.393c4.375,7.538,7.186,12.89,8.356,15.908,1.5,3.872,1.881,7.3,1.1,9.925a9.057,9.057,0,0,1-12.683,4.917c-2.346-1.408-4.379-4.2-5.88-8.071-2.86-7.376-7.121-29.822-8.105-35.118l7.884-3.057c1.079,1.734,3.472,5.608,6.162,10.117a1.387,1.387,0,1,0,2.383-1.422c-1.01-1.692-1.977-3.293-2.85-4.728a5.461,5.461,0,0,0,2.87-7.03,5.428,5.428,0,0,0,2.993-4.873,5.489,5.489,0,0,0-1.65-3.913A5.464,5.464,0,0,0,81.49,27.86,5.467,5.467,0,0,0,77.57,21a6.008,6.008,0,0,0-.1-.766,5.5,5.5,0,0,0-4.758-4.323,5.585,5.585,0,0,0-.881-.024.108.108,0,0,1-.087-.036.239.239,0,0,1-.072-.174v-.041A6.66,6.66,0,0,0,65.97,9.053c-1.107-2.279-2.979-3.433-5.123-3.117-.114.017-.227.028-.34.04a5.2,5.2,0,0,0-1.078.194,1.283,1.283,0,0,1-1.212-.245,5.375,5.375,0,0,0-6.333-.479,1.684,1.684,0,0,1-1.341.227,5.414,5.414,0,0,0-3.239.09,1.6,1.6,0,0,1-1.41-.238,5.375,5.375,0,0,0-6.226.12,1.521,1.521,0,0,1-1.517.208,5.926,5.926,0,0,0-7.373,2.321,1.646,1.646,0,0,1-1.313.815l-.2.01a6.716,6.716,0,0,0-6.212,6.369q-.007.168,0,.334a.164.164,0,0,1-.055.121.207.207,0,0,1-.151.059,5.459,5.459,0,0,0-5.591,4.347,5.984,5.984,0,0,0-.1.768,5.47,5.47,0,0,0-3.921,6.861,5.464,5.464,0,0,0-1.178,7.772,5.489,5.489,0,0,0-1.65,3.913,5.428,5.428,0,0,0,3,4.874,5.433,5.433,0,0,0-.369,2.542,5.492,5.492,0,0,0,3.237,4.487c-.873,1.435-1.84,3.037-2.85,4.729A1.387,1.387,0,0,0,15.8,57.6c2.691-4.509,5.084-8.382,6.163-10.117l7.884,3.057c-.984,5.3-5.246,27.742-8.105,35.118-1.5,3.872-3.534,6.663-5.88,8.071a8.14,8.14,0,0,1-7.454.409,8.139,8.139,0,0,1-5.229-5.327c-.783-2.622-.4-6.054,1.1-9.925,1.17-3.018,3.982-8.371,8.356-15.908a1.387,1.387,0,0,0-2.4-1.393c-4.447,7.662-7.321,13.145-8.544,16.3C-.059,82.4-.452,86.343.523,89.606a10.921,10.921,0,0,0,6.885,7.119,12.408,12.408,0,0,0,4.493.887l51.013,0a1.387,1.387,0,1,0,0-2.775H19.025a20.386,20.386,0,0,0,5.307-8.18,112.058,112.058,0,0,0,3.627-13.1A31.2,31.2,0,0,0,35.5,71.612a12,12,0,0,0,3.383,2.524,18.737,18.737,0,0,0,16.452.088,12.143,12.143,0,0,0,3.521-2.607,31.667,31.667,0,0,0,7.919,2,111.672,111.672,0,0,0,3.615,13.043,20.386,20.386,0,0,0,5.307,8.18H69.2a1.387,1.387,0,1,0,0,2.775l13.62,0a12.416,12.416,0,0,0,4.493-.887A10.921,10.921,0,0,0,94.2,89.606C95.178,86.342,94.784,82.4,93.034,77.883ZM47.363,63.89c-6.1,0-11.79-3.769-15.3-10.107.416-2.19.678-3.629.722-3.874A1.387,1.387,0,0,0,32,48.4v-3.85a15.7,15.7,0,0,1,2.894-9.107l2.8-3.963A16.713,16.713,0,0,0,47.363,33.9a16.713,16.713,0,0,0,9.672-2.425l2.8,3.963a15.7,15.7,0,0,1,2.894,9.107V48.4a1.387,1.387,0,0,0-.793,1.51c.045.246.306,1.685.722,3.874-3.505,6.333-9.207,10.107-15.3,10.107ZM36.94,27.184a1.754,1.754,0,0,1-.37,1.075l-.039.053-.232.328a1.373,1.373,0,0,0-.1.125,1.412,1.412,0,0,0-.09.147l-3.484,4.928a18.455,18.455,0,0,0-3.4,10.709v2.771l-4.81-1.865-.267-5.331a8.455,8.455,0,0,1,2.865-6.8l8.544-7.54a.835.835,0,0,1,1.388.627v.773ZM70.582,40.123l-.268,5.331-4.81,1.865V44.548a18.456,18.456,0,0,0-3.4-10.709l-3.484-4.928a1.426,1.426,0,0,0-.09-.147,1.378,1.378,0,0,0-.1-.125l-.232-.328c-.013-.018-.026-.035-.039-.053a1.756,1.756,0,0,1-.37-1.075v-.773a.835.835,0,0,1,1.388-.626l8.544,7.54a8.457,8.457,0,0,1,2.864,6.8ZM20.221,45.036c-.017.028-.99,1.579-2.48,4.005a2.688,2.688,0,0,1-1.76-3.6,2.732,2.732,0,0,0-1.29-3.484A2.689,2.689,0,0,1,14.02,37.6a2.7,2.7,0,0,0,.272-3.611,2.659,2.659,0,0,1-.581-1.67A2.692,2.692,0,0,1,14.876,30.1,2.7,2.7,0,0,0,15.9,27.08a2.691,2.691,0,0,1,2.575-3.467,1.419,1.419,0,0,0,1.406-1.424c.006-.09.01-.217.015-.366a8.109,8.109,0,0,1,.074-1.029,2.7,2.7,0,0,1,2.335-2.124,2.82,2.82,0,0,1,.418-.013,2.993,2.993,0,0,0,2.2-.837,2.955,2.955,0,0,0,.9-2.144c0-.065,0-.13,0-.2a3.913,3.913,0,0,1,3.621-3.71l.113-.006A4.414,4.414,0,0,0,33.135,9.64,3.151,3.151,0,0,1,37.053,8.4a4.324,4.324,0,0,0,4.267-.528,2.6,2.6,0,0,1,3.008-.058,4.383,4.383,0,0,0,3.886.568,2.627,2.627,0,0,1,1.567-.043A4.461,4.461,0,0,0,53.352,7.8a2.6,2.6,0,0,1,3.06.232,4.077,4.077,0,0,0,3.853.783,3.121,3.121,0,0,1,.526-.08c.152-.016.306-.032.461-.055,1.294-.191,2.041,1.034,2.44,2.1a1.388,1.388,0,0,0,1.333.983A3.879,3.879,0,0,1,68.9,15.637v.02a3.033,3.033,0,0,0,.931,2.2,2.864,2.864,0,0,0,2.147.8,2.819,2.819,0,0,1,.443.012A2.7,2.7,0,0,1,74.756,20.8a8.086,8.086,0,0,1,.074,1.028c0,.149.009.276.015.366a1.419,1.419,0,0,0,1.406,1.424,2.691,2.691,0,0,1,2.575,3.466A2.7,2.7,0,0,0,79.85,30.1a2.692,2.692,0,0,1,1.166,2.216,2.659,2.659,0,0,1-.581,1.67,2.7,2.7,0,0,0,.272,3.611,2.689,2.689,0,0,1-.673,4.365,2.733,2.733,0,0,0-1.289,3.484,2.688,2.688,0,0,1-1.761,3.595c-1.49-2.427-2.462-3.978-2.48-4.005a1.386,1.386,0,0,0-1.358-.637l.208-4.137a11.216,11.216,0,0,0-3.8-9.018L61.01,23.7a3.61,3.61,0,0,0-6,2.707v.773a4.539,4.539,0,0,0,.468,1.993,13.96,13.96,0,0,1-8.116,1.951,13.959,13.959,0,0,1-8.116-1.951,4.539,4.539,0,0,0,.468-1.994V26.41a3.61,3.61,0,0,0-6-2.707l-8.544,7.54a11.216,11.216,0,0,0-3.8,9.018l.208,4.137A1.387,1.387,0,0,0,20.221,45.036ZM31.3,57.758a22.548,22.548,0,0,0,6.529,6.166,17.373,17.373,0,0,1-2.862,4.889,25,25,0,0,1-6.346,1.838c1.009-4.544,1.948-9.165,2.679-12.893ZM54.126,71.727a15.944,15.944,0,0,1-14-.075,9.213,9.213,0,0,1-2.452-1.785A20.125,20.125,0,0,0,40.31,65.2a17.727,17.727,0,0,0,13.787.129,20.114,20.114,0,0,0,2.59,4.547,9.337,9.337,0,0,1-2.56,1.847Zm5.26-2.914a17.369,17.369,0,0,1-2.8-4.712,22.472,22.472,0,0,0,6.836-6.344c.735,3.745,1.679,8.393,2.694,12.96A25.563,25.563,0,0,1,59.386,68.813Z" transform="translate(-0.002 -4.592)"/>
        </g>
      </g>
    </g>
  </g>
</svg>
