<svg xmlns="http://www.w3.org/2000/svg" xmlns:xlink="http://www.w3.org/1999/xlink" width="93.934" height="93.934" viewBox="0 0 93.934 93.934">
  <defs>
    <filter id="Path_982547" x="0" y="0" width="93.934" height="93.934" filterUnits="userSpaceOnUse">
      <feOffset dy="3" input="SourceAlpha"/>
      <feGaussianBlur stdDeviation="3" result="blur"/>
      <feFlood flood-opacity="0.161"/>
      <feComposite operator="in" in2="blur"/>
      <feComposite in="SourceGraphic"/>
    </filter>
  </defs>
  <g id="Group_1222561" data-name="Group 1222561" transform="translate(-193.066 -3168.533)">
    <g id="Group_1222472" data-name="Group 1222472">
      <g id="Group_1216301" data-name="Group 1216301" transform="translate(-418 1973.836)">
        <g id="Group_1215985" data-name="Group 1215985" transform="translate(-0.229 -2679.151)">
          <g id="Group_1214663" data-name="Group 1214663" transform="translate(0 -1254.151)">
            <g id="Group_1214433" data-name="Group 1214433" transform="translate(-0.771 -2738.674)">
              <g id="Group_1183190" data-name="Group 1183190" transform="translate(1 1016.674)">
                <g id="Group_1179611" data-name="Group 1179611" transform="translate(428 4723.467)">
                  <g id="Group_1175227" data-name="Group 1175227" transform="translate(-5.967 140.533)">
                    <g id="Group_1167337" data-name="Group 1167337" transform="translate(198.033 1992)">
                      <g id="Group_1166720" data-name="Group 1166720">
                        <g id="Group_1164305" data-name="Group 1164305">
                          <g id="Group_1163948" data-name="Group 1163948">
                            <g id="Group_1158168" data-name="Group 1158168">
                              <g id="Group_1152576" data-name="Group 1152576">
                                <g id="Group_1148633" data-name="Group 1148633">
                                  <g id="Group_1148525" data-name="Group 1148525">
                                    <g transform="matrix(1, 0, 0, 1, -9, -6)" filter="url(#Path_982547)">
                                      <g id="Path_982547-2" data-name="Path 982547" transform="translate(9 6)" fill="#f7fbfc">
                                        <path d="M 37.966796875 74.43359375 C 33.04315185546875 74.43359375 28.26757431030273 73.46962738037109 23.77274131774902 71.56847381591797 C 19.43047523498535 69.73184967041016 15.53040790557861 67.10224914550781 12.18087482452393 63.75271987915039 C 8.831341743469238 60.4031867980957 6.201741218566895 56.50312042236328 4.365118980407715 52.16086196899414 C 2.463963508605957 47.66601943969727 1.499996900558472 42.89044189453125 1.499996900558472 37.966796875 C 1.499996900558472 33.04315185546875 2.463963508605957 28.26757431030273 4.365118980407715 23.77274131774902 C 6.201741218566895 19.43047523498535 8.831341743469238 15.53040790557861 12.18087482452393 12.18087482452393 C 15.53040790557861 8.831341743469238 19.43047523498535 6.201741218566895 23.77274131774902 4.365118980407715 C 28.26757431030273 2.463963508605957 33.04315185546875 1.499996900558472 37.966796875 1.499996900558472 C 42.89044189453125 1.499996900558472 47.66601943969727 2.463963508605957 52.16086196899414 4.365118980407715 C 56.50312042236328 6.201741218566895 60.4031867980957 8.831341743469238 63.75271987915039 12.18087482452393 C 67.10224914550781 15.53040790557861 69.73184967041016 19.43047523498535 71.56847381591797 23.77274131774902 C 73.46962738037109 28.26757431030273 74.43359375 33.04315185546875 74.43359375 37.966796875 C 74.43359375 42.89044189453125 73.46962738037109 47.66601943969727 71.56847381591797 52.16086196899414 C 69.73184967041016 56.50313186645508 67.10224914550781 60.4031867980957 63.75271987915039 63.75271987915039 C 60.4031867980957 67.10224914550781 56.50313186645508 69.73184967041016 52.16086196899414 71.56847381591797 C 47.66601943969727 73.46962738037109 42.89044189453125 74.43359375 37.966796875 74.43359375 Z" stroke="none"/>
                                        <path d="M 37.966796875 3 C 33.2449836730957 3 28.66600799560547 3.924095153808594 24.35705947875977 5.746635437011719 C 20.19359588623047 7.507637023925781 16.45379638671875 10.02928161621094 13.24153518676758 13.24153518676758 C 10.02927398681641 16.45379638671875 7.507621765136719 20.19359588623047 5.746635437011719 24.35705947875977 C 3.924095153808594 28.66600799560547 3 33.2449836730957 3 37.966796875 C 3 42.6886100769043 3.924095153808594 47.26758575439453 5.746635437011719 51.57653427124023 C 7.507621765136719 55.73999786376953 10.02927398681641 59.47979736328125 13.24153518676758 62.69205856323242 C 16.45379638671875 65.90431976318359 20.19359588623047 68.42597198486328 24.35705947875977 70.18695831298828 C 28.66600799560547 72.00949859619141 33.2449836730957 72.93359375 37.966796875 72.93359375 C 42.6886100769043 72.93359375 47.26758575439453 72.00949859619141 51.57653427124023 70.18695831298828 C 55.73999786376953 68.42597198486328 59.47979736328125 65.90431976318359 62.69205856323242 62.69205856323242 C 65.90431976318359 59.47979736328125 68.42597198486328 55.73999786376953 70.18695831298828 51.57653427124023 C 72.00949859619141 47.26758575439453 72.93359375 42.6886100769043 72.93359375 37.966796875 C 72.93359375 33.2449836730957 72.00949859619141 28.66600799560547 70.18695831298828 24.35705947875977 C 68.42597198486328 20.19359588623047 65.90431976318359 16.45379638671875 62.69205856323242 13.24153518676758 C 59.47979736328125 10.02928161621094 55.73999786376953 7.507637023925781 51.57653427124023 5.746635437011719 C 47.26758575439453 3.924095153808594 42.6886100769043 3 37.966796875 3 M 37.966796875 0 C 58.93528366088867 0 75.93359375 16.99832153320312 75.93359375 37.966796875 C 75.93359375 58.93528366088867 58.93528366088867 75.93359375 37.966796875 75.93359375 C 16.99831008911133 75.93359375 0 58.93528366088867 0 37.966796875 C 0 16.99832153320312 16.99831008911133 0 37.966796875 0 Z" stroke="none" fill="#62797e"/>
                                      </g>
                                    </g>
                                  </g>
                                </g>
                              </g>
                            </g>
                          </g>
                        </g>
                      </g>
                    </g>
                  </g>
                </g>
              </g>
            </g>
          </g>
        </g>
      </g>
      <g id="psychology" transform="translate(198.071 3162.624)">
        <g id="Group_1222471" data-name="Group 1222471" transform="translate(8.981 22.492)">
          <g id="Group_1222468" data-name="Group 1222468" transform="translate(0 0)">
            <path id="Path_1172203" data-name="Path 1172203" d="M57.006,68.184a2.505,2.505,0,0,1,2.5,2.5v46.006a2.505,2.505,0,0,1-2.5,2.5H18.5a2.5,2.5,0,0,1-2.5-2.5V70.684a2.505,2.505,0,0,1,2.5-2.5H57.006Z" transform="translate(-16 -63.422)" fill="#837683" fill-rule="evenodd"/>
            <path id="Path_1172204" data-name="Path 1172204" d="M322.861,119.192h3.227a2.505,2.505,0,0,0,2.5-2.5V70.685a2.505,2.505,0,0,0-2.5-2.5h-3.227Z" transform="translate(-285.082 -63.423)" fill="#685e68" fill-rule="evenodd"/>
            <path id="Path_1172205" data-name="Path 1172205" d="M79.678,96.437h-34.3a1.126,1.126,0,0,0-1.124,1.124v41.8a1.127,1.127,0,0,0,1.124,1.124h34.3a1.126,1.126,0,0,0,1.124-1.124v-41.8A1.127,1.127,0,0,0,79.678,96.437Z" transform="translate(-40.775 -88.197)" fill="#eceff1" fill-rule="evenodd"/>
            <path id="Path_1172206" data-name="Path 1172206" d="M322.861,140.487h1.124q.053,0,.105,0a1.127,1.127,0,0,0,1.019-1.119v-41.8a1.127,1.127,0,0,0-1.019-1.119c-.035,0-.07,0-.105,0h-1.124Z" transform="translate(-285.082 -88.197)" fill="#d1d1d6" fill-rule="evenodd"/>
            <path id="Path_1172207" data-name="Path 1172207" d="M93.453,349.111H97.67a1.4,1.4,0,0,1,1.391,1.391v4.216a1.4,1.4,0,0,1-1.391,1.391H93.453a1.4,1.4,0,0,1-1.391-1.391V350.5A1.4,1.4,0,0,1,93.453,349.111Z" transform="translate(-82.698 -309.763)" fill="#fe646f" fill-rule="evenodd"/>
            <path id="Path_1172208" data-name="Path 1172208" d="M127.611,349.111h1.231a1.4,1.4,0,0,1,1.391,1.391v4.216a1.4,1.4,0,0,1-1.391,1.391h-1.231A1.4,1.4,0,0,0,129,354.719V350.5A1.4,1.4,0,0,0,127.611,349.111Z" transform="translate(-113.87 -309.763)" fill="#fd4755" fill-rule="evenodd"/>
            <path id="Path_1172209" data-name="Path 1172209" d="M93.453,253.052H97.67a1.4,1.4,0,0,1,1.391,1.391v4.217a1.4,1.4,0,0,1-1.391,1.391H93.453a1.4,1.4,0,0,1-1.391-1.391v-4.217A1.4,1.4,0,0,1,93.453,253.052Z" transform="translate(-82.698 -225.531)" fill="#ffe177" fill-rule="evenodd"/>
            <path id="Path_1172210" data-name="Path 1172210" d="M127.611,253.052h1.231a1.4,1.4,0,0,1,1.391,1.391v4.217a1.4,1.4,0,0,1-1.391,1.391h-1.231A1.4,1.4,0,0,0,129,258.66v-4.217A1.4,1.4,0,0,0,127.611,253.052Z" transform="translate(-113.87 -225.531)" fill="#ffd064" fill-rule="evenodd"/>
            <path id="Path_1172211" data-name="Path 1172211" d="M93.453,156.993H97.67a1.4,1.4,0,0,1,1.391,1.391V162.6a1.4,1.4,0,0,1-1.391,1.391H93.453a1.4,1.4,0,0,1-1.391-1.391v-4.217A1.4,1.4,0,0,1,93.453,156.993Z" transform="translate(-82.698 -141.298)" fill="#8ac9fe" fill-rule="evenodd"/>
            <path id="Path_1172212" data-name="Path 1172212" d="M127.611,156.993h1.231a1.4,1.4,0,0,1,1.391,1.391V162.6a1.4,1.4,0,0,1-1.391,1.391h-1.231A1.4,1.4,0,0,0,129,162.6v-4.217A1.4,1.4,0,0,0,127.611,156.993Z" transform="translate(-113.87 -141.298)" fill="#60b7ff" fill-rule="evenodd"/>
            <path id="Path_1172213" data-name="Path 1172213" d="M115.624,32.757h3.564a1.1,1.1,0,0,0,1.033-.68,4.252,4.252,0,0,1,7.811,0,1.1,1.1,0,0,0,1.033.68h3.564a1.127,1.127,0,0,1,1.124,1.124v4.252a1.126,1.126,0,0,1-1.124,1.124h-17a1.126,1.126,0,0,1-1.124-1.124V33.882A1.126,1.126,0,0,1,115.624,32.757Z" transform="translate(-102.373 -29.507)" fill="#e3a76f" fill-rule="evenodd"/>
            <path id="Path_1172214" data-name="Path 1172214" d="M131.5,61.285h-17a1.126,1.126,0,0,0,1.124,1.124h17a1.126,1.126,0,0,0,1.124-1.124V57.032a1.127,1.127,0,0,0-1.124-1.124V60.16a1.127,1.127,0,0,1-1.124,1.124Z" transform="translate(-102.372 -52.658)" fill="#c48958" fill-rule="evenodd"/>
          </g>
          <g id="Group_1222469" data-name="Group 1222469" transform="translate(27.917 11.405)">
            <path id="Path_1172215" data-name="Path 1172215" d="M244.6,159.864h16.112q.967-5.416,6.532-4.153,3.712.645,3.634-1.038c.013-1.741.311-2.374.76-2.71.993-.766-.114-1.751-1.251-2.369.957-.076,2.186-.845,1.921-1.461-.423-1.449-.223-2.032.431-2.371q1.91-.934.779-2.379a13.517,13.517,0,0,1-2.082-2.9,4.8,4.8,0,0,1-.541-2.815,14.244,14.244,0,0,0,.071-1.423,14.1,14.1,0,1,0-24.864,9.112,4.808,4.808,0,0,1,1.159,2.693C247.642,151.517,246.713,155.57,244.6,159.864Z" transform="translate(-242.763 -122.143)" fill="#ffddce" fill-rule="evenodd"/>
            <path id="Path_1172216" data-name="Path 1172216" d="M244.6,159.864h1.343c2.111-4.294,3.04-8.347,2.659-11.814a4.807,4.807,0,0,0-1.158-2.693,14.1,14.1,0,0,1,10.09-23.2q-.334-.016-.672-.016A14.1,14.1,0,0,0,246.1,145.358a4.808,4.808,0,0,1,1.159,2.693C247.64,151.517,246.712,155.57,244.6,159.864Z" transform="translate(-242.761 -122.143)" fill="#f1cbbc" fill-rule="evenodd"/>
          </g>
          <g id="Group_1222470" data-name="Group 1222470" transform="translate(35.113 18.954)">
            <path id="Path_1172217" data-name="Path 1172217" d="M312.891,194.281v-3.651a3.477,3.477,0,0,0,1.8.482c1.62,0,2.932-1.023,2.932-2.286s-1.313-2.286-2.932-2.286a3.477,3.477,0,0,0-1.8.483v-2.7a.864.864,0,0,0-.862-.862H302.07a.864.864,0,0,0-.862.862v9.959a.864.864,0,0,0,.862.862h2.7a3.477,3.477,0,0,1-.483-1.8c0-1.62,1.023-2.932,2.286-2.932s2.286,1.313,2.286,2.932a3.477,3.477,0,0,1-.482,1.8h3.651A.864.864,0,0,0,312.891,194.281Z" transform="translate(-301.208 -183.46)" fill="#6cf5c2" fill-rule="evenodd"/>
            <path id="Path_1172218" data-name="Path 1172218" d="M317.517,189.444a1.823,1.823,0,0,0,.108-.616c0-1.263-1.313-2.286-2.932-2.286a3.477,3.477,0,0,0-1.8.483v1.231a3.477,3.477,0,0,1,1.8-.483A2.916,2.916,0,0,1,317.517,189.444Zm-4.626-3.889v-1.231a.864.864,0,0,0-.862-.862H302.07a.864.864,0,0,0-.862.862v1.231a.864.864,0,0,1,.862-.862h9.959A.864.864,0,0,1,312.891,185.555Z" transform="translate(-301.208 -183.462)" fill="#00e499" fill-rule="evenodd"/>
          </g>
        </g>
        <path id="Path_1172219" data-name="Path 1172219" d="M57.577,48.113a2.52,2.52,0,0,1-1.289-.338.985.985,0,0,0-1.5.841v3.528h-2.13a4.815,4.815,0,0,0,.071-.818c0-2.159-1.468-3.916-3.271-3.916s-3.271,1.757-3.271,3.916a4.7,4.7,0,0,0,.07.818H45.077V42.43h9.714V45.01a.985.985,0,0,0,1.5.841,2.508,2.508,0,0,1,1.289-.338c1.056,0,1.948.6,1.948,1.3s-.891,1.3-1.948,1.3Zm0-4.571a4.692,4.692,0,0,0-.816.07V41.445a.984.984,0,0,0-.985-.985H44.092a.985.985,0,0,0-.984.985V53.13a.985.985,0,0,0,.984.985h3.564a.985.985,0,0,0,.841-1.5,2.52,2.52,0,0,1-.338-1.29c0-1.055.6-1.946,1.3-1.946s1.3.891,1.3,1.946a2.51,2.51,0,0,1-.34,1.29.985.985,0,0,0,.842,1.5h4.512a.984.984,0,0,0,.985-.985V50.013a4.7,4.7,0,0,0,.816.07c2.16,0,3.917-1.467,3.917-3.271s-1.757-3.27-3.917-3.27Zm9.512,12.6c0-.02-.016-.146-.189-.374a14.5,14.5,0,0,1-2.2-3.081,5.814,5.814,0,0,1-.648-3.367,13.118,13.118,0,1,0-23.062,7.15A5.816,5.816,0,0,1,42.374,59.7a21.908,21.908,0,0,1-2.1,10.936H54.057a5.832,5.832,0,0,1,2.305-3.544,6.59,6.59,0,0,1,5.211-.59c1.827.314,2.358.08,2.457.02a.207.207,0,0,0,0-.047c0-.017,0-.034,0-.053.014-1.812.326-2.818,1.075-3.427a3.684,3.684,0,0,0-1.051-.778.985.985,0,0,1,.392-1.847,2.081,2.081,0,0,0,1-.4c-.242-.869-.586-2.513.98-3.324l.021-.011c.577-.282.646-.484.646-.485ZM51.5,75.76V72.6H49.992v2.179a.985.985,0,0,1-.985.985H12.458a.985.985,0,0,1-.985-.985V30.732a.985.985,0,0,1,.985-.985h7.663V28.239H11.48a1.516,1.516,0,0,0-1.515,1.514V75.76a1.517,1.517,0,0,0,1.515,1.515H49.986A1.516,1.516,0,0,0,51.5,75.76ZM22.091,26.728H26.6a.985.985,0,0,0,.957-.753,3.266,3.266,0,0,1,6.349,0,.985.985,0,0,0,.958.753h4.509v4.53H22.091Zm19.252,5.515a.984.984,0,0,1-.985.985H21.106a.985.985,0,0,1-.985-.985v-.526H13.443V73.8H48.022V72.6H38.737a.986.986,0,0,1-.884-1.42q.588-1.194,1.046-2.36H31.372a.985.985,0,0,1,0-1.97H39.59a21.431,21.431,0,0,0,.706-3.03H31.373a.985.985,0,0,1,0-1.97h9.111a13.552,13.552,0,0,0-.067-1.942,3.8,3.8,0,0,0-.931-2.163q-.31-.366-.6-.751H31.373a.985.985,0,0,1,0-1.97H37.65a15.122,15.122,0,0,1-1.2-3.03h-5.08a.985.985,0,0,1,0-1.97H36.05a15.1,15.1,0,0,1,.129-4.857H31.373a.985.985,0,0,1,0-1.97h5.321a15.039,15.039,0,0,1,1.412-3.03H31.373a.985.985,0,0,1,0-1.97h8.163a15.1,15.1,0,0,1,8.486-4.995V31.717H41.344v.526Zm8.642-4A1.516,1.516,0,0,1,51.5,29.754v3.167c-.166-.006-.334-.01-.5-.01-.338,0-.673.013-1.007.035V30.732a.985.985,0,0,0-.985-.985H41.344V28.239ZM68.429,54.529c-.017-.021-.034-.041-.052-.06a12.573,12.573,0,0,1-1.933-2.686,3.8,3.8,0,0,1-.435-2.261c.05-.5.076-1.016.076-1.522A15.111,15.111,0,0,0,53.47,33.115V29.754a3.488,3.488,0,0,0-3.484-3.484H41.343v-.527a.985.985,0,0,0-.985-.985h-4.78a5.239,5.239,0,0,0-9.693,0h-4.78a.985.985,0,0,0-.985.985v.527H11.48A3.488,3.488,0,0,0,8,29.754V75.76a3.489,3.489,0,0,0,3.485,3.486H49.986A3.488,3.488,0,0,0,53.47,75.76V72.6h1.379a.985.985,0,0,0,.97-.812,4.417,4.417,0,0,1,1.631-3.06,4.773,4.773,0,0,1,3.713-.305l.05.01c2.068.358,3.383.214,4.14-.453A1.927,1.927,0,0,0,66,66.411c.009-1.06.138-1.736.365-1.9l.011-.008a1.781,1.781,0,0,0,.764-1.581,2.222,2.222,0,0,0-.623-1.3,2.552,2.552,0,0,0,.709-.734,1.5,1.5,0,0,0,.151-1.317c-.258-.9-.15-1.113-.149-1.113a.268.268,0,0,1,.091-.062,2.827,2.827,0,0,0,1.689-1.809,2.406,2.406,0,0,0-.58-2.057ZM31.857,25.977A1.124,1.124,0,1,0,30.733,27.1,1.124,1.124,0,0,0,31.857,25.977Zm-7.5,41.471a.412.412,0,0,1-.406.406H19.735a.412.412,0,0,1-.406-.406V63.231a.412.412,0,0,1,.406-.407h4.217a.412.412,0,0,1,.406.407Zm-.406-6.593a2.379,2.379,0,0,1,2.376,2.376v4.216a2.379,2.379,0,0,1-2.376,2.376H19.735a2.379,2.379,0,0,1-2.376-2.376V63.231a2.379,2.379,0,0,1,2.376-2.376Zm.406-5.233a.412.412,0,0,1-.406.406H19.735a.412.412,0,0,1-.406-.406V51.4A.412.412,0,0,1,19.735,51h4.217a.412.412,0,0,1,.406.406Zm-.406-6.593A2.379,2.379,0,0,1,26.328,51.4v4.217A2.379,2.379,0,0,1,23.952,58H19.735a2.379,2.379,0,0,1-2.376-2.376V51.4a2.378,2.378,0,0,1,2.376-2.376Zm.406-9.45v4.216a.412.412,0,0,1-.406.407H19.735a.412.412,0,0,1-.406-.407V39.578a.411.411,0,0,1,.406-.406h4.217A.411.411,0,0,1,24.358,39.578Zm-7,0A2.379,2.379,0,0,1,19.735,37.2h4.217a2.379,2.379,0,0,1,2.376,2.376v4.216a2.379,2.379,0,0,1-2.376,2.376H19.735a2.379,2.379,0,0,1-2.376-2.376Z" transform="translate(0 0)" fill-rule="evenodd"/>
      </g>
    </g>
  </g>
</svg>
