<svg xmlns="http://www.w3.org/2000/svg" xmlns:xlink="http://www.w3.org/1999/xlink" width="113" height="113" viewBox="0 0 113 113">
  <defs>
    <filter id="Path_982547" x="0" y="0" width="113" height="113" filterUnits="userSpaceOnUse">
      <feOffset dy="3" input="SourceAlpha"/>
      <feGaussianBlur stdDeviation="3" result="blur"/>
      <feFlood flood-opacity="0.161"/>
      <feComposite operator="in" in2="blur"/>
      <feComposite in="SourceGraphic"/>
    </filter>
  </defs>
  <g id="Group_1222515" data-name="Group 1222515" transform="translate(-325 -888.867)">
    <g id="Group_1221147" data-name="Group 1221147">
      <g id="Group_1210677" data-name="Group 1210677" transform="translate(0 -6639.941)">
        <g id="Group_1208705" data-name="Group 1208705" transform="translate(-1.454 3213.429)">
          <g id="Group_1148633" data-name="Group 1148633" transform="translate(71.408 600.047)">
            <g id="Group_1148525" data-name="Group 1148525" transform="translate(264.046 3721.333)">
              <g transform="matrix(1, 0, 0, 1, -9, -6)" filter="url(#Path_982547)">
                <g id="Path_982547-2" data-name="Path 982547" transform="translate(9 6)" fill="#ffe6ef">
                  <path d="M 47.5 93.5 C 41.28937149047852 93.5 35.26533508300781 92.28397369384766 29.59518623352051 89.88570404052734 C 24.11771965026855 87.56893157958984 19.19813346862793 84.25196075439453 14.97309303283691 80.02691650390625 C 10.74804019927979 75.80186462402344 7.431066513061523 70.88229370117188 5.114293098449707 65.40481567382812 C 2.716026782989502 59.73468017578125 1.5 53.71062850952148 1.5 47.5 C 1.5 41.28937149047852 2.716026782989502 35.26533508300781 5.114293098449707 29.59518623352051 C 7.431066513061523 24.11771965026855 10.74804019927979 19.19813346862793 14.97309303283691 14.97309303283691 C 19.19813346862793 10.74804019927979 24.11771965026855 7.431066513061523 29.59518623352051 5.114293098449707 C 35.26533508300781 2.716026782989502 41.28937149047852 1.5 47.5 1.5 C 53.71062850952148 1.5 59.73468017578125 2.716026782989502 65.40481567382812 5.114293098449707 C 70.88229370117188 7.431066513061523 75.80186462402344 10.74804019927979 80.02691650390625 14.97309303283691 C 84.25196075439453 19.19813346862793 87.56893157958984 24.11771965026855 89.88570404052734 29.59518623352051 C 92.28397369384766 35.26533508300781 93.5 41.28937149047852 93.5 47.5 C 93.5 53.71062850952148 92.28397369384766 59.73468017578125 89.88570404052734 65.40481567382812 C 87.56893157958984 70.88229370117188 84.25196075439453 75.80186462402344 80.02691650390625 80.02691650390625 C 75.80186462402344 84.25196075439453 70.88229370117188 87.56893157958984 65.40481567382812 89.88570404052734 C 59.73468017578125 92.28397369384766 53.71062850952148 93.5 47.5 93.5 Z" stroke="none"/>
                  <path d="M 47.5 3 C 41.49121475219727 3 35.66376876831055 4.176155090332031 30.17950439453125 6.495796203613281 C 24.88084411621094 8.736953735351562 20.12152099609375 11.94598388671875 16.03375244140625 16.03375244140625 C 11.94598388671875 20.12152099609375 8.736953735351562 24.88084411621094 6.495796203613281 30.17950439453125 C 4.176155090332031 35.66376876831055 3 41.49121475219727 3 47.5 C 3 53.50878524780273 4.176155090332031 59.33623123168945 6.495796203613281 64.82049560546875 C 8.736953735351562 70.11915588378906 11.94598388671875 74.87847900390625 16.03375244140625 78.96624755859375 C 20.12152099609375 83.05401611328125 24.88084411621094 86.26304626464844 30.17950439453125 88.50419616699219 C 35.66376876831055 90.82384490966797 41.49121475219727 92 47.5 92 C 53.50878524780273 92 59.33623123168945 90.82384490966797 64.82049560546875 88.50419616699219 C 70.11915588378906 86.26304626464844 74.87847900390625 83.05401611328125 78.96624755859375 78.96624755859375 C 83.05401611328125 74.87847900390625 86.26304626464844 70.11915588378906 88.50419616699219 64.82049560546875 C 90.82384490966797 59.33623123168945 92 53.50878524780273 92 47.5 C 92 41.49121475219727 90.82384490966797 35.66376876831055 88.50419616699219 30.17950439453125 C 86.26304626464844 24.88084411621094 83.05401611328125 20.12152099609375 78.96624755859375 16.03375244140625 C 74.87847900390625 11.94598388671875 70.11915588378906 8.736953735351562 64.82049560546875 6.495796203613281 C 59.33623123168945 4.176155090332031 53.50878524780273 3 47.5 3 M 47.5 0 C 73.7335205078125 0 95 21.2664794921875 95 47.5 C 95 73.7335205078125 73.7335205078125 95 47.5 95 C 21.2664794921875 95 0 73.7335205078125 0 47.5 C 0 21.2664794921875 21.2664794921875 0 47.5 0 Z" stroke="none" fill="#ffadcc"/>
                </g>
              </g>
            </g>
          </g>
        </g>
      </g>
      <g id="pastillas" transform="translate(343.544 902.867)">
        <path id="Path_1079231" data-name="Path 1079231" d="M24.336,36.419,9.244,21.326a8.091,8.091,0,0,1,0-11.442h0a8.091,8.091,0,0,1,11.442,0L35.778,24.977a8.091,8.091,0,0,1,0,11.442h0A8.09,8.09,0,0,1,24.336,36.419Z" transform="translate(-5.885 -6.473)" fill="#ffca28"/>
        <path id="Path_1079232" data-name="Path 1079232" d="M68.794,24.985,53.7,9.893a8.09,8.09,0,0,0-8.495-1.879,8.058,8.058,0,0,1,2.947,1.879L63.246,24.985a8.091,8.091,0,0,1,0,11.442h0A8.055,8.055,0,0,1,60.3,38.306a8.09,8.09,0,0,0,8.495-1.879h0A8.091,8.091,0,0,0,68.794,24.985Z" transform="translate(-38.902 -6.481)" fill="#ffa000"/>
        <path id="Path_1079233" data-name="Path 1079233" d="M308.574,274.71l10.946-18.959A7.816,7.816,0,0,1,330.2,252.89l.475.274a7.816,7.816,0,0,1,2.861,10.677L322.588,282.8a7.816,7.816,0,0,1-10.677,2.861l-.475-.274A7.816,7.816,0,0,1,308.574,274.71Z" transform="translate(-264.838 -216.912)" fill="#ef5350"/>
        <path id="Path_1079234" data-name="Path 1079234" d="M341.653,255.447l-.476-.274a7.839,7.839,0,0,0-1.544-.681,7.818,7.818,0,0,1,.72,8.858L329.407,282.31a7.818,7.818,0,0,1-9.133,3.542,7.794,7.794,0,0,0,2.141,1.819l.475.275a7.816,7.816,0,0,0,10.677-2.861l10.946-18.959A7.816,7.816,0,0,0,341.653,255.447Z" transform="translate(-275.818 -219.195)" fill="#d32f2f"/>
        <path id="Path_1079235" data-name="Path 1079235" d="M374.031,263.841a7.816,7.816,0,0,0-2.861-10.677l-.475-.275a7.816,7.816,0,0,0-10.677,2.861l-5.473,9.48,14.013,8.091Z" transform="translate(-305.335 -216.912)" fill="#42a5f5"/>
        <path id="Path_1079236" data-name="Path 1079236" d="M431.355,255.446l-.274-.159-.2-.116h0q-.183-.106-.37-.2l-.055-.026c-.11-.055-.22-.107-.331-.156l-.026-.011a7.914,7.914,0,0,0-.762-.287,7.818,7.818,0,0,1,.72,8.858l-5.634,9.758,4.322,2.5,5.473-9.48a7.779,7.779,0,0,0,1.03-4.435c-.018-.256-.047-.511-.09-.763q-.031-.185-.071-.368A7.8,7.8,0,0,0,431.355,255.446Z" transform="translate(-365.52 -219.193)" fill="#1976d2"/>
        <rect id="Rectangle_418186" data-name="Rectangle 418186" width="16.181" height="3.773" transform="translate(9.57 21.066) rotate(-45)" fill="#ffa000"/>
        <circle id="Ellipse_11836" data-name="Ellipse 11836" cx="13.772" cy="13.772" r="13.772" transform="translate(5.391 39.776)" fill="#90caf9"/>
        <path id="Path_1079237" data-name="Path 1079237" d="M86.663,289.523a13.776,13.776,0,0,1-12,24.01,13.773,13.773,0,1,0,12-24.01Z" transform="translate(-64.276 -249.367)" fill="#42a5f5"/>
        <circle id="Ellipse_11837" data-name="Ellipse 11837" cx="9.184" cy="9.184" r="9.184" transform="translate(40.044 10.176)" fill="#ef5350"/>
        <path id="Path_1079238" data-name="Path 1079238" d="M314.164,76.557a9.183,9.183,0,0,1-9.793,14.71,9.183,9.183,0,1,0,9.793-14.71Z" transform="translate(-262.12 -65.939)" fill="#d32f2f"/>
        <path id="Path_1079239" data-name="Path 1079239" d="M46.136,339.153a13.874,13.874,0,0,0,1.22,1.779l23.565-13.605A13.935,13.935,0,0,0,68.77,323.6L45.205,337.207A13.89,13.89,0,0,0,46.136,339.153Z" transform="translate(-38.9 -278.719)" fill="#42a5f5"/>
        <g id="Group_1209767" data-name="Group 1209767" transform="translate(0.041 0)">
          <path id="Path_1079240" data-name="Path 1079240" d="M17.8,30.681A9.131,9.131,0,1,0,30.716,17.768L15.624,2.676A9.131,9.131,0,0,0,2.711,15.589ZM29.245,29.21a7.047,7.047,0,0,1-9.971,0L13.8,23.734l.9-.9a1.04,1.04,0,0,0-1.471-1.471l-.9.9-1.2-1.2L21.1,11.1l1.2,1.2-5.634,5.634A1.04,1.04,0,1,0,18.134,19.4l5.634-5.634,5.476,5.476A7.058,7.058,0,0,1,29.245,29.21ZM4.182,4.148a7.059,7.059,0,0,1,9.971,0l5.476,5.476L9.659,19.595,4.182,14.118A7.047,7.047,0,0,1,4.182,4.148Z" transform="translate(-0.041 0)"/>
          <path id="Path_1079241" data-name="Path 1079241" d="M325.359,245.793l-.475-.275a8.852,8.852,0,0,0-12.1,3.242l-1.121,1.942a1.04,1.04,0,1,0,1.8,1.04l1.121-1.942a6.772,6.772,0,0,1,9.256-2.48l.475.274a6.784,6.784,0,0,1,2.48,9.256l-4.953,8.579-12.212-7.05,1.4-2.433a1.04,1.04,0,1,0-1.8-1.04l-7.4,12.813a8.852,8.852,0,0,0,3.242,12.1l.475.274a8.852,8.852,0,0,0,12.1-3.242L328.6,257.891A8.867,8.867,0,0,0,325.359,245.793Zm-9.506,30.017a6.772,6.772,0,0,1-9.256,2.48l-.476-.274a6.772,6.772,0,0,1-2.48-9.256l4.953-8.579,12.212,7.05Z" transform="translate(-258.956 -210.441)"/>
          <path id="Path_1079242" data-name="Path 1079242" d="M291.822,86.32A10.224,10.224,0,1,0,281.6,76.1,10.235,10.235,0,0,0,291.822,86.32Zm0-18.367a8.143,8.143,0,1,1-8.143,8.143A8.153,8.153,0,0,1,291.822,67.952Z" transform="translate(-242.547 -56.736)"/>
          <path id="Path_1079243" data-name="Path 1079243" d="M46.562,279.281a14.813,14.813,0,1,0,14.813,14.813A14.829,14.829,0,0,0,46.562,279.281Zm0,2.08a12.693,12.693,0,0,1,9.073,3.809l-14.458,8.347a1.04,1.04,0,1,0,1.04,1.8l14.769-8.527a12.739,12.739,0,0,1,1.114,1.922l-21.963,12.68a12.742,12.742,0,0,1-1.114-1.922l2.99-1.726a1.04,1.04,0,0,0-1.04-1.8l-2.682,1.548a12.734,12.734,0,0,1,12.271-16.132Zm0,25.464a12.693,12.693,0,0,1-9.073-3.809l21.343-12.323a12.734,12.734,0,0,1-12.271,16.132Z" transform="translate(-27.352 -240.546)"/>
        </g>
      </g>
    </g>
  </g>
</svg>
