<svg xmlns="http://www.w3.org/2000/svg" xmlns:xlink="http://www.w3.org/1999/xlink" width="103" height="103" viewBox="0 0 103 103">
  <defs>
    <filter id="Path_978624" x="0" y="0" width="103" height="103" filterUnits="userSpaceOnUse">
      <feOffset dy="3" input="SourceAlpha"/>
      <feGaussianBlur stdDeviation="3" result="blur"/>
      <feFlood flood-opacity="0.161"/>
      <feComposite operator="in" in2="blur"/>
      <feComposite in="SourceGraphic"/>
    </filter>
  </defs>
  <g id="Group_1222538" data-name="Group 1222538" transform="translate(-615 -2673)">
    <g id="Group_1221760" data-name="Group 1221760">
      <g id="Group_1220990" data-name="Group 1220990" transform="translate(420 1970)">
        <g id="Group_1208708" data-name="Group 1208708" transform="translate(29.5 -355)">
          <g id="Group_1178144" data-name="Group 1178144" transform="translate(-19.5 -2004)">
            <g id="Group_1177896" data-name="Group 1177896" transform="translate(14 196)">
              <g id="Group_1176881" data-name="Group 1176881">
                <g id="Group_1175148" data-name="Group 1175148" transform="translate(0 1580)">
                  <g id="Group_1173798" data-name="Group 1173798" transform="translate(-3 -3520)">
                    <g id="Group_1171925" data-name="Group 1171925" transform="translate(-22 -2246)">
                      <g id="Group_1164524" data-name="Group 1164524" transform="translate(205 7058)">
                        <g id="Group_1144123" data-name="Group 1144123">
                          <g transform="matrix(1, 0, 0, 1, -9, -6)" filter="url(#Path_978624)">
                            <g id="Path_978624-2" data-name="Path 978624" transform="translate(9 6)" fill="#fff6f9">
                              <path d="M 42.5 83.5 C 36.96437835693359 83.5 31.59512901306152 82.41617584228516 26.54141235351562 80.27863311767578 C 21.65934181213379 78.21369171142578 17.27447128295898 75.25723266601562 13.50862312316895 71.49137878417969 C 9.742764472961426 67.72553253173828 6.786305904388428 63.34066009521484 4.721364498138428 58.45858764648438 C 2.583823442459106 53.40486907958984 1.5 48.03562164306641 1.5 42.5 C 1.5 36.96437835693359 2.583823442459106 31.59512901306152 4.721364498138428 26.54141235351562 C 6.786305904388428 21.65934181213379 9.742764472961426 17.27447128295898 13.50862312316895 13.50862312316895 C 17.27447128295898 9.742764472961426 21.65934181213379 6.786305904388428 26.54141235351562 4.721364498138428 C 31.59512901306152 2.583823442459106 36.96437835693359 1.5 42.5 1.5 C 48.03562164306641 1.5 53.40486907958984 2.583823442459106 58.45858764648438 4.721364498138428 C 63.34066009521484 6.786305904388428 67.72553253173828 9.742764472961426 71.49137878417969 13.50862312316895 C 75.25723266601562 17.27447128295898 78.21369171142578 21.65934181213379 80.27863311767578 26.54141235351562 C 82.41617584228516 31.59512901306152 83.5 36.96437835693359 83.5 42.5 C 83.5 48.03562164306641 82.41617584228516 53.40486907958984 80.27863311767578 58.45858764648438 C 78.21369171142578 63.34066009521484 75.25723266601562 67.72553253173828 71.49137878417969 71.49137878417969 C 67.72553253173828 75.25723266601562 63.34066009521484 78.21369171142578 58.45858764648438 80.27863311767578 C 53.40486907958984 82.41617584228516 48.03562164306641 83.5 42.5 83.5 Z" stroke="none"/>
                              <path d="M 42.5 3 C 37.16621398925781 3 31.99356079101562 4.043960571289062 27.125732421875 6.102882385253906 C 22.42246627807617 8.092185974121094 18.19785308837891 10.94070434570312 14.56928253173828 14.56928253173828 C 10.94070434570312 18.19785308837891 8.092185974121094 22.42246627807617 6.102882385253906 27.125732421875 C 4.043960571289062 31.99356079101562 3 37.16621398925781 3 42.5 C 3 47.83378601074219 4.043960571289062 53.00643920898438 6.102882385253906 57.87425231933594 C 8.092185974121094 62.57753372192383 10.94070434570312 66.80213165283203 14.56928253173828 70.43071746826172 C 18.19786834716797 74.05929565429688 22.42246627807617 76.90781402587891 27.125732421875 78.89711761474609 C 31.99356079101562 80.95603942871094 37.16621398925781 82 42.5 82 C 47.83378601074219 82 53.00642395019531 80.95603942871094 57.87425231933594 78.89711761474609 C 62.57753372192383 76.90781402587891 66.80213165283203 74.05929565429688 70.43071746826172 70.43071746826172 C 74.05929565429688 66.80213165283203 76.90781402587891 62.57753372192383 78.89711761474609 57.87425231933594 C 80.95603942871094 53.00642395019531 82 47.83378601074219 82 42.5 C 82 37.16621398925781 80.95603942871094 31.99356079101562 78.89711761474609 27.125732421875 C 76.90781402587891 22.42246627807617 74.05929565429688 18.19786834716797 70.43071746826172 14.56928253173828 C 66.80213165283203 10.94070434570312 62.57753372192383 8.092185974121094 57.87425231933594 6.102882385253906 C 53.00643920898438 4.043960571289062 47.83378601074219 3 42.5 3 M 42.5 0 C 65.97209167480469 0 85 19.02789306640625 85 42.5 C 85 65.97209167480469 65.97209167480469 85 42.5 85 C 19.02789306640625 85 0 65.97209167480469 0 42.5 C 0 19.02789306640625 19.02789306640625 0 42.5 0 Z" stroke="none" fill="#8b5e6f"/>
                            </g>
                          </g>
                        </g>
                      </g>
                    </g>
                  </g>
                </g>
              </g>
            </g>
          </g>
        </g>
      </g>
      <g id="salud-mental_5_" data-name="salud-mental (5)" transform="translate(632 2683.275)">
        <g id="Group_1221758" data-name="Group 1221758" transform="translate(1.144 7.619)">
          <path id="Path_1171564" data-name="Path 1171564" d="M255.988,471.461v-.038" transform="translate(-218.019 -401.526)" fill="#fd4755" stroke="#fe646f" stroke-miterlimit="10" stroke-width="1"/>
          <g id="Group_1221755" data-name="Group 1221755">
            <path id="Path_1171565" data-name="Path 1171565" d="M210.052,13.964a5.436,5.436,0,0,1,5.436,5.436v.955H218.7a5.931,5.931,0,0,1,3.51,10.713h3.929a8.595,8.595,0,0,1,1.729,17.014,5.931,5.931,0,0,1-3.5,10.721h-4.7a7.53,7.53,0,1,1-15.06,0V19.4a5.436,5.436,0,0,1,5.436-5.436Z" transform="translate(-174.496 -13.964)" fill="#fe93bb"/>
            <path id="Path_1171566" data-name="Path 1171566" d="M214.266,66.029a7.535,7.535,0,0,1-9.65-7.226V19.4a5.437,5.437,0,0,1,7.557-5.006,5.436,5.436,0,0,0-3.315,5.006V58.8A7.533,7.533,0,0,0,214.266,66.029Z" transform="translate(-174.496 -13.963)" fill="#fe76a8"/>
            <path id="Path_1171567" data-name="Path 1171567" d="M37.608,19.4V58.8a7.53,7.53,0,0,1-15.06,0h-4.7a5.931,5.931,0,0,1-3.5-10.722,8.6,8.6,0,0,1,1.73-17.014h3.93a5.932,5.932,0,0,1,3.51-10.714h3.214V19.4a5.436,5.436,0,1,1,10.872,0Z" transform="translate(-7.488 -13.964)" fill="#fe93bb"/>
            <g id="Group_1221754" data-name="Group 1221754" transform="translate(0 0)">
              <path id="Path_1171568" data-name="Path 1171568" d="M115.413,296.453a7.54,7.54,0,0,1-9.36-7.42V285.85h.361a3.3,3.3,0,0,1,3.3,3.3A7.532,7.532,0,0,0,115.413,296.453Z" transform="translate(-90.993 -244.308)" fill="#fe76a8"/>
              <path id="Path_1171569" data-name="Path 1171569" d="M16.189,138.486a4.43,4.43,0,0,0,4.43,4.43H14.352a8.6,8.6,0,0,1,1.73-17.014H20.62a4.077,4.077,0,0,0,0,8.154A4.43,4.43,0,0,0,16.189,138.486Z" transform="translate(-7.488 -108.799)" fill="#fe76a8"/>
              <path id="Path_1171570" data-name="Path 1171570" d="M91.217,14.893a4.018,4.018,0,0,0-4.878,3.443q0,.023-.005.047a2.187,2.187,0,0,1-2.17,1.972h-.947a6,6,0,0,0-6.031,5.832,5.907,5.907,0,0,0,.66,2.821,5.972,5.972,0,0,0,1.761,2.061H76.022a5.971,5.971,0,0,1-1.761-2.061,5.933,5.933,0,0,1,5.271-8.653h3.214V19.5A5.5,5.5,0,0,1,88.1,13.965,5.4,5.4,0,0,1,91.217,14.893Z" transform="translate(-63.498 -13.964)" fill="#fe76a8"/>
              <path id="Path_1171571" data-name="Path 1171571" d="M48.623,247.977H42.414a5.931,5.931,0,0,1-3.5-10.722h6.209a5.932,5.932,0,0,0,3.5,10.722Z" transform="translate(-32.052 -203.138)" fill="#fe76a8"/>
            </g>
          </g>
          <g id="Group_1221756" data-name="Group 1221756" transform="translate(26.555 28.603)">
            <path id="Path_1171572" data-name="Path 1171572" d="M226.65,205.181a13.724,13.724,0,0,0-19.408,0l-1.263,1.263-1.263-1.263a13.724,13.724,0,0,0-19.408,19.408l15.883,15.883a6.772,6.772,0,0,0,9.577,0l15.883-15.883A13.724,13.724,0,0,0,226.65,205.181Z" transform="translate(-181.286 -201.161)" fill="#fd4755" stroke="#fe646f" stroke-miterlimit="10" stroke-width="1"/>
            <path id="Path_1171573" data-name="Path 1171573" d="M206.817,242.406a6.756,6.756,0,0,1-5.621-1.931l-15.883-15.883a13.725,13.725,0,0,1,13.068-23.011,13.737,13.737,0,0,0-7.716,12.353,13.666,13.666,0,0,0,2.086,7.258l11.9,19.05A6.748,6.748,0,0,0,206.817,242.406Z" transform="translate(-181.293 -201.164)" fill="#fb2b3a"/>
          </g>
          <g id="Group_1221757" data-name="Group 1221757" transform="translate(9.056 46.956)">
            <path id="Path_1171574" data-name="Path 1171574" d="M78.831,348.285a3.759,3.759,0,0,1-3.038-1.546l-8.318-11.421a3.759,3.759,0,0,1,6.077-4.426l4.628,6.355,6.7-13.846a3.759,3.759,0,1,1,6.766,3.276l-9.436,19.488a3.759,3.759,0,0,1-3.048,2.106C79.055,348.28,78.942,348.285,78.831,348.285Z" transform="translate(-66.754 -321.279)" fill="#6fd7a3"/>
          </g>
        </g>
        <g id="Group_1221759" data-name="Group 1221759" transform="translate(0 6.475)">
          <path id="Path_1171575" data-name="Path 1171575" d="M69.688,101.984H60.409a1.146,1.146,0,1,0,0,2.292h9.279a7.439,7.439,0,0,0,0-14.877H69.1a1.146,1.146,0,1,0,0,2.292h.584a5.147,5.147,0,1,1,0,10.293Z" transform="translate(-50.208 -76.729)"/>
          <path id="Path_1171576" data-name="Path 1171576" d="M233.061,96.835a7.447,7.447,0,0,0,7.439,7.439h9.279a1.146,1.146,0,0,0,0-2.292H240.5a5.147,5.147,0,1,1,0-10.294h.584a1.146,1.146,0,0,0,0-2.292H240.5A7.447,7.447,0,0,0,233.061,96.835Z" transform="translate(-197.451 -76.726)"/>
          <path id="Path_1171577" data-name="Path 1171577" d="M76.962,43.937a1.146,1.146,0,0,0-2.1.926A12.581,12.581,0,0,1,72.251,58.84L56.369,74.722a5.632,5.632,0,0,1-7.956,0L35.486,61.8l.641-1.324A4.9,4.9,0,0,0,29.5,53.96a12.7,12.7,0,0,1-.657-4.015,12.577,12.577,0,0,1,21.471-8.893l1.264,1.264a1.146,1.146,0,0,0,1.62,0l1.263-1.263a12.58,12.58,0,0,1,17.585-.2A1.146,1.146,0,0,0,73.633,39.2a14.8,14.8,0,0,0-10.43-4.12c-.281,0-.56.015-.839.033a9.746,9.746,0,0,0-9.575-11.533H51.423q.114-.19.216-.386A7.076,7.076,0,0,0,45.35,12.866H43.279A6.579,6.579,0,0,0,31.264,9.351a6.58,6.58,0,0,0-12.015,3.514H17.178a7.094,7.094,0,0,0-5.225,2.3,1.146,1.146,0,1,0,1.692,1.546,4.8,4.8,0,0,1,3.533-1.558h3.215a1.146,1.146,0,0,0,1.146-1.146v-.953a4.29,4.29,0,1,1,8.581,0V18.7a4.66,4.66,0,0,1-3.507-4.508,1.146,1.146,0,1,0-2.292,0,6.953,6.953,0,0,0,5.8,6.847V38.077a6.97,6.97,0,0,0-4.652-1.8h-.824a1.146,1.146,0,0,0,0,2.292h.824a4.683,4.683,0,0,1,4.082,2.424,14.755,14.755,0,0,0-2.995,8.951,15,15,0,0,0,1.1,5.63,4.9,4.9,0,0,0-.36.622l-1.027,2.121a6.31,6.31,0,0,1-2.536.523,6.391,6.391,0,0,1-6.385-6.376s0-.005,0-.008v-3.3a1.146,1.146,0,0,0-2.292,0v2.15H11.508a4.783,4.783,0,0,1-3.1-8.429h8.6a6.079,6.079,0,0,1,6.072,6.072v2.533a1.146,1.146,0,1,0,2.292,0V48.955a8.374,8.374,0,0,0-8.364-8.364H8.137A7.448,7.448,0,0,1,9.74,25.87h7.513a1.146,1.146,0,0,0,0-2.292H14.069a4.838,4.838,0,0,1-1.145-1.441,4.7,4.7,0,0,1-.482-1.507,1.146,1.146,0,0,0-2.269.322,6.979,6.979,0,0,0,.716,2.239q.1.2.216.387H9.74A9.74,9.74,0,0,0,5.869,42.255a7.1,7.1,0,0,0-1.438,4.272A7.077,7.077,0,0,0,11.508,53.6h3.626a8.649,8.649,0,0,0,9.817,7.44l-3.524,7.279-3.5-4.81a4.9,4.9,0,1,0-7.93,5.774l8.318,11.421a4.92,4.92,0,0,0,3.965,2.018c.153,0,.3-.007.437-.02a4.93,4.93,0,0,0,3.977-2.747l.492-1.016a1.146,1.146,0,0,0-2.063-1l-.492,1.016A2.63,2.63,0,0,1,22.5,80.423c-.07.007-.145.01-.225.01a2.622,2.622,0,0,1-2.113-1.075L11.847,67.937a2.613,2.613,0,0,1,4.225-3.075L20.7,71.216a1.146,1.146,0,0,0,1.958-.175l6.7-13.845a2.613,2.613,0,0,1,4.7,2.276L27.443,73.146a1.146,1.146,0,0,0,2.063,1L34.429,63.98,46.792,76.342a7.927,7.927,0,0,0,11.2,0L73.871,60.46a14.874,14.874,0,0,0,3.091-16.523ZM32.411,13.057a4.29,4.29,0,1,1,8.579,0v.955a1.146,1.146,0,0,0,1.146,1.146H45.35a4.791,4.791,0,0,1,4.787,4.785,4.719,4.719,0,0,1-.533,2.194,4.835,4.835,0,0,1-1.146,1.441H45.276a1.146,1.146,0,1,0,0,2.292h7.514a7.45,7.45,0,0,1,7.129,9.606,14.786,14.786,0,0,0-7.075,3.955l-.453.453-.453-.453a14.89,14.89,0,0,0-19.527-1.308V21.034a6.953,6.953,0,0,0,5.8-6.847,1.146,1.146,0,0,0-2.292,0A4.659,4.659,0,0,1,32.411,18.7Z" transform="translate(0 -6.475)"/>
        </g>
      </g>
    </g>
  </g>
</svg>
