<svg xmlns="http://www.w3.org/2000/svg" xmlns:xlink="http://www.w3.org/1999/xlink" width="103" height="103" viewBox="0 0 103 103">
  <defs>
    <filter id="Path_978624" x="0" y="0" width="103" height="103" filterUnits="userSpaceOnUse">
      <feOffset dy="3" input="SourceAlpha"/>
      <feGaussianBlur stdDeviation="3" result="blur"/>
      <feFlood flood-opacity="0.161"/>
      <feComposite operator="in" in2="blur"/>
      <feComposite in="SourceGraphic"/>
    </filter>
  </defs>
  <g id="Group_1222544" data-name="Group 1222544" transform="translate(-164.789 -4921.5)">
    <g id="Group_1221761" data-name="Group 1221761">
      <g id="Group_1221007" data-name="Group 1221007" transform="translate(0 2394)">
        <g id="Group_1208651" data-name="Group 1208651" transform="translate(-0.711 1469.5)">
          <g id="Group_1178144" data-name="Group 1178144" transform="translate(-19.5 -2004)">
            <g id="Group_1177896" data-name="Group 1177896" transform="translate(14 196)">
              <g id="Group_1176881" data-name="Group 1176881">
                <g id="Group_1175148" data-name="Group 1175148" transform="translate(0 1580)">
                  <g id="Group_1173798" data-name="Group 1173798" transform="translate(-3 -3520)">
                    <g id="Group_1171925" data-name="Group 1171925" transform="translate(-22 -2246)">
                      <g id="Group_1164524" data-name="Group 1164524" transform="translate(205 7058)">
                        <g id="Group_1144123" data-name="Group 1144123">
                          <g transform="matrix(1, 0, 0, 1, -9, -6)" filter="url(#Path_978624)">
                            <g id="Path_978624-2" data-name="Path 978624" transform="translate(9 6)" fill="#fff6f9">
                              <path d="M 42.5 83.5 C 36.96437835693359 83.5 31.59512901306152 82.41617584228516 26.54141235351562 80.27863311767578 C 21.65934181213379 78.21369171142578 17.27447128295898 75.25723266601562 13.50862312316895 71.49137878417969 C 9.742764472961426 67.72553253173828 6.786305904388428 63.34066009521484 4.721364498138428 58.45858764648438 C 2.583823442459106 53.40486907958984 1.5 48.03562164306641 1.5 42.5 C 1.5 36.96437835693359 2.583823442459106 31.59512901306152 4.721364498138428 26.54141235351562 C 6.786305904388428 21.65934181213379 9.742764472961426 17.27447128295898 13.50862312316895 13.50862312316895 C 17.27447128295898 9.742764472961426 21.65934181213379 6.786305904388428 26.54141235351562 4.721364498138428 C 31.59512901306152 2.583823442459106 36.96437835693359 1.5 42.5 1.5 C 48.03562164306641 1.5 53.40486907958984 2.583823442459106 58.45858764648438 4.721364498138428 C 63.34066009521484 6.786305904388428 67.72553253173828 9.742764472961426 71.49137878417969 13.50862312316895 C 75.25723266601562 17.27447128295898 78.21369171142578 21.65934181213379 80.27863311767578 26.54141235351562 C 82.41617584228516 31.59512901306152 83.5 36.96437835693359 83.5 42.5 C 83.5 48.03562164306641 82.41617584228516 53.40486907958984 80.27863311767578 58.45858764648438 C 78.21369171142578 63.34066009521484 75.25723266601562 67.72553253173828 71.49137878417969 71.49137878417969 C 67.72553253173828 75.25723266601562 63.34066009521484 78.21369171142578 58.45858764648438 80.27863311767578 C 53.40486907958984 82.41617584228516 48.03562164306641 83.5 42.5 83.5 Z" stroke="none"/>
                              <path d="M 42.5 3 C 37.16621398925781 3 31.99356079101562 4.043960571289062 27.125732421875 6.102882385253906 C 22.42246627807617 8.092185974121094 18.19785308837891 10.94070434570312 14.56928253173828 14.56928253173828 C 10.94070434570312 18.19785308837891 8.092185974121094 22.42246627807617 6.102882385253906 27.125732421875 C 4.043960571289062 31.99356079101562 3 37.16621398925781 3 42.5 C 3 47.83378601074219 4.043960571289062 53.00643920898438 6.102882385253906 57.87425231933594 C 8.092185974121094 62.57753372192383 10.94070434570312 66.80213165283203 14.56928253173828 70.43071746826172 C 18.19786834716797 74.05929565429688 22.42246627807617 76.90781402587891 27.125732421875 78.89711761474609 C 31.99356079101562 80.95603942871094 37.16621398925781 82 42.5 82 C 47.83378601074219 82 53.00642395019531 80.95603942871094 57.87425231933594 78.89711761474609 C 62.57753372192383 76.90781402587891 66.80213165283203 74.05929565429688 70.43071746826172 70.43071746826172 C 74.05929565429688 66.80213165283203 76.90781402587891 62.57753372192383 78.89711761474609 57.87425231933594 C 80.95603942871094 53.00642395019531 82 47.83378601074219 82 42.5 C 82 37.16621398925781 80.95603942871094 31.99356079101562 78.89711761474609 27.125732421875 C 76.90781402587891 22.42246627807617 74.05929565429688 18.19786834716797 70.43071746826172 14.56928253173828 C 66.80213165283203 10.94070434570312 62.57753372192383 8.092185974121094 57.87425231933594 6.102882385253906 C 53.00643920898438 4.043960571289062 47.83378601074219 3 42.5 3 M 42.5 0 C 65.97209167480469 0 85 19.02789306640625 85 42.5 C 85 65.97209167480469 65.97209167480469 85 42.5 85 C 19.02789306640625 85 0 65.97209167480469 0 42.5 C 0 19.02789306640625 19.02789306640625 0 42.5 0 Z" stroke="none" fill="#ffadcc"/>
                            </g>
                          </g>
                        </g>
                      </g>
                    </g>
                  </g>
                </g>
              </g>
            </g>
          </g>
        </g>
      </g>
      <g id="Layer_2" data-name="Layer 2" transform="translate(184.29 4938)">
        <path id="Path_1171578" data-name="Path 1171578" d="M32,3h0A24.213,24.213,0,0,0,8.03,23.789L7,31H57l-1.03-7.211A24.213,24.213,0,0,0,32,3Z" fill="#f8c460"/>
        <path id="Path_1171579" data-name="Path 1171579" d="M17.284,28a6.318,6.318,0,0,1-6.254-7.211h0A24.118,24.118,0,0,1,16.449,8.672,24.149,24.149,0,0,0,8.03,23.789L7,31H57l-.429-3Z" fill="#faaf42"/>
        <path id="Path_1171580" data-name="Path 1171580" d="M34.284,27H29.716a2,2,0,0,1-1.977-1.7L24.709,5.6A4,4,0,0,1,28.662,1h6.676a4,4,0,0,1,3.953,4.608l-3.03,19.7A2,2,0,0,1,34.284,27Z" fill="#faaf42"/>
        <rect id="Rectangle_420061" data-name="Rectangle 420061" width="58" height="6" rx="3" transform="translate(3 31)" fill="#f8c460"/>
        <path id="Path_1171581" data-name="Path 1171581" d="M6,34a3,3,0,0,1,3-3H6a3,3,0,0,0,0,6H9A3,3,0,0,1,6,34Z" fill="#faaf42"/>
        <path id="Path_1171582" data-name="Path 1171582" d="M59,39V37H46.95a14.982,14.982,0,0,1-29.9,0H5v2l4.271.534a22.839,22.839,0,0,0,1.28,4.769L7.117,46.9l3,5.2,3.972-1.676a23.112,23.112,0,0,0,3.489,3.489L15.9,57.883l5.2,3,2.6-3.434a22.839,22.839,0,0,0,4.769,1.28L29,63h6l.534-4.271a22.839,22.839,0,0,0,4.769-1.28l2.6,3.434,5.2-3-1.676-3.972a23.112,23.112,0,0,0,3.489-3.489L53.883,52.1l3-5.2-3.434-2.6a22.839,22.839,0,0,0,1.28-4.769Z" fill="#d6e4e8"/>
        <path id="Path_1171583" data-name="Path 1171583" d="M46.436,40h8.208c.028-.156.061-.309.085-.466L59,39V37H46.95a15.053,15.053,0,0,1-.514,3Z" fill="#baced3"/>
        <path id="Path_1171584" data-name="Path 1171584" d="M17.05,37H5v2l4.271.534c.024.157.057.31.085.466h8.208a15.053,15.053,0,0,1-.514-3Z" fill="#baced3"/>
        <path id="Path_1171585" data-name="Path 1171585" d="M62,34a4,4,0,0,0-4-4h-.133l-.908-6.353A25.35,25.35,0,0,0,40.042,3.325,4.973,4.973,0,0,0,35.337,0H28.663a4.973,4.973,0,0,0-4.705,3.325A25.35,25.35,0,0,0,7.041,23.647L6.133,30H6a3.987,3.987,0,0,0-2,7.444V39a1,1,0,0,0,.876.992l3.534.442a23.922,23.922,0,0,0,.946,3.519L6.514,46.1a1,1,0,0,0-.263,1.3l3,5.2a1,1,0,0,0,1.255.422l3.294-1.39a24.227,24.227,0,0,0,2.573,2.573L14.98,57.494a1,1,0,0,0,.422,1.255l5.2,3a1,1,0,0,0,1.3-.263l2.151-2.842a23.922,23.922,0,0,0,3.519.946l.442,3.534A1,1,0,0,0,29,64h6a1,1,0,0,0,.992-.876l.442-3.534a23.922,23.922,0,0,0,3.519-.946L42.1,61.486a1,1,0,0,0,1.3.263l5.2-3a1,1,0,0,0,.422-1.255L47.634,54.2a24.041,24.041,0,0,0,2.573-2.573L53.5,53.02a1,1,0,0,0,1.255-.422l3-5.2a1,1,0,0,0-.263-1.3l-2.842-2.151a23.922,23.922,0,0,0,.946-3.519l3.534-.442A1,1,0,0,0,60,39V37.444A3.987,3.987,0,0,0,62,34ZM26.386,3.046A3,3,0,0,1,28.663,2h6.674A3,3,0,0,1,38.3,5.457l-3.031,19.7a.993.993,0,0,1-.988.848H29.716a.993.993,0,0,1-.988-.848L25.7,5.457a3,3,0,0,1,.686-2.411ZM9.02,23.931A23.35,23.35,0,0,1,23.7,5.541c.008.073.01.146.022.219l3.03,19.7A2.984,2.984,0,0,0,29.716,28h4.568a2.984,2.984,0,0,0,2.965-2.544l3.03-19.7c.012-.073.014-.146.022-.219A23.35,23.35,0,0,1,54.98,23.931L55.847,30H8.153ZM58,38.117l-3.4.425a1,1,0,0,0-.864.839,21.888,21.888,0,0,1-1.225,4.56A1,1,0,0,0,52.84,45.1l2.73,2.067-2.117,3.666L50.3,49.5a1,1,0,0,0-1.167.293,22.185,22.185,0,0,1-3.333,3.34,1,1,0,0,0-.3,1.167l1.332,3.158-3.666,2.117L41.1,56.845a1,1,0,0,0-1.159-.329,21.888,21.888,0,0,1-4.56,1.225,1,1,0,0,0-.839.864L34.117,62H29.883l-.425-3.4a1,1,0,0,0-.839-.864,21.888,21.888,0,0,1-4.56-1.225,1,1,0,0,0-1.159.329l-2.067,2.73-3.666-2.117L18.5,54.3a1,1,0,0,0-.293-1.167,22.146,22.146,0,0,1-3.339-3.339A1,1,0,0,0,13.7,49.5l-3.158,1.332L8.425,47.167l2.73-2.067a1,1,0,0,0,.329-1.159,21.888,21.888,0,0,1-1.225-4.56,1,1,0,0,0-.864-.839L6,38.117V38H16.16a15.961,15.961,0,0,0,31.68,0H58ZM18.171,38H45.829a13.968,13.968,0,0,1-27.658,0ZM58,36H6a2,2,0,0,1,0-4H58a2,2,0,0,1,0,4Z"/>
      </g>
    </g>
  </g>
</svg>
