<svg xmlns="http://www.w3.org/2000/svg" xmlns:xlink="http://www.w3.org/1999/xlink" width="93.934" height="93.934" viewBox="0 0 93.934 93.934">
  <defs>
    <filter id="Path_982547" x="0" y="0" width="93.934" height="93.934" filterUnits="userSpaceOnUse">
      <feOffset dy="3" input="SourceAlpha"/>
      <feGaussianBlur stdDeviation="3" result="blur"/>
      <feFlood flood-opacity="0.161"/>
      <feComposite operator="in" in2="blur"/>
      <feComposite in="SourceGraphic"/>
    </filter>
  </defs>
  <g id="Group_1222564" data-name="Group 1222564" transform="translate(-823.066 -3329)">
    <g id="Group_1222483" data-name="Group 1222483">
      <g id="Group_1221061" data-name="Group 1221061" transform="translate(212 2134.303)">
        <g id="Group_1215985" data-name="Group 1215985" transform="translate(-0.229 -2679.151)">
          <g id="Group_1214663" data-name="Group 1214663" transform="translate(0 -1254.151)">
            <g id="Group_1214433" data-name="Group 1214433" transform="translate(-0.771 -2738.674)">
              <g id="Group_1183190" data-name="Group 1183190" transform="translate(1 1016.674)">
                <g id="Group_1179611" data-name="Group 1179611" transform="translate(428 4723.467)">
                  <g id="Group_1175227" data-name="Group 1175227" transform="translate(-5.967 140.533)">
                    <g id="Group_1167337" data-name="Group 1167337" transform="translate(198.033 1992)">
                      <g id="Group_1166720" data-name="Group 1166720">
                        <g id="Group_1164305" data-name="Group 1164305">
                          <g id="Group_1163948" data-name="Group 1163948">
                            <g id="Group_1158168" data-name="Group 1158168">
                              <g id="Group_1152576" data-name="Group 1152576">
                                <g id="Group_1148633" data-name="Group 1148633">
                                  <g id="Group_1148525" data-name="Group 1148525">
                                    <g transform="matrix(1, 0, 0, 1, -9, -6)" filter="url(#Path_982547)">
                                      <g id="Path_982547-2" data-name="Path 982547" transform="translate(9 6)" fill="#f7fbfc">
                                        <path d="M 37.966796875 74.43359375 C 33.04315185546875 74.43359375 28.26757431030273 73.46962738037109 23.77274131774902 71.56847381591797 C 19.43047523498535 69.73184967041016 15.53040790557861 67.10224914550781 12.18087482452393 63.75271987915039 C 8.831341743469238 60.4031867980957 6.201741218566895 56.50312042236328 4.365118980407715 52.16086196899414 C 2.463963508605957 47.66601943969727 1.499996900558472 42.89044189453125 1.499996900558472 37.966796875 C 1.499996900558472 33.04315185546875 2.463963508605957 28.26757431030273 4.365118980407715 23.77274131774902 C 6.201741218566895 19.43047523498535 8.831341743469238 15.53040790557861 12.18087482452393 12.18087482452393 C 15.53040790557861 8.831341743469238 19.43047523498535 6.201741218566895 23.77274131774902 4.365118980407715 C 28.26757431030273 2.463963508605957 33.04315185546875 1.499996900558472 37.966796875 1.499996900558472 C 42.89044189453125 1.499996900558472 47.66601943969727 2.463963508605957 52.16086196899414 4.365118980407715 C 56.50312042236328 6.201741218566895 60.4031867980957 8.831341743469238 63.75271987915039 12.18087482452393 C 67.10224914550781 15.53040790557861 69.73184967041016 19.43047523498535 71.56847381591797 23.77274131774902 C 73.46962738037109 28.26757431030273 74.43359375 33.04315185546875 74.43359375 37.966796875 C 74.43359375 42.89044189453125 73.46962738037109 47.66601943969727 71.56847381591797 52.16086196899414 C 69.73184967041016 56.50313186645508 67.10224914550781 60.4031867980957 63.75271987915039 63.75271987915039 C 60.4031867980957 67.10224914550781 56.50313186645508 69.73184967041016 52.16086196899414 71.56847381591797 C 47.66601943969727 73.46962738037109 42.89044189453125 74.43359375 37.966796875 74.43359375 Z" stroke="none"/>
                                        <path d="M 37.966796875 3 C 33.2449836730957 3 28.66600799560547 3.924095153808594 24.35705947875977 5.746635437011719 C 20.19359588623047 7.507637023925781 16.45379638671875 10.02928161621094 13.24153518676758 13.24153518676758 C 10.02927398681641 16.45379638671875 7.507621765136719 20.19359588623047 5.746635437011719 24.35705947875977 C 3.924095153808594 28.66600799560547 3 33.2449836730957 3 37.966796875 C 3 42.6886100769043 3.924095153808594 47.26758575439453 5.746635437011719 51.57653427124023 C 7.507621765136719 55.73999786376953 10.02927398681641 59.47979736328125 13.24153518676758 62.69205856323242 C 16.45379638671875 65.90431976318359 20.19359588623047 68.42597198486328 24.35705947875977 70.18695831298828 C 28.66600799560547 72.00949859619141 33.2449836730957 72.93359375 37.966796875 72.93359375 C 42.6886100769043 72.93359375 47.26758575439453 72.00949859619141 51.57653427124023 70.18695831298828 C 55.73999786376953 68.42597198486328 59.47979736328125 65.90431976318359 62.69205856323242 62.69205856323242 C 65.90431976318359 59.47979736328125 68.42597198486328 55.73999786376953 70.18695831298828 51.57653427124023 C 72.00949859619141 47.26758575439453 72.93359375 42.6886100769043 72.93359375 37.966796875 C 72.93359375 33.2449836730957 72.00949859619141 28.66600799560547 70.18695831298828 24.35705947875977 C 68.42597198486328 20.19359588623047 65.90431976318359 16.45379638671875 62.69205856323242 13.24153518676758 C 59.47979736328125 10.02928161621094 55.73999786376953 7.507637023925781 51.57653427124023 5.746635437011719 C 47.26758575439453 3.924095153808594 42.6886100769043 3 37.966796875 3 M 37.966796875 0 C 58.93528366088867 0 75.93359375 16.99832153320312 75.93359375 37.966796875 C 75.93359375 58.93528366088867 58.93528366088867 75.93359375 37.966796875 75.93359375 C 16.99831008911133 75.93359375 0 58.93528366088867 0 37.966796875 C 0 16.99832153320312 16.99831008911133 0 37.966796875 0 Z" stroke="none" fill="#62797e"/>
                                      </g>
                                    </g>
                                  </g>
                                </g>
                              </g>
                            </g>
                          </g>
                        </g>
                      </g>
                    </g>
                  </g>
                </g>
              </g>
            </g>
          </g>
        </g>
      </g>
      <g id="estres_1_" data-name="estres (1)" transform="translate(843.255 3351.255)">
        <g id="Group_1222481" data-name="Group 1222481" transform="translate(0.948 0.948)">
          <g id="Group_1222479" data-name="Group 1222479">
            <path id="Path_1172258" data-name="Path 1172258" d="M72.695,258.86a6.808,6.808,0,0,1-11.66-6.1.524.524,0,0,0-.243-.569,7.341,7.341,0,0,1-3.445-7.77H77.02Z" transform="translate(-50.915 -214.457)" fill="#fe93cd"/>
            <path id="Path_1172259" data-name="Path 1172259" d="M179.692,312.4h-4.985a9.429,9.429,0,0,1-9.37-8.38v-2.641h17.037Z" transform="translate(-145.379 -264.219)" fill="#f75574"/>
            <path id="Path_1172260" data-name="Path 1172260" d="M257.807,318.553h-5.512l.48,3.324.169,1.169a11.226,11.226,0,0,0-.238,4.357h2.948Z" transform="translate(-221.339 -279.219)" fill="#f3395e"/>
            <path id="Path_1172261" data-name="Path 1172261" d="M278.021,343.3c-2.095,7.332,4.382,8.931,7.332,11.522,3.309,2.907,4,5.8,4.151,6.882a.522.522,0,0,0,.518.45h6.265a.524.524,0,0,0,.52-.591,24.045,24.045,0,0,0-4.123-9.884V341.553H277.768Z" transform="translate(-243.454 -299.31)" fill="#f75574"/>
            <path id="Path_1172262" data-name="Path 1172262" d="M380.848,361.568a24.045,24.045,0,0,0-4.123-9.884V341.553h-2.908v9.709a25.506,25.506,0,0,1,4.123,10.282.538.538,0,0,1-.52.614h2.908A.524.524,0,0,0,380.848,361.568Z" transform="translate(-327.494 -299.31)" fill="#f3395e"/>
            <path id="Path_1172263" data-name="Path 1172263" d="M328.582,351.032V350.4h11.908v.632a2.1,2.1,0,0,1,1.743.933,4.2,4.2,0,0,1,.107,4.487,6.1,6.1,0,0,1-5.228,2.96H335.16a11.471,11.471,0,0,1-7.166-2.514,4.181,4.181,0,0,1-1.444-4.279,2.1,2.1,0,0,1,2.032-1.587Z" transform="translate(-286.094 -307.038)" fill="#fe93cd"/>
            <path id="Path_1172264" data-name="Path 1172264" d="M398.8,351.965a2.1,2.1,0,0,0-1.743-.933V350.4h-2.908v.632a2.1,2.1,0,0,1,1.743.933,4.2,4.2,0,0,1,.107,4.487,6.1,6.1,0,0,1-4.818,2.946c.182.009.364.014.547.014h1.951a6.1,6.1,0,0,0,5.228-2.96A4.2,4.2,0,0,0,398.8,351.965Z" transform="translate(-342.662 -307.038)" fill="#f576bc"/>
            <path id="Path_1172265" data-name="Path 1172265" d="M158.836,101.95a5.239,5.239,0,0,0-.84-8.732.392.392,0,0,1-.157-.549,6.285,6.285,0,0,0-8.655-8.575,4.189,4.189,0,0,0-6.527-4.308,8.379,8.379,0,0,0-12.695-4.606l-.718,11.158H111.05V98.5a6.809,6.809,0,0,0,12.381,3.79h.015a5.076,5.076,0,0,0-.35,1.951,5.237,5.237,0,0,0,5.236,5.135H155.48a4.246,4.246,0,0,0,4.275-4.119,4.171,4.171,0,0,0-.981-2.765A.384.384,0,0,1,158.836,101.95Z" transform="translate(-97.956 -65.387)" fill="#fea9d7"/>
            <path id="Path_1172266" data-name="Path 1172266" d="M434.589,167.073a5.239,5.239,0,0,0-.84-8.732.392.392,0,0,1-.157-.549,6.285,6.285,0,0,0-6.871-9.3,6.284,6.284,0,0,1,3.962,9.3.392.392,0,0,0,.157.549,5.239,5.239,0,0,1,.84,8.732.384.384,0,0,0-.061.547,4.172,4.172,0,0,1,.981,2.765,4.246,4.246,0,0,1-4.275,4.119h2.908a4.246,4.246,0,0,0,4.275-4.119,4.171,4.171,0,0,0-.981-2.765A.383.383,0,0,1,434.589,167.073Z" transform="translate(-373.708 -130.51)" fill="#fe93cd"/>
            <g id="Group_1222478" data-name="Group 1222478">
              <path id="Path_1172267" data-name="Path 1172267" d="M24.332,41.394l5.273-1.48,7.9-6.608,2.647-12.829-7.3-9.4L24.881,8H22.805a16.759,16.759,0,0,0,0,33.392Z" transform="translate(-7.5 -7.939)" fill="#eaebeb"/>
              <path id="Path_1172268" data-name="Path 1172268" d="M129.987,7.5c-.49,0-.975.022-1.454.063a16.759,16.759,0,0,1,0,33.392c.479.041.964.063,1.454.063a16.76,16.76,0,1,0,0-33.519Z" transform="translate(-113.228 -7.5)" fill="#d8dcdc"/>
            </g>
          </g>
          <path id="Path_1172269" data-name="Path 1172269" d="M85.7,57.2H95.754a.573.573,0,0,1,.513.83l-3.758,7.516a.573.573,0,0,0,.513.83h3.347a1.147,1.147,0,0,1,.845,1.922L88.357,77.96a.573.573,0,0,1-.96-.589l2.112-5.632a.573.573,0,0,0-.537-.775h-4.7a1.147,1.147,0,0,1-1.131-1.335l1.992-11.949A.573.573,0,0,1,85.7,57.2Z" transform="translate(-73.562 -50.915)" fill="#ffe751"/>
          <g id="Group_1222480" data-name="Group 1222480" transform="translate(13.796 6.285)">
            <path id="Path_1172270" data-name="Path 1172270" d="M125.607,129.76h-2.92a1.147,1.147,0,0,1,.845,1.922l-5.913,6.45-.984,2.623a.573.573,0,0,0,.96.589l8.857-9.662A1.147,1.147,0,0,0,125.607,129.76Z" transform="translate(-116.596 -120.584)" fill="#ffc738"/>
            <path id="Path_1172271" data-name="Path 1172271" d="M139.983,57.2h-2.92a.573.573,0,0,1,.513.83l-3.758,7.516a.573.573,0,0,0,.513.83h2.92a.573.573,0,0,1-.513-.83L140.5,58.03A.573.573,0,0,0,139.983,57.2Z" transform="translate(-131.586 -57.2)" fill="#ffc738"/>
          </g>
        </g>
        <g id="Group_1222482" data-name="Group 1222482" transform="translate(0 0)">
          <path id="Path_1172272" data-name="Path 1172272" d="M90.5,50.422A1.512,1.512,0,0,0,89.2,49.7H79.148a1.517,1.517,0,0,0-1.5,1.272L75.655,62.92a2.1,2.1,0,0,0,2.067,2.44h4.159l-1.922,5.126a1.506,1.506,0,0,0,.629,1.832,1.528,1.528,0,0,0,.8.229,1.511,1.511,0,0,0,1.117-.5l8.857-9.662a2.1,2.1,0,0,0-1.545-3.511h-2.74L90.565,51.9a1.512,1.512,0,0,0-.067-1.481ZM85.11,58.57a1.522,1.522,0,0,0,1.361,2.2h3.347a.2.2,0,0,1,.146.333l-7.551,8.237,1.433-3.823a1.522,1.522,0,0,0-1.425-2.056h-4.7a.2.2,0,0,1-.2-.231L79.465,51.6H88.6Z" transform="translate(-66.063 -43.415)"/>
          <path id="Path_1172273" data-name="Path 1172273" d="M267.255,223.65a.948.948,0,1,0,0,1.9,4.289,4.289,0,0,1,0,8.578H249.448a.948.948,0,0,0,0,1.9h17.807a6.186,6.186,0,0,0,0-12.372Z" transform="translate(-217.076 -195.368)"/>
          <path id="Path_1172274" data-name="Path 1172274" d="M64.745,33.42a6.17,6.17,0,0,0-2.831-5.2,7.236,7.236,0,0,0-8.726-10.064,5.175,5.175,0,0,0-7.024-4.169A9.387,9.387,0,0,0,37.61,8.38a9.284,9.284,0,0,0-4.263,1.03A17.724,17.724,0,0,0,17.708,0,17.545,17.545,0,0,0,6.948,3.643.948.948,0,1,0,8.1,5.148,15.664,15.664,0,0,1,17.708,1.9,15.811,15.811,0,1,1,1.9,17.708,15.662,15.662,0,0,1,5.166,8.079a.948.948,0,0,0-1.5-1.156,17.7,17.7,0,0,0,2.7,24.366,8.257,8.257,0,0,0,3.724,8.045,7.76,7.76,0,0,0,12.558,7.4,10.359,10.359,0,0,0,7.637,3.344h4.286a7.194,7.194,0,0,0,.96,1.827.948.948,0,0,0,1.538-1.11,5.778,5.778,0,0,1-.807-4.907h4.364a3.049,3.049,0,0,0-.136.408,5.143,5.143,0,0,0,1.772,5.25,12.465,12.465,0,0,0,7.427,2.714,23.34,23.34,0,0,1,3.608,8.585H47.879a12.747,12.747,0,0,0-4.405-7.1,20.042,20.042,0,0,0-2.5-1.758c-.272-.172-.548-.347-.823-.526a.948.948,0,0,0-1.035,1.59c.282.184.565.363.843.539a18.772,18.772,0,0,1,2.261,1.58c3.06,2.688,3.7,5.3,3.837,6.3a1.475,1.475,0,0,0,1.458,1.272h6.265a1.472,1.472,0,0,0,1.46-1.664,23.769,23.769,0,0,0-3.3-8.811h.022a7.081,7.081,0,0,0,6.042-3.421,5.169,5.169,0,0,0,.181-4.959h.286A5.206,5.206,0,0,0,63.7,40.839,5.138,5.138,0,0,0,62.83,37.9a6.156,6.156,0,0,0,1.915-4.476Zm-47.037,2a17.6,17.6,0,0,0,7.664-1.746,5.088,5.088,0,0,0,1.94,1.379c-.139.119-.274.243-.4.374a6.213,6.213,0,0,0-1.289,1.925,5.859,5.859,0,0,1-10.486-2.119,17.78,17.78,0,0,0,2.574.188Zm-.2,11.193a5.859,5.859,0,0,1-5.519-7.153,1.47,1.47,0,0,0-.684-1.594A6.419,6.419,0,0,1,8.19,32.635a17.622,17.622,0,0,0,4.952,2.183,7.759,7.759,0,0,0,6.946,6.846,10.314,10.314,0,0,0,1.4,3.564,5.856,5.856,0,0,1-3.975,1.381Zm16.661,1.574h-3.9a8.463,8.463,0,0,1-8.262-6.571,7.773,7.773,0,0,0,3.162-1.233,6.22,6.22,0,0,0,6.148,5.511h3a9.234,9.234,0,0,0-.147,2.293Zm22.206,1.69a5.175,5.175,0,0,1-4.415,2.5H50.014a10.561,10.561,0,0,1-6.574-2.306,3.241,3.241,0,0,1-1.117-3.309,1.145,1.145,0,0,1,1.112-.868H55.343a1.144,1.144,0,0,1,.954.511A3.262,3.262,0,0,1,56.38,49.874Zm4.662-11.2a3.239,3.239,0,0,1,.758,2.139,3.3,3.3,0,0,1-3.327,3.186H31.325a4.31,4.31,0,0,1-4.288-4.2,4.2,4.2,0,0,1,1.226-3.038,4.464,4.464,0,0,1,3.165-1.335H47.037a.948.948,0,1,0,0-1.9H29.23a3.22,3.22,0,0,1-2.136-.8,17.852,17.852,0,0,0,4.748-4.354,3.228,3.228,0,0,1,.527,1.1.948.948,0,0,0,1.837-.473,5.147,5.147,0,0,0-1.264-2.268,17.589,17.589,0,0,0,2.177-5.786,3.742,3.742,0,0,1,2.546,3,.948.948,0,0,0,1.587.548,2.194,2.194,0,1,1,1.5,3.794.948.948,0,0,0,0,1.9,4.091,4.091,0,1,0-1.587-7.862,5.627,5.627,0,0,0-3.8-3.279q.049-.658.05-1.329a17.612,17.612,0,0,0-1.267-6.576,7.393,7.393,0,0,1,3.461-.855,7.475,7.475,0,0,1,6.934,4.76,5.123,5.123,0,0,0-1.6,3.719.948.948,0,1,0,1.9,0A3.241,3.241,0,1,1,48.085,22a.948.948,0,0,0,0,1.9,5.147,5.147,0,0,0,4.9-3.606,5.336,5.336,0,0,1,7.026,7.46,1.341,1.341,0,0,0,.533,1.871,4.29,4.29,0,0,1,.688,7.152,1.35,1.35,0,0,0-.5.916,1.313,1.313,0,0,0,.3.982Z" transform="translate(0 0)"/>
        </g>
      </g>
    </g>
  </g>
</svg>
