<svg xmlns="http://www.w3.org/2000/svg" xmlns:xlink="http://www.w3.org/1999/xlink" width="93.934" height="93.934" viewBox="0 0 93.934 93.934">
  <defs>
    <filter id="Path_982547" x="0" y="0" width="93.934" height="93.934" filterUnits="userSpaceOnUse">
      <feOffset dy="3" input="SourceAlpha"/>
      <feGaussianBlur stdDeviation="3" result="blur"/>
      <feFlood flood-opacity="0.161"/>
      <feComposite operator="in" in2="blur"/>
      <feComposite in="SourceGraphic"/>
    </filter>
  </defs>
  <g id="Group_1222563" data-name="Group 1222563" transform="translate(-193.066 -3329.533)">
    <g id="Group_1222477" data-name="Group 1222477">
      <g id="Group_1221060" data-name="Group 1221060" transform="translate(-418 2134.836)">
        <g id="Group_1215985" data-name="Group 1215985" transform="translate(-0.229 -2679.151)">
          <g id="Group_1214663" data-name="Group 1214663" transform="translate(0 -1254.151)">
            <g id="Group_1214433" data-name="Group 1214433" transform="translate(-0.771 -2738.674)">
              <g id="Group_1183190" data-name="Group 1183190" transform="translate(1 1016.674)">
                <g id="Group_1179611" data-name="Group 1179611" transform="translate(428 4723.467)">
                  <g id="Group_1175227" data-name="Group 1175227" transform="translate(-5.967 140.533)">
                    <g id="Group_1167337" data-name="Group 1167337" transform="translate(198.033 1992)">
                      <g id="Group_1166720" data-name="Group 1166720">
                        <g id="Group_1164305" data-name="Group 1164305">
                          <g id="Group_1163948" data-name="Group 1163948">
                            <g id="Group_1158168" data-name="Group 1158168">
                              <g id="Group_1152576" data-name="Group 1152576">
                                <g id="Group_1148633" data-name="Group 1148633">
                                  <g id="Group_1148525" data-name="Group 1148525">
                                    <g transform="matrix(1, 0, 0, 1, -9, -6)" filter="url(#Path_982547)">
                                      <g id="Path_982547-2" data-name="Path 982547" transform="translate(9 6)" fill="#f7fbfc">
                                        <path d="M 37.966796875 74.43359375 C 33.04315185546875 74.43359375 28.26757431030273 73.46962738037109 23.77274131774902 71.56847381591797 C 19.43047523498535 69.73184967041016 15.53040790557861 67.10224914550781 12.18087482452393 63.75271987915039 C 8.831341743469238 60.4031867980957 6.201741218566895 56.50312042236328 4.365118980407715 52.16086196899414 C 2.463963508605957 47.66601943969727 1.499996900558472 42.89044189453125 1.499996900558472 37.966796875 C 1.499996900558472 33.04315185546875 2.463963508605957 28.26757431030273 4.365118980407715 23.77274131774902 C 6.201741218566895 19.43047523498535 8.831341743469238 15.53040790557861 12.18087482452393 12.18087482452393 C 15.53040790557861 8.831341743469238 19.43047523498535 6.201741218566895 23.77274131774902 4.365118980407715 C 28.26757431030273 2.463963508605957 33.04315185546875 1.499996900558472 37.966796875 1.499996900558472 C 42.89044189453125 1.499996900558472 47.66601943969727 2.463963508605957 52.16086196899414 4.365118980407715 C 56.50312042236328 6.201741218566895 60.4031867980957 8.831341743469238 63.75271987915039 12.18087482452393 C 67.10224914550781 15.53040790557861 69.73184967041016 19.43047523498535 71.56847381591797 23.77274131774902 C 73.46962738037109 28.26757431030273 74.43359375 33.04315185546875 74.43359375 37.966796875 C 74.43359375 42.89044189453125 73.46962738037109 47.66601943969727 71.56847381591797 52.16086196899414 C 69.73184967041016 56.50313186645508 67.10224914550781 60.4031867980957 63.75271987915039 63.75271987915039 C 60.4031867980957 67.10224914550781 56.50313186645508 69.73184967041016 52.16086196899414 71.56847381591797 C 47.66601943969727 73.46962738037109 42.89044189453125 74.43359375 37.966796875 74.43359375 Z" stroke="none"/>
                                        <path d="M 37.966796875 3 C 33.2449836730957 3 28.66600799560547 3.924095153808594 24.35705947875977 5.746635437011719 C 20.19359588623047 7.507637023925781 16.45379638671875 10.02928161621094 13.24153518676758 13.24153518676758 C 10.02927398681641 16.45379638671875 7.507621765136719 20.19359588623047 5.746635437011719 24.35705947875977 C 3.924095153808594 28.66600799560547 3 33.2449836730957 3 37.966796875 C 3 42.6886100769043 3.924095153808594 47.26758575439453 5.746635437011719 51.57653427124023 C 7.507621765136719 55.73999786376953 10.02927398681641 59.47979736328125 13.24153518676758 62.69205856323242 C 16.45379638671875 65.90431976318359 20.19359588623047 68.42597198486328 24.35705947875977 70.18695831298828 C 28.66600799560547 72.00949859619141 33.2449836730957 72.93359375 37.966796875 72.93359375 C 42.6886100769043 72.93359375 47.26758575439453 72.00949859619141 51.57653427124023 70.18695831298828 C 55.73999786376953 68.42597198486328 59.47979736328125 65.90431976318359 62.69205856323242 62.69205856323242 C 65.90431976318359 59.47979736328125 68.42597198486328 55.73999786376953 70.18695831298828 51.57653427124023 C 72.00949859619141 47.26758575439453 72.93359375 42.6886100769043 72.93359375 37.966796875 C 72.93359375 33.2449836730957 72.00949859619141 28.66600799560547 70.18695831298828 24.35705947875977 C 68.42597198486328 20.19359588623047 65.90431976318359 16.45379638671875 62.69205856323242 13.24153518676758 C 59.47979736328125 10.02928161621094 55.73999786376953 7.507637023925781 51.57653427124023 5.746635437011719 C 47.26758575439453 3.924095153808594 42.6886100769043 3 37.966796875 3 M 37.966796875 0 C 58.93528366088867 0 75.93359375 16.99832153320312 75.93359375 37.966796875 C 75.93359375 58.93528366088867 58.93528366088867 75.93359375 37.966796875 75.93359375 C 16.99831008911133 75.93359375 0 58.93528366088867 0 37.966796875 C 0 16.99832153320312 16.99831008911133 0 37.966796875 0 Z" stroke="none" fill="#62797e"/>
                                      </g>
                                    </g>
                                  </g>
                                </g>
                              </g>
                            </g>
                          </g>
                        </g>
                      </g>
                    </g>
                  </g>
                </g>
              </g>
            </g>
          </g>
        </g>
      </g>
      <g id="asistencia-social" transform="translate(207.481 3346.896)">
        <g id="Group_1222475" data-name="Group 1222475" transform="translate(1.272 21.165)">
          <path id="Path_1172237" data-name="Path 1172237" d="M22.2,194.736l-4.151-4.417a7.648,7.648,0,0,1-2.074-5.237V169.439a2.985,2.985,0,0,0-2.338-2.914h0A2.985,2.985,0,0,0,10,169.439v19.716a11.11,11.11,0,0,0,2.051,6.432l2.268,3.194,5.425,7.642,1.914,2.7H36.12l-2.083-9.929a17.553,17.553,0,0,0-7.385-10.962L22.2,185.237a3.187,3.187,0,0,0-4.164.532h0a3.43,3.43,0,0,0,.072,4.629c2.436,2.581,6.06,6.44,6.06,6.44" transform="translate(-10 -166.453)" fill="#ffcdac"/>
          <path id="Path_1172238" data-name="Path 1172238" d="M310.506,194.736l4.151-4.417a7.649,7.649,0,0,0,2.074-5.237V169.439a2.985,2.985,0,0,1,2.338-2.914h0a2.985,2.985,0,0,1,3.632,2.914v19.716a11.11,11.11,0,0,1-2.051,6.432l-2.268,3.194-5.425,7.642-1.914,2.7H296.581l2.083-9.929a17.553,17.553,0,0,1,7.385-10.962l4.448-2.991a3.187,3.187,0,0,1,4.164.532h0a3.43,3.43,0,0,1-.072,4.629c-2.436,2.581-6.06,6.44-6.06,6.44" transform="translate(-260.141 -166.453)" fill="#ffcdac"/>
        </g>
        <g id="Group_1222476" data-name="Group 1222476" transform="translate(13.147 22.838)">
          <path id="Path_1172239" data-name="Path 1172239" d="M280.137,183.733a4.693,4.693,0,0,1,2.291-1.311l3.247-.778v-1.982h3.965v1.989h0l3.238.774A4.7,4.7,0,0,1,296.489,187v2.375h-7.178Z" transform="translate(-257.663 -179.656)" fill="#7d9bff"/>
          <path id="Path_1172240" data-name="Path 1172240" d="M119.742,183.682a4.692,4.692,0,0,0-2.291-1.311l-3.247-.778v-1.982H110.24V181.6h0l-3.238.774a4.7,4.7,0,0,0-3.611,4.576v2.375h7.178Z" transform="translate(-103.39 -179.611)" fill="#7d9bff"/>
        </g>
        <path id="Path_1172241" data-name="Path 1172241" d="M168.771,211.07l-4.522,1.084a6.553,6.553,0,0,0-5.026,6.372V223.1h24.611V218.53a6.553,6.553,0,0,0-5.03-6.373l-4.511-1.078" transform="translate(-138.976 -184.231)" fill="#78d2fa"/>
        <path id="Path_1172242" data-name="Path 1172242" d="M239.835,189.357v2.77l-2.76,6.276-2.763-6.285v-2.761" transform="translate(-204.518 -165.279)" fill="#ffb487"/>
        <path id="Path_1172243" data-name="Path 1172243" d="M220.027,114.551v3.824a6.156,6.156,0,0,1-6.156,6.156h0a6.156,6.156,0,0,1-6.156-6.156v-3.824" transform="translate(-181.303 -99.985)" fill="#ffcdac"/>
        <path id="Path_1172244" data-name="Path 1172244" d="M213.872,64h0a6.156,6.156,0,0,0-6.156,6.156v1.482h3.01a6.763,6.763,0,0,0,5.184-2.419h0l4.118,2.419V70.156A6.155,6.155,0,0,0,213.872,64Z" transform="translate(-181.303 -55.862)" fill="#bebebe"/>
        <path id="Path_1172245" data-name="Path 1172245" d="M146.954,95.094V94.03a4.419,4.419,0,0,0-4.419-4.419h0a4.419,4.419,0,0,0-4.419,4.419v1.064h3.046a10.536,10.536,0,0,0,5.416-1.5h0" transform="translate(-120.552 -78.217)" fill="#f5b955"/>
        <path id="Path_1172246" data-name="Path 1172246" d="M146.954,125.9v2.746a4.419,4.419,0,0,1-4.419,4.419h0a4.419,4.419,0,0,1-4.419-4.419V125.9" transform="translate(-120.552 -109.895)" fill="#ffcdac"/>
        <path id="Path_1172247" data-name="Path 1172247" d="M304.5,95.145V94.081a4.419,4.419,0,0,1,4.419-4.419h0a4.419,4.419,0,0,1,4.419,4.419v1.064h-3.046a10.536,10.536,0,0,1-5.416-1.5h0" transform="translate(-265.781 -78.261)" fill="#f5b955"/>
        <path id="Path_1172248" data-name="Path 1172248" d="M304.5,125.955V128.7a4.419,4.419,0,0,0,4.419,4.419h0a4.419,4.419,0,0,0,4.419-4.419v-2.746" transform="translate(-265.781 -109.939)" fill="#ffcdac"/>
        <path id="Path_1172249" data-name="Path 1172249" d="M78.932,471.327a1.272,1.272,0,1,0-2.074,1.472l1.914,2.7a1.272,1.272,0,1,0,2.074-1.472Z" transform="translate(-66.88 -410.928)"/>
        <path id="Path_1172250" data-name="Path 1172250" d="M26.554,190.2a18.726,18.726,0,0,0-7.92-11.756l-4.448-2.991a4.474,4.474,0,0,0-5.672.579V160.709a4.257,4.257,0,0,0-6.921-3.32A4.236,4.236,0,0,0,0,160.709v19.716a12.317,12.317,0,0,0,2.286,7.168l2.268,3.194a1.272,1.272,0,0,0,2.074-1.472L4.36,186.12a9.787,9.787,0,0,1-1.816-5.7V160.709a1.714,1.714,0,1,1,3.427,0v15.642a8.884,8.884,0,0,0,2.291,5.965c.063.076.128.151.2.224.844.895,1.837,1.949,2.772,2.943l1.309,1.393.013.013,1.963,2.089a1.271,1.271,0,1,0,1.854-1.741c-.023-.025-1.512-1.61-3.211-3.416l-2.916-3.1-.021-.024a2.146,2.146,0,0,1,.041-2.812,1.922,1.922,0,0,1,2.5-.32l4.448,2.991a16.2,16.2,0,0,1,6.85,10.168l2.083,9.929a1.272,1.272,0,1,0,2.489-.522Z" transform="translate(0 -136.558)"/>
        <path id="Path_1172251" data-name="Path 1172251" d="M58.191,442.108a1.272,1.272,0,0,0-2.07,1.477l.008.011a1.272,1.272,0,0,0,2.07-1.477Z" transform="translate(-48.777 -385.427)"/>
        <path id="Path_1172252" data-name="Path 1172252" d="M313.65,157.392a4.257,4.257,0,0,0-6.921,3.32v15.322a4.474,4.474,0,0,0-5.672-.579l-4.448,2.991a18.725,18.725,0,0,0-7.92,11.756l-2.083,9.929a1.271,1.271,0,1,0,2.489.522l2.083-9.929a16.2,16.2,0,0,1,6.85-10.168l4.448-2.991a1.922,1.922,0,0,1,2.5.319,2.146,2.146,0,0,1,.044,2.809l-.024.027-6.127,6.519a1.271,1.271,0,1,0,1.854,1.741c.017-.018,5.213-5.543,6.058-6.438.069-.073.134-.148.2-.224a8.885,8.885,0,0,0,2.291-5.965V160.711a1.714,1.714,0,1,1,3.427,0v19.716a9.787,9.787,0,0,1-1.816,5.7l-9.607,13.533a1.272,1.272,0,1,0,2.074,1.472l9.607-13.533a12.317,12.317,0,0,0,2.286-7.168V160.711A4.238,4.238,0,0,0,313.65,157.392Z" transform="translate(-250.139 -136.56)"/>
        <path id="Path_1172253" data-name="Path 1172253" d="M126.372,87.272A1.272,1.272,0,0,0,127.644,86V81.432c0-.158-.006-.314-.016-.469h5.86a1.272,1.272,0,0,0,1.272-1.272V77.317a5.957,5.957,0,0,0-4.588-5.812l-2.262-.54v-.406a5.687,5.687,0,0,0,2.434-4.663V62.954a5.686,5.686,0,0,0-9.383-4.325,7.424,7.424,0,0,0-13.76.01,5.686,5.686,0,0,0-9.4,4.315v2.941a5.687,5.687,0,0,0,2.434,4.663v.406l-2.262.54a5.957,5.957,0,0,0-4.587,5.812v2.375a1.272,1.272,0,0,0,1.272,1.272H100.5c-.009.154-.015.309-.015.466V86a1.272,1.272,0,0,0,1.272,1.272H109.4a1.272,1.272,0,1,0,0-2.543H108.09V82.1a1.272,1.272,0,0,0-2.543,0v2.628h-2.515v-3.3a5.265,5.265,0,0,1,4.05-5.136l3.489-.836,2.335,5.313a1.272,1.272,0,0,0,1.164.76h0a1.271,1.271,0,0,0,1.164-.76l2.333-5.3,3.478.831a5.264,5.264,0,0,1,4.054,5.137v3.3h-2.515V82.1a1.272,1.272,0,0,0-2.543,0v2.628H118.6a1.272,1.272,0,1,0,0,2.543ZM110.037,71.846a5.966,5.966,0,0,0-1.018-.343l-2.271-.544v-.4a5.738,5.738,0,0,0,1.1-1.007,7.486,7.486,0,0,0,2.188,2.193Zm-9.689-5.951v-.606h1.775a11.812,11.812,0,0,0,4.521-.9v1.506a3.148,3.148,0,0,1-6.3,0Zm8.85-.372V64.18h1.738a8.012,8.012,0,0,0,5.4-2.087l2.622,1.541v2.076a4.883,4.883,0,0,1-9.763-.186Zm8.9,6.326v-.086a7.483,7.483,0,0,0,2.206-2.2,5.736,5.736,0,0,0,1.093,1v.4l-2.272.544A5.982,5.982,0,0,0,118.1,71.85Zm3.4-5.955v-.186c0-.062,0-.124,0-.186V64.391a11.812,11.812,0,0,0,4.516.9H127.8V65.9a3.148,3.148,0,1,1-6.3,0Zm3.148-6.089a3.152,3.152,0,0,1,3.141,2.94h-1.768a9.268,9.268,0,0,1-4.263-1.039A3.152,3.152,0,0,1,124.653,59.806ZM109.2,61.427a4.884,4.884,0,0,1,9.706-.776l-2.141-1.258a1.271,1.271,0,0,0-1.619.28,5.478,5.478,0,0,1-4.209,1.964H109.2v-.21Zm-5.7-1.621a3.152,3.152,0,0,1,2.89,1.9,9.269,9.269,0,0,1-4.263,1.039h-1.768A3.152,3.152,0,0,1,103.5,59.806Zm2.994,14.013a7.8,7.8,0,0,0-5.4,4.6H95.933v-1.1a3.422,3.422,0,0,1,2.635-3.339l3.238-.774a1.272,1.272,0,0,0,.976-1.237V71.54a5.52,5.52,0,0,0,1.422,0V71.9c0,.019,0,.038,0,.057a1.274,1.274,0,0,0,1.033,1.251l1.9.454Zm7.581,3.279-1.491-3.393V72.8a7.452,7.452,0,0,0,2.979,0v.911Zm7.566-3.276L121,73.669l1.907-.457a1.273,1.273,0,0,0,1.039-1.252c0-.01,0-.02,0-.03v-.39a5.52,5.52,0,0,0,1.422,0v.427a1.272,1.272,0,0,0,.976,1.237l3.238.774a3.422,3.422,0,0,1,2.635,3.339v1.1h-5.171A7.8,7.8,0,0,0,121.637,73.822Z" transform="translate(-81.514 -47.134)"/>
        <path id="Path_1172254" data-name="Path 1172254" d="M247.272,295.67a1.27,1.27,0,1,0,.9.371A1.277,1.277,0,0,0,247.272,295.67Z" transform="translate(-214.719 -258.074)"/>
        <path id="Path_1172255" data-name="Path 1172255" d="M247.266,4.446a1.272,1.272,0,0,0,1.272-1.272v-1.9a1.272,1.272,0,1,0-2.543,0v1.9A1.272,1.272,0,0,0,247.266,4.446Z" transform="translate(-214.714)"/>
        <path id="Path_1172256" data-name="Path 1172256" d="M193.306,22.717a1.271,1.271,0,1,0,1.8-1.8l-1.334-1.333a1.271,1.271,0,1,0-1.8,1.8Z" transform="translate(-167.236 -16.77)"/>
        <path id="Path_1172257" data-name="Path 1172257" d="M291.017,23.337a1.267,1.267,0,0,0,.9-.373l1.324-1.325a1.272,1.272,0,0,0-1.8-1.8l-1.324,1.325a1.272,1.272,0,0,0,.9,2.17Z" transform="translate(-252.902 -16.994)"/>
      </g>
    </g>
  </g>
</svg>
