<svg xmlns="http://www.w3.org/2000/svg" xmlns:xlink="http://www.w3.org/1999/xlink" width="93.934" height="93.934" viewBox="0 0 93.934 93.934">
  <defs>
    <filter id="Path_978624" x="0" y="0" width="93.934" height="93.934" filterUnits="userSpaceOnUse">
      <feOffset dy="3" input="SourceAlpha"/>
      <feGaussianBlur stdDeviation="3" result="blur"/>
      <feFlood flood-opacity="0.161"/>
      <feComposite operator="in" in2="blur"/>
      <feComposite in="SourceGraphic"/>
    </filter>
  </defs>
  <g id="Group_1222554" data-name="Group 1222554" transform="translate(-189 -1572.299)">
    <g id="Group_1222159" data-name="Group 1222159">
      <g id="Group_1221056" data-name="Group 1221056" transform="translate(0 -4227.076)">
        <g id="Group_1208655" data-name="Group 1208655" transform="translate(-420 3898.655)">
          <g id="Group_1208068" data-name="Group 1208068" transform="translate(412 470.719)">
            <g id="Group_1144123" data-name="Group 1144123" transform="translate(206 1436)">
              <g transform="matrix(1, 0, 0, 1, -9, -6)" filter="url(#Path_978624)">
                <g id="Path_978624-2" data-name="Path 978624" transform="translate(9 6)" fill="#f7fbfc">
                  <path d="M 37.966796875 74.43359375 C 33.04315185546875 74.43359375 28.26757431030273 73.46962738037109 23.77274131774902 71.56847381591797 C 19.43047523498535 69.73184967041016 15.53040790557861 67.10224914550781 12.18087482452393 63.75271987915039 C 8.831341743469238 60.4031867980957 6.201741218566895 56.50312042236328 4.365118980407715 52.16086196899414 C 2.463963508605957 47.66601943969727 1.499996900558472 42.89044189453125 1.499996900558472 37.966796875 C 1.499996900558472 33.04315185546875 2.463963508605957 28.26757431030273 4.365118980407715 23.77274131774902 C 6.201741218566895 19.43047523498535 8.831341743469238 15.53040790557861 12.18087482452393 12.18087482452393 C 15.53040790557861 8.831341743469238 19.43047523498535 6.201741218566895 23.77274131774902 4.365118980407715 C 28.26757431030273 2.463963508605957 33.04315185546875 1.499996900558472 37.966796875 1.499996900558472 C 42.89044189453125 1.499996900558472 47.66601943969727 2.463963508605957 52.16086196899414 4.365118980407715 C 56.50312042236328 6.201741218566895 60.4031867980957 8.831341743469238 63.75271987915039 12.18087482452393 C 67.10224914550781 15.53040790557861 69.73184967041016 19.43047523498535 71.56847381591797 23.77274131774902 C 73.46962738037109 28.26757431030273 74.43359375 33.04315185546875 74.43359375 37.966796875 C 74.43359375 42.89044189453125 73.46962738037109 47.66601943969727 71.56847381591797 52.16086196899414 C 69.73184967041016 56.50313186645508 67.10224914550781 60.4031867980957 63.75271987915039 63.75271987915039 C 60.4031867980957 67.10224914550781 56.50313186645508 69.73184967041016 52.16086196899414 71.56847381591797 C 47.66601943969727 73.46962738037109 42.89044189453125 74.43359375 37.966796875 74.43359375 Z" stroke="none"/>
                  <path d="M 37.966796875 3 C 33.2449836730957 3 28.66600799560547 3.924095153808594 24.35705947875977 5.746635437011719 C 20.19359588623047 7.507621765136719 16.45379638671875 10.02927398681641 13.24153518676758 13.24153518676758 C 10.02927398681641 16.45379638671875 7.507621765136719 20.19359588623047 5.746635437011719 24.35705947875977 C 3.924095153808594 28.66600799560547 3 33.2449836730957 3 37.966796875 C 3 42.6886100769043 3.924095153808594 47.26758575439453 5.746635437011719 51.57653427124023 C 7.507621765136719 55.73999786376953 10.02927398681641 59.47979736328125 13.24153518676758 62.69205856323242 C 16.45379638671875 65.90431976318359 20.19359588623047 68.42597198486328 24.35705947875977 70.18695831298828 C 28.66600799560547 72.00949859619141 33.2449836730957 72.93359375 37.966796875 72.93359375 C 42.6886100769043 72.93359375 47.26758575439453 72.00949859619141 51.57653427124023 70.18695831298828 C 55.73999786376953 68.42597198486328 59.47979736328125 65.90431976318359 62.69205856323242 62.69205856323242 C 65.90431976318359 59.47979736328125 68.42597198486328 55.73999786376953 70.18695831298828 51.57653427124023 C 72.00949859619141 47.26758575439453 72.93359375 42.6886100769043 72.93359375 37.966796875 C 72.93359375 33.2449836730957 72.00949859619141 28.66600799560547 70.18695831298828 24.35705947875977 C 68.42597198486328 20.19359588623047 65.90431976318359 16.45379638671875 62.69205856323242 13.24153518676758 C 59.47979736328125 10.02927398681641 55.73999786376953 7.507621765136719 51.57653427124023 5.746635437011719 C 47.26758575439453 3.924095153808594 42.6886100769043 3 37.966796875 3 M 37.966796875 0 C 58.93528366088867 0 75.93359375 16.99831008911133 75.93359375 37.966796875 C 75.93359375 58.93528366088867 58.93528366088867 75.93359375 37.966796875 75.93359375 C 16.99831008911133 75.93359375 0 58.93528366088867 0 37.966796875 C 0 16.99831008911133 16.99831008911133 0 37.966796875 0 Z" stroke="none" fill="#62797e"/>
                </g>
              </g>
            </g>
          </g>
        </g>
      </g>
      <g id="Layer_3" transform="translate(186.292 1585.01)">
        <g id="Group_1222158" data-name="Group 1222158" transform="translate(20.646 0)">
          <g id="Group_1222100" data-name="Group 1222100" transform="translate(8.95 26.213)">
            <path id="Path_1171951" data-name="Path 1171951" d="M65.016,108.452V105.6a9.425,9.425,0,0,1-4.9-7.624,3.858,3.858,0,0,1-3.339-1.039,27.66,27.66,0,0,1-2.877,8.471,1.238,1.238,0,0,0,.352,1.6c1.33.962,4.349,2.614,9.986,3.292A2.607,2.607,0,0,0,65.016,108.452Z" transform="translate(-53.744 -96.941)" fill="#754e34"/>
          </g>
          <g id="Group_1222101" data-name="Group 1222101" transform="translate(29.156 26.213)">
            <path id="Path_1171952" data-name="Path 1171952" d="M139.588,105.412a27.66,27.66,0,0,1-2.877-8.471,3.858,3.858,0,0,1-3.339,1.039,9.425,9.425,0,0,1-4.9,7.624v2.848a2.607,2.607,0,0,0,.779,1.853c5.637-.678,8.655-2.33,9.986-3.292A1.238,1.238,0,0,0,139.588,105.412Z" transform="translate(-128.471 -96.941)" fill="#754e34"/>
          </g>
          <g id="Group_1222102" data-name="Group 1222102" transform="translate(8.275 25.696)">
            <path id="Path_1171953" data-name="Path 1171953" d="M62.248,109.565a.692.692,0,0,1-.085-.005c-5.716-.714-8.8-2.433-10.129-3.394a1.918,1.918,0,0,1-.549-2.474,26.92,26.92,0,0,0,2.776-8.106.676.676,0,0,1,1.331.238,27.889,27.889,0,0,1-2.921,8.517.564.564,0,0,0,.155.728c1.224.885,4.087,2.472,9.5,3.148a.676.676,0,0,1-.083,1.347Z" transform="translate(-51.248 -95.028)"/>
          </g>
          <g id="Group_1222103" data-name="Group 1222103" transform="translate(29.428 25.663)">
            <path id="Path_1171954" data-name="Path 1171954" d="M130.151,109.477a.676.676,0,0,1-.083-1.347c5.417-.677,8.28-2.263,9.5-3.148a.564.564,0,0,0,.156-.728A27.9,27.9,0,0,1,136.8,95.7a.676.676,0,1,1,1.331-.237,27.158,27.158,0,0,0,2.782,8.138,1.918,1.918,0,0,1-.549,2.474c-1.329.961-4.412,2.68-10.129,3.394A.73.73,0,0,1,130.151,109.477Z" transform="translate(-129.475 -94.907)"/>
          </g>
          <g id="Group_1222104" data-name="Group 1222104" transform="translate(34.057 19.465)">
            <path id="Path_1171955" data-name="Path 1171955" d="M147.221,71.985a3.919,3.919,0,0,0-.6.048v7.11c0,.212-.01.421-.024.63a3.919,3.919,0,1,0,.627-7.787Z" transform="translate(-146.594 -71.985)" fill="#f9d0b4"/>
          </g>
          <g id="Group_1222105" data-name="Group 1222105" transform="translate(15.297 16.182)">
            <path id="Path_1171956" data-name="Path 1171956" d="M91.1,60.06c-1.43,1.669-6.5,6.735-13.884,4.632v5.593a9.392,9.392,0,1,0,18.783,0V62.7a.737.737,0,0,0-.578-.715A7.779,7.779,0,0,1,92,60.009a.624.624,0,0,0-.9.05Z" transform="translate(-77.219 -59.844)" fill="#f9d0b4"/>
          </g>
          <g id="Group_1222106" data-name="Group 1222106" transform="translate(10.773 20.207)">
            <path id="Path_1171957" data-name="Path 1171957" d="M65.012,75.552a15.266,15.266,0,0,1-1.986-.721,1.2,1.2,0,0,0-1.3.223,3.909,3.909,0,0,0,3.309,6.721c-.014-.208-.024-.418-.024-.63V75.552Z" transform="translate(-60.488 -74.729)" fill="#f9d0b4"/>
          </g>
          <g id="Group_1222108" data-name="Group 1222108" transform="translate(11.918 5.55)">
            <g id="Group_1222107" data-name="Group 1222107">
              <path id="Path_1171958" data-name="Path 1171958" d="M64.815,35.506a1.2,1.2,0,0,1,1.3-.223A15.307,15.307,0,0,0,68.1,36c7.381,2.1,12.453-2.963,13.883-4.632a.623.623,0,0,1,.895-.05A7.78,7.78,0,0,0,86.3,33.295a.737.737,0,0,1,.578.715v.478a3.9,3.9,0,0,1,3.379,1.1V33.3a12.771,12.771,0,0,0-25.542,0V35.6c.032-.032.062-.067.095-.1Z" transform="translate(-64.72 -20.525)" fill="#754e34"/>
            </g>
          </g>
          <g id="Group_1222110" data-name="Group 1222110" transform="translate(4.455 34.876)">
            <g id="Group_1222109" data-name="Group 1222109">
              <path id="Path_1171959" data-name="Path 1171959" d="M67.6,153.086A13.147,13.147,0,0,1,66.537,135.7a8.151,8.151,0,0,1-.937-.389l-2.322-1.145a2.611,2.611,0,0,1-1.456-2.342v-2.848a9.337,9.337,0,0,1-8.934,0v2.848a2.611,2.611,0,0,1-1.456,2.342l-2.322,1.145a8.192,8.192,0,0,1-1.625.6l-6.715,1.7a3.851,3.851,0,0,0-2.9,3.52l-.742,20.393a1.07,1.07,0,0,0,1.069,1.13h5.946a.724.724,0,0,0,.724-.724V149.178l1.05,3.364a22.8,22.8,0,0,1,1.036,6.794v2.59a.724.724,0,0,0,.724.724H67.04a.724.724,0,0,0,.724-.724v-2.59a22.8,22.8,0,0,1,.675-5.489c-.286-.241-.565-.492-.834-.761Z" transform="translate(-37.122 -128.979)" fill="#f9d0b4"/>
            </g>
          </g>
          <g id="Group_1222111" data-name="Group 1222111" transform="translate(37.182 60.782)">
            <path id="Path_1171960" data-name="Path 1171960" d="M158.153,224.783v7.041a.724.724,0,0,0,.724.724h5.946a1.071,1.071,0,0,0,1.069-1.13l-.167-4.6A13.129,13.129,0,0,1,158.153,224.783Z" transform="translate(-158.153 -224.783)" fill="#dae6f1"/>
          </g>
          <g id="Group_1222112" data-name="Group 1222112" transform="translate(24.689 39.942)">
            <path id="Path_1171961" data-name="Path 1171961" d="M122.2,166.756a13.147,13.147,0,0,1-1.066-17.383,8.157,8.157,0,0,1-.937-.389l-2.322-1.145c-.074-.036-.142-.081-.211-.124l-5.529,21.56a5.9,5.9,0,0,0-.183,1.464v5.58h9.684a.724.724,0,0,0,.724-.724v-2.59a22.8,22.8,0,0,1,.675-5.489c-.286-.241-.565-.492-.834-.761Z" transform="translate(-111.951 -147.715)" fill="#dae6f1"/>
          </g>
          <g id="Group_1222113" data-name="Group 1222113" transform="translate(4.455 39.942)">
            <path id="Path_1171962" data-name="Path 1171962" d="M51.643,147.715c-.069.043-.137.087-.211.124l-2.322,1.145a8.194,8.194,0,0,1-1.625.6l-6.715,1.7a3.851,3.851,0,0,0-2.9,3.52l-.742,20.393a1.07,1.07,0,0,0,1.069,1.13h5.946a.724.724,0,0,0,.724-.724V162.848l1.05,3.364a22.8,22.8,0,0,1,1.036,6.794v2.59a.724.724,0,0,0,.724.724h9.684v-5.58a5.918,5.918,0,0,0-.183-1.464Z" transform="translate(-37.122 -147.715)" fill="#dae6f1"/>
          </g>
          <g id="Group_1222114" data-name="Group 1222114" transform="translate(24.704 39.942)">
            <path id="Path_1171963" data-name="Path 1171963" d="M121.175,149.369a8.126,8.126,0,0,1-.939-.386l-2.322-1.145c-.074-.036-.142-.081-.211-.124l-5.529,21.56a5.864,5.864,0,0,0-.168,1.054l7.039-8.769a13.151,13.151,0,0,1,2.13-12.19Z" transform="translate(-112.006 -147.715)" fill="#edf4fc"/>
          </g>
          <g id="Group_1222115" data-name="Group 1222115" transform="translate(14.689 39.943)">
            <path id="Path_1171964" data-name="Path 1171964" d="M84.785,169.276l-5.529-21.56c-.069.043-.137.087-.211.124l-2.322,1.145a8.216,8.216,0,0,1-1.175.47l-.572,3.917a.659.659,0,0,0,.305.687l1.977.985a.688.688,0,0,1,.252.873l-1.278,2.919a.738.738,0,0,0,.085.736l8.636,10.758A5.86,5.86,0,0,0,84.785,169.276Z" transform="translate(-74.968 -147.716)" fill="#edf4fc"/>
          </g>
          <g id="Group_1222116" data-name="Group 1222116" transform="translate(20.445 45.665)">
            <path id="Path_1171965" data-name="Path 1171965" d="M100.316,184.715c.04.156.071.314.1.474.006.034.011.067.016.1.024.158.043.318.054.479.009.136.015.273.015.41,0-.137.006-.274.015-.41.011-.161.03-.32.054-.479.005-.034.01-.067.016-.1.027-.16.058-.318.1-.474l4.061-15.838a7.831,7.831,0,0,1-8.489,0Z" transform="translate(-96.255 -168.877)" fill="#3caadc"/>
          </g>
          <g id="Group_1222117" data-name="Group 1222117" transform="translate(31.086 36.539)">
            <circle id="Ellipse_11935" data-name="Ellipse 11935" cx="13.147" cy="13.147" r="13.147" fill="#f98fa6"/>
          </g>
          <g id="Group_1222118" data-name="Group 1222118" transform="translate(34.905 40.357)">
            <circle id="Ellipse_11936" data-name="Ellipse 11936" cx="9.329" cy="9.329" r="9.329" fill="#fc657e"/>
          </g>
          <g id="Group_1222119" data-name="Group 1222119" transform="translate(33.647 18.789)">
            <path id="Path_1171966" data-name="Path 1171966" d="M146.114,78.68a4.155,4.155,0,0,1-.429-.023.676.676,0,1,1,.138-1.345,2.854,2.854,0,0,0,.291.016,3.245,3.245,0,1,0,0-6.49c-.084,0-.168,0-.251.01a.676.676,0,1,1-.108-1.348c.118-.009.238-.015.358-.015a4.6,4.6,0,1,1,0,9.194Z" transform="translate(-145.078 -69.486)"/>
          </g>
          <g id="Group_1222120" data-name="Group 1222120" transform="translate(14.621 15.506)">
            <path id="Path_1171967" data-name="Path 1171967" d="M84.786,78.527A10.079,10.079,0,0,1,74.718,68.46V62.867a.676.676,0,0,1,.861-.65c7.008,2,11.864-2.88,13.185-4.422a1.284,1.284,0,0,1,.9-.45,1.315,1.315,0,0,1,.962.339A7.235,7.235,0,0,0,93.752,59.5a1.409,1.409,0,0,1,1.1,1.374V68.46A10.079,10.079,0,0,1,84.786,78.527ZM76.07,63.734V68.46a8.715,8.715,0,1,0,17.431,0V60.872a.063.063,0,0,0-.054-.057,8.506,8.506,0,0,1-3.693-2.1c-1.449,1.676-6.432,6.606-13.684,5.017Z" transform="translate(-74.718 -57.343)"/>
          </g>
          <g id="Group_1222121" data-name="Group 1222121" transform="translate(10.098 19.53)">
            <path id="Path_1171968" data-name="Path 1171968" d="M62.587,80.68a4.593,4.593,0,0,1-3.145-7.945,1.867,1.867,0,0,1,2.034-.348,14.648,14.648,0,0,0,1.9.69.676.676,0,0,1-.37,1.3,16.057,16.057,0,0,1-2.074-.753.517.517,0,0,0-.563.1,3.207,3.207,0,0,0-1.025,2.361,3.249,3.249,0,0,0,3.245,3.245,2.829,2.829,0,0,0,.308-.018.676.676,0,1,1,.145,1.344,4.121,4.121,0,0,1-.453.026Z" transform="translate(-57.99 -72.228)"/>
          </g>
          <g id="Group_1222123" data-name="Group 1222123" transform="translate(11.242 4.874)">
            <g id="Group_1222122" data-name="Group 1222122">
              <path id="Path_1171969" data-name="Path 1171969" d="M62.9,34.283a.676.676,0,0,1-.676-.676V31.473a13.447,13.447,0,0,1,26.894,0v2.06a.676.676,0,0,1-1.352,0v-2.06a12.095,12.095,0,0,0-24.19,0v2.134A.676.676,0,0,1,62.9,34.283Z" transform="translate(-62.221 -18.026)"/>
            </g>
          </g>
          <g id="Group_1222126" data-name="Group 1222126" transform="translate(3.779 34.409)">
            <g id="Group_1222124" data-name="Group 1222124" transform="translate(24.701 0.008)">
              <path id="Path_1171970" data-name="Path 1171970" d="M131.15,135.065a.671.671,0,0,1-.237-.043c-.275-.1-.539-.217-.788-.339l-2.322-1.145a3.267,3.267,0,0,1-1.833-2.948v-2.631a.676.676,0,0,1,1.352,0v2.631a1.923,1.923,0,0,0,1.079,1.735l2.322,1.145c.208.1.432.2.665.286a.676.676,0,0,1-.237,1.309Z" transform="translate(-125.97 -127.282)"/>
            </g>
            <g id="Group_1222125" data-name="Group 1222125">
              <path id="Path_1171971" data-name="Path 1171971" d="M65.216,162.065H45.848a1.4,1.4,0,0,1-1.4-1.4v-2.59a22.1,22.1,0,0,0-.734-5.65v8.241a1.4,1.4,0,0,1-1.4,1.4H36.369a1.746,1.746,0,0,1-1.744-1.844l.741-20.38a4.511,4.511,0,0,1,3.415-4.151L45.5,134a7.544,7.544,0,0,0,1.491-.548l2.322-1.145a1.923,1.923,0,0,0,1.079-1.735v-2.64a.676.676,0,0,1,1.352,0v2.64a3.266,3.266,0,0,1-1.833,2.948l-2.322,1.145a8.883,8.883,0,0,1-1.759.647L39.112,137a3.161,3.161,0,0,0-2.4,2.9l-.741,20.38a.4.4,0,0,0,.107.306.392.392,0,0,0,.287.124h5.946a.048.048,0,0,0,.048-.048V147.918a.676.676,0,0,1,1.321-.2l1.05,3.363a23.45,23.45,0,0,1,1.066,7v2.59a.048.048,0,0,0,.048.048H65.216a.048.048,0,0,0,.048-.048v-2.59a23.506,23.506,0,0,1,.653-5.482.676.676,0,0,1,1.315.316,22.139,22.139,0,0,0-.615,5.166v2.59A1.4,1.4,0,0,1,65.216,162.065Z" transform="translate(-34.622 -127.251)"/>
            </g>
          </g>
          <g id="Group_1222127" data-name="Group 1222127" transform="translate(21.286 29.321)">
            <path id="Path_1171972" data-name="Path 1171972" d="M102.769,110.956a4.242,4.242,0,0,1-3.245-1.41.676.676,0,1,1,1.036-.869,3.095,3.095,0,0,0,4.417,0,.676.676,0,1,1,1.036.869A4.241,4.241,0,0,1,102.769,110.956Z" transform="translate(-99.367 -108.436)"/>
          </g>
          <g id="Group_1222128" data-name="Group 1222128" transform="translate(27.558 23.255)">
            <circle id="Ellipse_11937" data-name="Ellipse 11937" cx="1.217" cy="1.217" r="1.217"/>
          </g>
          <g id="Group_1222129" data-name="Group 1222129" transform="translate(19.386 23.255)">
            <circle id="Ellipse_11938" data-name="Ellipse 11938" cx="1.217" cy="1.217" r="1.217"/>
          </g>
          <g id="Group_1222130" data-name="Group 1222130" transform="translate(36.506 60.277)">
            <path id="Path_1171973" data-name="Path 1171973" d="M163,231.863h-5.946a1.4,1.4,0,0,1-1.4-1.4v-6.87a.676.676,0,1,1,1.352,0v6.87a.048.048,0,0,0,.048.048H163a.395.395,0,0,0,.394-.417l-.159-4.368a.676.676,0,1,1,1.351-.049l.158,4.355A1.746,1.746,0,0,1,163,231.863Z" transform="translate(-155.653 -222.917)"/>
          </g>
          <g id="Group_1222131" data-name="Group 1222131" transform="translate(18.347 39.448)">
            <path id="Path_1171974" data-name="Path 1171974" d="M94.839,175.392a.676.676,0,0,1-.676-.676v-5.31a5.231,5.231,0,0,0-.162-1.3l-5.482-21.378a.676.676,0,0,1,1.31-.336l5.482,21.378a6.583,6.583,0,0,1,.2,1.632v5.31A.676.676,0,0,1,94.839,175.392Z" transform="translate(-88.498 -145.888)"/>
          </g>
          <g id="Group_1222132" data-name="Group 1222132" transform="translate(24.028 39.44)">
            <path id="Path_1171975" data-name="Path 1171975" d="M110.183,169.648a.676.676,0,0,1-.674-.722,6.555,6.555,0,0,1,.187-1.175l5.485-21.387a.676.676,0,0,1,1.31.336l-5.025,19.6,5.087-6.336a.676.676,0,1,1,1.054.846l-6.9,8.59A.678.678,0,0,1,110.183,169.648Z" transform="translate(-109.507 -145.856)"/>
          </g>
          <g id="Group_1222133" data-name="Group 1222133" transform="translate(14.013 41.133)">
            <path id="Path_1171976" data-name="Path 1171976" d="M83.013,174.071a.675.675,0,0,1-.528-.253l-8.519-10.612a1.406,1.406,0,0,1-.177-1.43l1.278-2.92a.072.072,0,0,0,0-.028l-1.915-.954a1.333,1.333,0,0,1-.672-1.39l.553-3.788a.676.676,0,1,1,1.338.195l-.553,3.789a.075.075,0,0,0,0,.015l1.915.954a1.351,1.351,0,0,1,.57,1.75l-1.278,2.919a.085.085,0,0,0,0,.052l8.512,10.6a.676.676,0,0,1-.527,1.1ZM73.825,156.72h0Z" transform="translate(-72.469 -152.118)"/>
          </g>
          <g id="Group_1222134" data-name="Group 1222134" transform="translate(19.896 45.067)">
            <path id="Path_1171977" data-name="Path 1171977" d="M99.018,169.192a8.5,8.5,0,0,1-4.472-1.27.676.676,0,1,1,.711-1.15,7.156,7.156,0,0,0,7.525,0,.676.676,0,0,1,.712,1.149,8.492,8.492,0,0,1-4.476,1.272Z" transform="translate(-94.226 -166.669)"/>
          </g>
          <g id="Group_1222135" data-name="Group 1222135" transform="translate(30.417 35.863)">
            <path id="Path_1171978" data-name="Path 1171978" d="M146.951,160.276a13.824,13.824,0,1,1,9.774-4.049A13.732,13.732,0,0,1,146.951,160.276Zm0-26.295a12.472,12.472,0,1,0,8.819,3.653,12.39,12.39,0,0,0-8.819-3.653Z" transform="translate(-133.134 -132.629)"/>
          </g>
          <g id="Group_1222138" data-name="Group 1222138" transform="translate(31.083)">
            <g id="Group_1222137" data-name="Group 1222137">
              <g id="Group_1222136" data-name="Group 1222136">
                <path id="Path_1171979" data-name="Path 1171979" d="M140.558,2.393A3,3,0,0,1,138.151.041c0-.054-.108-.054-.108,0a3,3,0,0,1-2.407,2.352c-.054,0-.054.081,0,.108a3,3,0,0,1,2.407,2.352c0,.054.108.054.108,0A3,3,0,0,1,140.558,2.5C140.612,2.474,140.612,2.393,140.558,2.393Z" transform="translate(-135.596 0)" fill="#fc657e"/>
              </g>
            </g>
          </g>
          <g id="Group_1222141" data-name="Group 1222141" transform="translate(49.759 31.893)">
            <g id="Group_1222140" data-name="Group 1222140" transform="translate(0)">
              <g id="Group_1222139" data-name="Group 1222139">
                <path id="Path_1171980" data-name="Path 1171980" d="M207.462,119.3a1.693,1.693,0,0,1-1.357-1.327c0-.031-.061-.031-.061,0a1.692,1.692,0,0,1-1.357,1.327c-.031,0-.031.046,0,.061a1.692,1.692,0,0,1,1.357,1.327c0,.031.061.031.061,0a1.692,1.692,0,0,1,1.357-1.327c.031-.015.031-.061,0-.061Z" transform="translate(-204.663 -117.946)" fill="#70d6f9"/>
              </g>
            </g>
          </g>
          <g id="Group_1222144" data-name="Group 1222144" transform="translate(0 29.744)">
            <g id="Group_1222143" data-name="Group 1222143">
              <g id="Group_1222142" data-name="Group 1222142">
                <path id="Path_1171981" data-name="Path 1171981" d="M24.486,111.487h-.622v-.622A.871.871,0,0,0,23,110a.854.854,0,0,0-.865.865v.622h-.622a.871.871,0,0,0-.865.865.854.854,0,0,0,.865.865h.622v.622A.871.871,0,0,0,23,114.7a.854.854,0,0,0,.865-.865v-.622h.622a.871.871,0,0,0,.865-.865A.854.854,0,0,0,24.486,111.487Z" transform="translate(-20.646 -110)" fill="#70d6f9"/>
              </g>
            </g>
          </g>
          <g id="Group_1222147" data-name="Group 1222147" transform="translate(38.64 7.842)">
            <g id="Group_1222146" data-name="Group 1222146">
              <g id="Group_1222145" data-name="Group 1222145">
                <circle id="Ellipse_11939" data-name="Ellipse 11939" cx="0.919" cy="0.919" r="0.919" fill="#f5c84c"/>
              </g>
            </g>
          </g>
          <g id="Group_1222150" data-name="Group 1222150" transform="translate(2.947 38.127)">
            <g id="Group_1222149" data-name="Group 1222149">
              <g id="Group_1222148" data-name="Group 1222148">
                <circle id="Ellipse_11940" data-name="Ellipse 11940" cx="0.919" cy="0.919" r="0.919" fill="#b2e26d"/>
              </g>
            </g>
          </g>
          <g id="Group_1222151" data-name="Group 1222151" transform="translate(43.695 44.839)">
            <path id="Path_1171982" data-name="Path 1171982" d="M182.915,172.839a.676.676,0,0,1,0-1.352c.109,0,.216,0,.322-.007a2.961,2.961,0,0,0,2.812-2.989,2.914,2.914,0,0,1,1.571-2.592.676.676,0,1,1,.625,1.2,1.567,1.567,0,0,0-.844,1.394,4.311,4.311,0,0,1-4.107,4.34C183.169,172.836,183.043,172.839,182.915,172.839Z" transform="translate(-182.239 -165.822)"/>
          </g>
          <g id="Group_1222152" data-name="Group 1222152" transform="translate(38.403 44.838)">
            <path id="Path_1171983" data-name="Path 1171983" d="M168.361,172.838c-.128,0-.255,0-.379-.008a4.311,4.311,0,0,1-4.107-4.34,1.567,1.567,0,0,0-.844-1.394.676.676,0,1,1,.625-1.2,2.915,2.915,0,0,1,1.571,2.592,2.962,2.962,0,0,0,2.813,2.989c.105,0,.213.007.322.007a.676.676,0,0,1,0,1.352Z" transform="translate(-162.666 -165.821)"/>
          </g>
          <g id="Group_1222153" data-name="Group 1222153" transform="translate(41.97 44.364)">
            <path id="Path_1171984" data-name="Path 1171984" d="M179.712,165.42h-3.176a.676.676,0,0,1,0-1.352h3.176a.676.676,0,0,1,0,1.352Z" transform="translate(-175.86 -164.068)"/>
          </g>
          <g id="Group_1222154" data-name="Group 1222154" transform="translate(41.97 54.738)">
            <path id="Path_1171985" data-name="Path 1171985" d="M179.712,203.784h-3.176a.676.676,0,0,1,0-1.352h3.176a.676.676,0,0,1,0,1.352Z" transform="translate(-175.86 -202.432)"/>
          </g>
          <g id="Group_1222155" data-name="Group 1222155" transform="translate(43.558 44.576)">
            <path id="Path_1171986" data-name="Path 1171986" d="M182.407,176.153a.676.676,0,0,1-.676-.676v-9.95a.676.676,0,1,1,1.352,0v9.95A.676.676,0,0,1,182.407,176.153Z" transform="translate(-181.731 -164.851)"/>
          </g>
          <g id="Group_1222156" data-name="Group 1222156" transform="translate(34.229 39.681)">
            <path id="Path_1171987" data-name="Path 1171987" d="M157.236,166.76a10,10,0,1,1,10-10A10.016,10.016,0,0,1,157.236,166.76Zm0-18.658a8.653,8.653,0,1,0,8.653,8.653A8.663,8.663,0,0,0,157.236,148.1Z" transform="translate(-147.231 -146.75)"/>
          </g>
          <g id="Group_1222157" data-name="Group 1222157" transform="translate(34.229 39.681)">
            <path id="Path_1171988" data-name="Path 1171988" d="M157.236,166.76a10,10,0,1,1,10-10A10.016,10.016,0,0,1,157.236,166.76Zm0-18.658a8.653,8.653,0,1,0,8.653,8.653A8.663,8.663,0,0,0,157.236,148.1Z" transform="translate(-147.231 -146.75)"/>
          </g>
        </g>
      </g>
    </g>
  </g>
</svg>
