<svg xmlns="http://www.w3.org/2000/svg" xmlns:xlink="http://www.w3.org/1999/xlink" width="108" height="108" viewBox="0 0 108 108">
  <defs>
    <filter id="Path_978624" x="0" y="0" width="108" height="108" filterUnits="userSpaceOnUse">
      <feOffset dy="3" input="SourceAlpha"/>
      <feGaussianBlur stdDeviation="3" result="blur"/>
      <feFlood flood-opacity="0.161"/>
      <feComposite operator="in" in2="blur"/>
      <feComposite in="SourceGraphic"/>
    </filter>
    <filter id="Path_1076716" x="0" y="0" width="108" height="108" filterUnits="userSpaceOnUse">
      <feOffset dy="3" input="SourceAlpha"/>
      <feGaussianBlur stdDeviation="3" result="blur-2"/>
      <feFlood flood-opacity="0.161"/>
      <feComposite operator="in" in2="blur-2"/>
      <feComposite in="SourceGraphic"/>
    </filter>
  </defs>
  <g id="Group_1222532" data-name="Group 1222532" transform="translate(-615 -5396)">
    <g id="Group_1221737" data-name="Group 1221737">
      <g id="Group_1220987" data-name="Group 1220987" transform="translate(-1 3097)">
        <g id="Group_1208503" data-name="Group 1208503" transform="translate(0 1813)">
          <g id="Group_1200660" data-name="Group 1200660">
            <g id="Group_1181203" data-name="Group 1181203" transform="translate(625 492)">
              <g id="Group_1172348" data-name="Group 1172348" transform="translate(0)">
                <g id="Group_1171897" data-name="Group 1171897">
                  <g id="Group_1171052" data-name="Group 1171052">
                    <g id="Group_1164581" data-name="Group 1164581">
                      <g id="Group_1144123" data-name="Group 1144123">
                        <g transform="matrix(1, 0, 0, 1, -9, -6)" filter="url(#Path_978624)">
                          <g id="Path_978624-2" data-name="Path 978624" transform="translate(9 6)" fill="#fff9f4">
                            <path d="M 45 88.5 C 39.12687683105469 88.5 33.43022537231445 87.35007476806641 28.06830024719238 85.08217620849609 C 22.88852500915527 82.89131164550781 18.23629951477051 79.75458526611328 14.2408504486084 75.75914764404297 C 10.24541282653809 71.76370239257812 7.108687400817871 67.11147308349609 4.917825222015381 61.93170166015625 C 2.649924993515015 56.56977462768555 1.5 50.87312316894531 1.5 45 C 1.5 39.12687683105469 2.649924993515015 33.43022537231445 4.917825222015381 28.06830024719238 C 7.108687400817871 22.88852500915527 10.24541282653809 18.23629951477051 14.2408504486084 14.2408504486084 C 18.23629951477051 10.24541282653809 22.88852500915527 7.108687400817871 28.06830024719238 4.917825222015381 C 33.43022537231445 2.649924993515015 39.12687683105469 1.5 45 1.5 C 50.87312316894531 1.5 56.56977462768555 2.649924993515015 61.93170166015625 4.917825222015381 C 67.11147308349609 7.108687400817871 71.76370239257812 10.24541282653809 75.75914764404297 14.2408504486084 C 79.75458526611328 18.23629951477051 82.89131164550781 22.88852500915527 85.08217620849609 28.06830024719238 C 87.35007476806641 33.43022537231445 88.5 39.12687683105469 88.5 45 C 88.5 50.87312316894531 87.35007476806641 56.56977462768555 85.08217620849609 61.93170166015625 C 82.89131164550781 67.11147308349609 79.75458526611328 71.76370239257812 75.75914764404297 75.75914764404297 C 71.76370239257812 79.75458526611328 67.11147308349609 82.89131164550781 61.93170166015625 85.08217620849609 C 56.56977462768555 87.35007476806641 50.87312316894531 88.5 45 88.5 Z" stroke="none"/>
                            <path d="M 45 3 C 39.32871246337891 3 33.82865524291992 4.110054016113281 28.65262985229492 6.299339294433594 C 23.65165710449219 8.414573669433594 19.15968322753906 11.44334411621094 15.301513671875 15.301513671875 C 11.44334411621094 19.15968322753906 8.414573669433594 23.65165710449219 6.299339294433594 28.65262985229492 C 4.110054016113281 33.82865524291992 3 39.32871246337891 3 45 C 3 50.67128753662109 4.110054016113281 56.17134475708008 6.299339294433594 61.34737396240234 C 8.414573669433594 66.34834289550781 11.44334411621094 70.84031677246094 15.301513671875 74.698486328125 C 19.15968322753906 78.55665588378906 23.65165710449219 81.58542633056641 28.65262985229492 83.70066070556641 C 33.82865524291992 85.88994598388672 39.32871246337891 87 45 87 C 50.67128753662109 87 56.17134475708008 85.88994598388672 61.34737396240234 83.70066070556641 C 66.34834289550781 81.58542633056641 70.84031677246094 78.55665588378906 74.698486328125 74.698486328125 C 78.55665588378906 70.84031677246094 81.58542633056641 66.34834289550781 83.70066070556641 61.34737396240234 C 85.88994598388672 56.17134475708008 87 50.67128753662109 87 45 C 87 39.32871246337891 85.88994598388672 33.82865524291992 83.70066070556641 28.65262985229492 C 81.58542633056641 23.65165710449219 78.55665588378906 19.15968322753906 74.698486328125 15.301513671875 C 70.84031677246094 11.44334411621094 66.34834289550781 8.414573669433594 61.34737396240234 6.299339294433594 C 56.17134475708008 4.110054016113281 50.67128753662109 3 45 3 M 45 0 C 69.85281372070312 0 90 20.14718627929688 90 45 C 90 69.85281372070312 69.85281372070312 90 45 90 C 20.14718627929688 90 0 69.85281372070312 0 45 C 0 20.14718627929688 20.14718627929688 0 45 0 Z" stroke="none" fill="#8b7157"/>
                          </g>
                        </g>
                        <g transform="matrix(1, 0, 0, 1, -9, -6)" filter="url(#Path_1076716)">
                          <g id="Path_1076716-2" data-name="Path 1076716" transform="translate(9 6)" fill="#fff9f4">
                            <path d="M 45 88.5 C 39.12687683105469 88.5 33.43022537231445 87.35007476806641 28.06830024719238 85.08217620849609 C 22.88852500915527 82.89131164550781 18.23629951477051 79.75458526611328 14.2408504486084 75.75914764404297 C 10.24541282653809 71.76370239257812 7.108687400817871 67.11147308349609 4.917825222015381 61.93170166015625 C 2.649924993515015 56.56977462768555 1.5 50.87312316894531 1.5 45 C 1.5 39.12687683105469 2.649924993515015 33.43022537231445 4.917825222015381 28.06830024719238 C 7.108687400817871 22.88852500915527 10.24541282653809 18.23629951477051 14.2408504486084 14.2408504486084 C 18.23629951477051 10.24541282653809 22.88852500915527 7.108687400817871 28.06830024719238 4.917825222015381 C 33.43022537231445 2.649924993515015 39.12687683105469 1.5 45 1.5 C 50.87312316894531 1.5 56.56977462768555 2.649924993515015 61.93170166015625 4.917825222015381 C 67.11147308349609 7.108687400817871 71.76370239257812 10.24541282653809 75.75914764404297 14.2408504486084 C 79.75458526611328 18.23629951477051 82.89131164550781 22.88852500915527 85.08217620849609 28.06830024719238 C 87.35007476806641 33.43022537231445 88.5 39.12687683105469 88.5 45 C 88.5 50.87312316894531 87.35007476806641 56.56977462768555 85.08217620849609 61.93170166015625 C 82.89131164550781 67.11147308349609 79.75458526611328 71.76370239257812 75.75914764404297 75.75914764404297 C 71.76370239257812 79.75458526611328 67.11147308349609 82.89131164550781 61.93170166015625 85.08217620849609 C 56.56977462768555 87.35007476806641 50.87312316894531 88.5 45 88.5 Z" stroke="none"/>
                            <path d="M 45 3 C 39.32871246337891 3 33.82865524291992 4.110054016113281 28.65262985229492 6.299339294433594 C 23.65165710449219 8.414573669433594 19.15968322753906 11.44334411621094 15.301513671875 15.301513671875 C 11.44334411621094 19.15968322753906 8.414573669433594 23.65165710449219 6.299339294433594 28.65262985229492 C 4.110054016113281 33.82865524291992 3 39.32871246337891 3 45 C 3 50.67128753662109 4.110054016113281 56.17134475708008 6.299339294433594 61.34737396240234 C 8.414573669433594 66.34834289550781 11.44334411621094 70.84031677246094 15.301513671875 74.698486328125 C 19.15968322753906 78.55665588378906 23.65165710449219 81.58542633056641 28.65262985229492 83.70066070556641 C 33.82865524291992 85.88994598388672 39.32871246337891 87 45 87 C 50.67128753662109 87 56.17134475708008 85.88994598388672 61.34737396240234 83.70066070556641 C 66.34834289550781 81.58542633056641 70.84031677246094 78.55665588378906 74.698486328125 74.698486328125 C 78.55665588378906 70.84031677246094 81.58542633056641 66.34834289550781 83.70066070556641 61.34737396240234 C 85.88994598388672 56.17134475708008 87 50.67128753662109 87 45 C 87 39.32871246337891 85.88994598388672 33.82865524291992 83.70066070556641 28.65262985229492 C 81.58542633056641 23.65165710449219 78.55665588378906 19.15968322753906 74.698486328125 15.301513671875 C 70.84031677246094 11.44334411621094 66.34834289550781 8.414573669433594 61.34737396240234 6.299339294433594 C 56.17134475708008 4.110054016113281 50.67128753662109 3 45 3 M 45 0 C 69.85281372070312 0 90 20.14718627929688 90 45 C 90 69.85281372070312 69.85281372070312 90 45 90 C 20.14718627929688 90 0 69.85281372070312 0 45 C 0 20.14718627929688 20.14718627929688 0 45 0 Z" stroke="none" fill="#8b7157"/>
                          </g>
                        </g>
                      </g>
                    </g>
                  </g>
                </g>
              </g>
            </g>
          </g>
        </g>
      </g>
      <g id="Fill_Outline" data-name="Fill Outline" transform="translate(630.794 5417.541)">
        <g id="Stroke_copy" data-name="Stroke copy" transform="translate(7.226 3.226)">
          <g id="Group_1221735" data-name="Group 1221735">
            <g id="Group_1221731" data-name="Group 1221731">
              <path id="Path_1171515" data-name="Path 1171515" d="M19.26,17H46.231a12.26,12.26,0,0,1,12.26,12.26V66.039a4.9,4.9,0,0,1-4.9,4.9H11.9a4.9,4.9,0,0,1-4.9-4.9V29.26A12.26,12.26,0,0,1,19.26,17Z" transform="translate(-7 0.164)" fill="#84d2f4"/>
              <path id="Path_1171516" data-name="Path 1171516" d="M40.1,62.36a24.52,24.52,0,0,1-24.52-24.52V25.58a12.217,12.217,0,0,1,3.5-8.573A12.26,12.26,0,0,0,7,29.258V66.038a4.9,4.9,0,0,0,4.9,4.9H53.587a4.9,4.9,0,0,0,4.9-4.9V62.36Z" transform="translate(-7 0.165)" fill="#57b7eb"/>
              <path id="Path_1171517" data-name="Path 1171517" d="M7,27H58.491V63.779a4.9,4.9,0,0,1-4.9,4.9H11.9a4.9,4.9,0,0,1-4.9-4.9Z" transform="translate(-7 2.424)" fill="#c4f236"/>
              <rect id="Rectangle_420060" data-name="Rectangle 420060" width="34.327" height="9.808" rx="2" transform="translate(8.582)" fill="#c4f236"/>
              <path id="Path_1171518" data-name="Path 1171518" d="M17,11H43.972v7.356H17Z" transform="translate(-4.74 -1.192)" fill="#84d2f4"/>
              <path id="Path_1171519" data-name="Path 1171519" d="M15.582,35.582V27H7V63.779a4.9,4.9,0,0,0,4.9,4.9H53.587a4.9,4.9,0,0,0,4.9-4.9V60.1H40.1A24.52,24.52,0,0,1,15.582,35.582Z" transform="translate(-7 2.424)" fill="#a1d51c"/>
              <g id="Group_1221730" data-name="Group 1221730" transform="translate(9.784 34.327)">
                <ellipse id="Ellipse_11920" data-name="Ellipse 11920" cx="15.938" cy="15.938" rx="15.938" ry="15.938" transform="translate(0.024)" fill="#f89c8d"/>
                <path id="Path_1171520" data-name="Path 1171520" d="M39.524,56.628A15.923,15.923,0,0,1,26.5,31.522,15.938,15.938,0,1,0,43.966,55.988a15.9,15.9,0,0,1-4.442.64Z" transform="translate(-14.98 -30.882)" fill="#f8664f"/>
                <circle id="Ellipse_11921" data-name="Ellipse 11921" cx="7.356" cy="7.356" r="7.356" transform="translate(8.606 8.582)" fill="#c4f236"/>
                <path id="Path_1171521" data-name="Path 1171521" d="M33.035,48.913a7.347,7.347,0,0,1-6.7-10.379,7.356,7.356,0,1,0,9.724,9.724,7.324,7.324,0,0,1-3.023.655Z" transform="translate(-13.396 -29.297)" fill="#a1d51c"/>
                <path id="Path_1171522" data-name="Path 1171522" d="M29.459,51.8a15.938,15.938,0,0,1-7.018-9.808,7.315,7.315,0,0,0,6.915,9.815C29.391,51.809,29.423,51.8,29.459,51.8Z" transform="translate(-13.394 -28.516)" fill="#7ab92d"/>
              </g>
              <path id="Path_1171523" data-name="Path 1171523" d="M38.294,56.91A24.506,24.506,0,0,1,15.4,41.124,15.9,15.9,0,0,0,41.074,56.91Z" transform="translate(-5.192 5.615)" fill="#cc5144"/>
              <path id="Path_1171524" data-name="Path 1171524" d="M17,18.356V11H43.972Z" transform="translate(-4.74 -1.192)" fill="#57b7eb"/>
              <path id="Path_1171525" data-name="Path 1171525" d="M20.13,9.13a2.452,2.452,0,0,1-2.452-2.452V3H16.452A2.452,2.452,0,0,0,14,5.452v4.9a2.452,2.452,0,0,0,2.452,2.452H45.875a2.452,2.452,0,0,0,2.452-2.452V9.13Z" transform="translate(-5.418 -3)" fill="#a1d51c"/>
            </g>
            <g id="Group_1221734" data-name="Group 1221734" transform="translate(32.394 46.587)">
              <g id="Group_1221732" data-name="Group 1221732" transform="translate(19.097)">
                <path id="Path_1171526" data-name="Path 1171526" d="M53.9,41a4.9,4.9,0,0,1,4.9,4.9V53.26H49V45.9A4.9,4.9,0,0,1,53.9,41Z" transform="translate(-49 -41)" fill="#f8664f"/>
                <path id="Path_1171527" data-name="Path 1171527" d="M49,51h9.808v7.356a4.9,4.9,0,1,1-9.808,0Z" transform="translate(-49 -38.74)" fill="#fcbc04"/>
              </g>
              <path id="Path_1171528" data-name="Path 1171528" d="M53.9,42.226a4.859,4.859,0,0,1,.168-1.209c-.056,0-.11-.017-.168-.017A4.9,4.9,0,0,0,49,45.9V53.26h4.9Z" transform="translate(-29.903 -41)" fill="#cc5144"/>
              <path id="Path_1171529" data-name="Path 1171529" d="M53.9,54.678V51H49v7.356a4.894,4.894,0,0,0,9.64,1.209A4.9,4.9,0,0,1,53.9,54.678Z" transform="translate(-29.903 -38.74)" fill="#e59730"/>
              <g id="Group_1221733" data-name="Group 1221733" transform="translate(0 2.186)">
                <path id="Path_1171530" data-name="Path 1171530" d="M4.9,0a4.9,4.9,0,0,1,4.9,4.9V12.26H0V4.9A4.9,4.9,0,0,1,4.9,0Z" transform="matrix(0.72, 0.694, -0.694, 0.72, 17.017, 0)" fill="#f89c8d"/>
                <path id="Path_1171531" data-name="Path 1171531" d="M0,0H9.808V7.356A4.9,4.9,0,1,1,0,7.356Z" transform="matrix(0.72, 0.694, -0.694, 0.72, 8.508, 8.827)" fill="#f9e109"/>
              </g>
              <path id="Path_1171532" data-name="Path 1171532" d="M51.679,47.387l-5.1,5.3-2.452,2.543,2.452,2.361,5.1-5.3a4.888,4.888,0,0,0,.7-5.847,4.824,4.824,0,0,1-.7.943Z" transform="translate(-31.005 -39.77)" fill="#f8664f"/>
              <path id="Path_1171533" data-name="Path 1171533" d="M43.512,56.361a4.9,4.9,0,0,1-6.934.123,4.832,4.832,0,0,1-.824-1.086,4.9,4.9,0,0,0,7.758,5.863l5.1-5.3L46.165,53.6Z" transform="translate(-33.047 -38.152)" fill="#fcbc04"/>
            </g>
          </g>
        </g>
        <g id="Outline_copy" data-name="Outline copy" transform="translate(6 2)">
          <g id="Group_1221736" data-name="Group 1221736">
            <circle id="Ellipse_11922" data-name="Ellipse 11922" cx="1.226" cy="1.226" r="1.226" transform="translate(29.424 50.265)" fill="#323232"/>
            <path id="Path_1171534" data-name="Path 1171534" d="M41.226,31a1.226,1.226,0,1,0,0,2.452h4.9a1.226,1.226,0,1,0,0-2.452Z" transform="translate(1.683 4.553)" fill="#323232"/>
            <path id="Path_1171535" data-name="Path 1171535" d="M17.356,32.226A1.226,1.226,0,0,0,16.13,31h-4.9a1.226,1.226,0,1,0,0,2.452h4.9A1.226,1.226,0,0,0,17.356,32.226Z" transform="translate(-5.096 4.553)" fill="#323232"/>
            <circle id="Ellipse_11923" data-name="Ellipse 11923" cx="1.226" cy="1.226" r="1.226" transform="translate(9.808 64.977)" fill="#323232"/>
            <circle id="Ellipse_11924" data-name="Ellipse 11924" cx="1.226" cy="1.226" r="1.226" transform="translate(4.904 64.977)" fill="#323232"/>
            <circle id="Ellipse_11925" data-name="Ellipse 11925" cx="1.226" cy="1.226" r="1.226" transform="translate(4.904 60.073)" fill="#323232"/>
            <path id="Path_1171536" data-name="Path 1171536" d="M7.226,59.621A1.226,1.226,0,0,0,8.452,58.4V32.65A11.046,11.046,0,0,1,19.486,21.616H46.457a11.046,11.046,0,0,1,10.961,9.808H12.13a1.226,1.226,0,1,0,0,2.452H57.491v12.26a1.226,1.226,0,0,0,2.452,0V32.65a13.5,13.5,0,0,0-12.26-13.423V14.26a3.678,3.678,0,0,0,3.678-3.678v-4.9A3.678,3.678,0,0,0,47.683,2H35.424A1.226,1.226,0,0,0,34.2,3.226V5.678a1.226,1.226,0,0,0,2.452,0V4.452H39.1V5.678a1.226,1.226,0,0,0,2.452,0V4.452h2.452V5.678a1.226,1.226,0,1,0,2.452,0V4.452h1.226a1.226,1.226,0,0,1,1.226,1.226v4.9a1.226,1.226,0,0,1-1.226,1.226H46.457V10.582a1.226,1.226,0,1,0-2.452,0v1.226H41.553V10.582a1.226,1.226,0,0,0-2.452,0v1.226H36.65V10.582a1.226,1.226,0,0,0-2.452,0v1.226H31.746V10.582a1.226,1.226,0,1,0-2.452,0v1.226H26.842V10.582a1.226,1.226,0,0,0-2.452,0v1.226H21.938V10.582a1.226,1.226,0,1,0-2.452,0v1.226H18.26a1.226,1.226,0,0,1-1.226-1.226v-4.9A1.226,1.226,0,0,1,18.26,4.452h1.226V5.678a1.226,1.226,0,1,0,2.452,0V4.452H24.39V5.678a1.226,1.226,0,0,0,2.452,0V4.452h2.452V5.678a1.226,1.226,0,1,0,2.452,0V3.226A1.226,1.226,0,0,0,30.52,2H18.26a3.678,3.678,0,0,0-3.678,3.678v4.9A3.678,3.678,0,0,0,18.26,14.26v4.966A13.5,13.5,0,0,0,6,32.65V58.4A1.226,1.226,0,0,0,7.226,59.621ZM45.231,14.26v4.9H20.712v-4.9Z" transform="translate(-6 -2)" fill="#323232"/>
            <path id="Path_1171537" data-name="Path 1171537" d="M63.621,42.26a6.089,6.089,0,0,0-5.844,4.4,6.162,6.162,0,0,0-.917-.09,6.088,6.088,0,0,0-4.334,1.795l-2.908,2.908a16.876,16.876,0,0,0,.517-4.108A17.143,17.143,0,0,0,22.857,33.317,1.226,1.226,0,1,0,24.306,35.3a14.642,14.642,0,0,1,18.155.645L38.1,40.3c-.061-.047-.123-.094-.185-.14l.017-.3a1.178,1.178,0,0,1,.873-1.068,1.226,1.226,0,1,0-.635-2.369A3.62,3.62,0,0,0,35.609,39a8.54,8.54,0,0,0-1.962-.385,1.178,1.178,0,0,1,0-1.3l.337-.5a1.226,1.226,0,1,0-2.04-1.361l-.336.5a3.615,3.615,0,0,0-.508,2.838,8.6,8.6,0,0,0-1.807.636,1.177,1.177,0,0,1-.651-1.13l.039-.6a1.229,1.229,0,1,0-2.452-.158l-.039.6a3.613,3.613,0,0,0,.981,2.717q-.271.245-.519.519a3.645,3.645,0,0,0-2.718-.981l-.6.039a1.226,1.226,0,0,0-1.144,1.3,1.242,1.242,0,0,0,1.3,1.144l.6-.039a1.186,1.186,0,0,1,1.132.652,8.525,8.525,0,0,0-.649,1.883,3.626,3.626,0,0,0-3.512.931A1.227,1.227,0,1,0,22.8,48.035a1.179,1.179,0,0,1,1.361-.221l.262.131a8.487,8.487,0,0,0,.38,1.86,3.623,3.623,0,0,0-2.575,2.562,1.226,1.226,0,0,0,.866,1.5,1.252,1.252,0,0,0,.319.042A1.226,1.226,0,0,0,24.6,53a1.179,1.179,0,0,1,1.069-.873l.3-.018c.045.064.093.123.14.186l-4.361,4.361A14.642,14.642,0,0,1,21.1,38.5a1.229,1.229,0,0,0-1.981-1.454A17.127,17.127,0,0,0,40.374,62.62c-.012.162-.047.319-.047.482a6.066,6.066,0,0,0,1.255,3.678H12.13A3.678,3.678,0,0,1,8.452,63.1v-6.13a1.226,1.226,0,1,0-2.452,0V63.1a6.137,6.137,0,0,0,6.13,6.13H55.039a1.226,1.226,0,1,0,0-2.452H51.448l4.545-4.545,1.5-1.5V63.1a6.13,6.13,0,1,0,12.26,0V48.39a6.137,6.137,0,0,0-6.13-6.13ZM54.259,50.1a3.766,3.766,0,0,1,5.2,0,3.678,3.678,0,0,1,0,5.2l-4.334,4.335-5.2-5.2ZM31.838,46.564a2.4,2.4,0,0,1-.092-.626,1.226,1.226,0,1,0-2.452,0,4.839,4.839,0,0,0,.7,2.475l-2.126,2.126a6.12,6.12,0,0,1,8.484-8.484ZM23.481,58.387,26.2,55.672a3.69,3.69,0,0,0,0,.521l.039.6a1.226,1.226,0,0,0,1.226,1.148h.08a1.226,1.226,0,0,0,1.145-1.3l-.039-.6a1.179,1.179,0,0,1,.646-1.134,8.5,8.5,0,0,0,3,.808,1.178,1.178,0,0,1,0,1.3l-.337.5A1.226,1.226,0,1,0,34,58.878l.336-.5a3.618,3.618,0,0,0,.508-2.839A8.567,8.567,0,0,0,36.65,54.9a1.178,1.178,0,0,1,.653,1.133l-.039.6a1.226,1.226,0,0,0,1.145,1.3h.08a1.226,1.226,0,0,0,1.226-1.148l.039-.6a3.612,3.612,0,0,0-.981-2.714c.178-.163.353-.329.517-.506a3.64,3.64,0,0,0,2.717.971l.6-.039a1.226,1.226,0,0,0,1.144-1.3,1.239,1.239,0,0,0-1.3-1.144l-.6.039a1.19,1.19,0,0,1-1.139-.652l-.268-.542a1.226,1.226,0,0,0-1.059-.684,1.133,1.133,0,0,0-1.1.613,6.116,6.116,0,0,1-8.685,2.044l2.126-2.126a4.839,4.839,0,0,0,2.478.7,1.226,1.226,0,1,0,0-2.452,2.4,2.4,0,0,1-.626-.092l4.509-4.509A6.092,6.092,0,0,1,39.1,47.164a1.075,1.075,0,0,0,.022.109,1.264,1.264,0,0,0,.048.245,1.206,1.206,0,0,0,.094.228,1.063,1.063,0,0,0,.042.1c.022.033.058.05.082.082a1.21,1.21,0,0,0,.178.177,1.117,1.117,0,0,0,.188.123,1.167,1.167,0,0,0,.217.088,1.114,1.114,0,0,0,.235.048,1,1,0,0,0,.12.023c.04,0,.075-.02.114-.023a1.165,1.165,0,0,0,.23-.047,1.184,1.184,0,0,0,.234-.094c.033-.018.07-.021.1-.042l.5-.336a1.173,1.173,0,0,1,1.309,0l.5.336a1.226,1.226,0,0,0,1.361-2.04l-.505-.336a3.608,3.608,0,0,0-2.837-.509,8.582,8.582,0,0,0-.631-1.813,1.154,1.154,0,0,1,1.13-.652l.6.039a1.229,1.229,0,1,0,.159-2.452L42,40.382a3.74,3.74,0,0,0-.525.009L44.2,37.671a14.639,14.639,0,0,1-.413,19.434l-.866.866a14.639,14.639,0,0,1-19.435.414ZM49.059,65.7a3.678,3.678,0,1,1-5.2-5.2l4.335-4.335,5.2,5.2ZM67.3,63.1a3.678,3.678,0,1,1-7.356,0V58.285l1.252-1.252a6.07,6.07,0,0,0-1.124-9.538,3.668,3.668,0,0,1,7.228.895v6.13H65.575a1.226,1.226,0,1,0,0,2.452H67.3Z" transform="translate(-6 4.328)" fill="#323232"/>
          </g>
        </g>
      </g>
    </g>
  </g>
</svg>
