<svg xmlns="http://www.w3.org/2000/svg" xmlns:xlink="http://www.w3.org/1999/xlink" width="103" height="103" viewBox="0 0 103 103">
  <defs>
    <filter id="Path_978624" x="0" y="0" width="103" height="103" filterUnits="userSpaceOnUse">
      <feOffset dy="3" input="SourceAlpha"/>
      <feGaussianBlur stdDeviation="3" result="blur"/>
      <feFlood flood-opacity="0.161"/>
      <feComposite operator="in" in2="blur"/>
      <feComposite in="SourceGraphic"/>
    </filter>
  </defs>
  <g id="Group_1222535" data-name="Group 1222535" transform="translate(-164.789 -1684.5)">
    <g id="Group_1221753" data-name="Group 1221753">
      <g id="Group_1220988" data-name="Group 1220988" transform="translate(0 -843)">
        <g id="Group_1208651" data-name="Group 1208651" transform="translate(-0.711 1469.5)">
          <g id="Group_1178144" data-name="Group 1178144" transform="translate(-19.5 -2004)">
            <g id="Group_1177896" data-name="Group 1177896" transform="translate(14 196)">
              <g id="Group_1176881" data-name="Group 1176881">
                <g id="Group_1175148" data-name="Group 1175148" transform="translate(0 1580)">
                  <g id="Group_1173798" data-name="Group 1173798" transform="translate(-3 -3520)">
                    <g id="Group_1171925" data-name="Group 1171925" transform="translate(-22 -2246)">
                      <g id="Group_1164524" data-name="Group 1164524" transform="translate(205 7058)">
                        <g id="Group_1144123" data-name="Group 1144123">
                          <g transform="matrix(1, 0, 0, 1, -9, -6)" filter="url(#Path_978624)">
                            <g id="Path_978624-2" data-name="Path 978624" transform="translate(9 6)" fill="#f9f9fe">
                              <path d="M 42.5 83.5 C 36.96437835693359 83.5 31.59512901306152 82.41617584228516 26.54141235351562 80.27863311767578 C 21.65934181213379 78.21369171142578 17.27447128295898 75.25723266601562 13.50862312316895 71.49137878417969 C 9.742764472961426 67.72553253173828 6.786305904388428 63.34066009521484 4.721364498138428 58.45858764648438 C 2.583823442459106 53.40486907958984 1.5 48.03562164306641 1.5 42.5 C 1.5 36.96437835693359 2.583823442459106 31.59512901306152 4.721364498138428 26.54141235351562 C 6.786305904388428 21.65934181213379 9.742764472961426 17.27447128295898 13.50862312316895 13.50862312316895 C 17.27447128295898 9.742764472961426 21.65934181213379 6.786305904388428 26.54141235351562 4.721364498138428 C 31.59512901306152 2.583823442459106 36.96437835693359 1.5 42.5 1.5 C 48.03562164306641 1.5 53.40486907958984 2.583823442459106 58.45858764648438 4.721364498138428 C 63.34066009521484 6.786305904388428 67.72553253173828 9.742764472961426 71.49137878417969 13.50862312316895 C 75.25723266601562 17.27447128295898 78.21369171142578 21.65934181213379 80.27863311767578 26.54141235351562 C 82.41617584228516 31.59512901306152 83.5 36.96437835693359 83.5 42.5 C 83.5 48.03562164306641 82.41617584228516 53.40486907958984 80.27863311767578 58.45858764648438 C 78.21369171142578 63.34066009521484 75.25723266601562 67.72553253173828 71.49137878417969 71.49137878417969 C 67.72553253173828 75.25723266601562 63.34066009521484 78.21369171142578 58.45858764648438 80.27863311767578 C 53.40486907958984 82.41617584228516 48.03562164306641 83.5 42.5 83.5 Z" stroke="none"/>
                              <path d="M 42.5 3 C 37.16621398925781 3 31.99356079101562 4.043960571289062 27.125732421875 6.102882385253906 C 22.42246627807617 8.092185974121094 18.19785308837891 10.94070434570312 14.56928253173828 14.56928253173828 C 10.94070434570312 18.19785308837891 8.092185974121094 22.42246627807617 6.102882385253906 27.125732421875 C 4.043960571289062 31.99356079101562 3 37.16621398925781 3 42.5 C 3 47.83378601074219 4.043960571289062 53.00643920898438 6.102882385253906 57.87425231933594 C 8.092185974121094 62.57753372192383 10.94070434570312 66.80213165283203 14.56928253173828 70.43071746826172 C 18.19786834716797 74.05929565429688 22.42246627807617 76.90781402587891 27.125732421875 78.89711761474609 C 31.99356079101562 80.95603942871094 37.16621398925781 82 42.5 82 C 47.83378601074219 82 53.00642395019531 80.95603942871094 57.87425231933594 78.89711761474609 C 62.57753372192383 76.90781402587891 66.80213165283203 74.05929565429688 70.43071746826172 70.43071746826172 C 74.05929565429688 66.80213165283203 76.90781402587891 62.57753372192383 78.89711761474609 57.87425231933594 C 80.95603942871094 53.00642395019531 82 47.83378601074219 82 42.5 C 82 37.16621398925781 80.95603942871094 31.99356079101562 78.89711761474609 27.125732421875 C 76.90781402587891 22.42246627807617 74.05929565429688 18.19786834716797 70.43071746826172 14.56928253173828 C 66.80213165283203 10.94070434570312 62.57753372192383 8.092185974121094 57.87425231933594 6.102882385253906 C 53.00643920898438 4.043960571289062 47.83378601074219 3 42.5 3 M 42.5 0 C 65.97209167480469 0 85 19.02789306640625 85 42.5 C 85 65.97209167480469 65.97209167480469 85 42.5 85 C 19.02789306640625 85 0 65.97209167480469 0 42.5 C 0 19.02789306640625 19.02789306640625 0 42.5 0 Z" stroke="none" fill="#cbc9f9"/>
                            </g>
                          </g>
                        </g>
                      </g>
                    </g>
                  </g>
                </g>
              </g>
            </g>
          </g>
        </g>
      </g>
      <g id="ley_8_" data-name="ley (8)" transform="translate(171 1691.206)">
        <g id="Group_1221744" data-name="Group 1221744" transform="translate(16.601 58.63)">
          <g id="Group_1221739" data-name="Group 1221739" transform="translate(0 4.07)">
            <path id="Path_1171538" data-name="Path 1171538" d="M158.449,359.118a12.956,12.956,0,0,0,3.11,8.533H114.675a1.483,1.483,0,0,1-1.211-.619,15.1,15.1,0,0,1,0-15.826,1.484,1.484,0,0,1,1.211-.619H161.56A12.958,12.958,0,0,0,158.449,359.118Z" transform="translate(-111.226 -350.585)" fill="#fb3a82"/>
            <path id="Path_1171539" data-name="Path 1171539" d="M125.533,350.587l-13.221,14.321a14.982,14.982,0,0,1-1.082-5.788,13.541,13.541,0,0,1,2.239-7.914,1.481,1.481,0,0,1,1.21-.619Z" transform="translate(-111.229 -350.587)" fill="#fb1466"/>
            <path id="Path_1171540" data-name="Path 1171540" d="M193.014,359.118a12.957,12.957,0,0,0,3.11,8.533h-47.6s-2.736-2.77-2.736-8.533,2.736-8.533,2.736-8.533h47.6A12.957,12.957,0,0,0,193.014,359.118Z" transform="translate(-140.632 -350.585)" fill="#e0d3ce"/>
            <g id="Group_1221738" data-name="Group 1221738" transform="translate(5.159 0)">
              <path id="Path_1171541" data-name="Path 1171541" d="M154.935,350.587l-9.1,9.852c-.031-.421-.049-.861-.049-1.319,0-5.763,2.736-8.533,2.736-8.533Z" transform="translate(-145.79 -350.587)" fill="#cdbfbb"/>
              <path id="Path_1171542" data-name="Path 1171542" d="M430.039,359.124a12.954,12.954,0,0,0,3.111,8.532h-5.64a13.257,13.257,0,0,1,0-17.064h5.64A12.951,12.951,0,0,0,430.039,359.124Z" transform="translate(-382.815 -350.591)" fill="#cdbfbb"/>
            </g>
          </g>
          <g id="Group_1221743" data-name="Group 1221743" transform="translate(6.423)">
            <g id="Group_1221741" data-name="Group 1221741" transform="translate(0)">
              <path id="Path_1171543" data-name="Path 1171543" d="M206.534,325.795a2.477,2.477,0,0,1-2.476,2.476H156.736a2.477,2.477,0,0,1,0-4.954h47.322A2.477,2.477,0,0,1,206.534,325.795Z" transform="translate(-154.26 -323.317)" fill="#fb3a82"/>
              <g id="Group_1221740" data-name="Group 1221740">
                <path id="Path_1171544" data-name="Path 1171544" d="M165.9,323.317l-4.572,4.954h-4.59a2.477,2.477,0,0,1,0-4.954Z" transform="translate(-154.26 -323.317)" fill="#fb1466"/>
                <path id="Path_1171545" data-name="Path 1171545" d="M462.995,325.8a2.479,2.479,0,0,1-2.478,2.478h-4.8a2.477,2.477,0,0,0,0-4.954h4.8A2.477,2.477,0,0,1,462.995,325.8Z" transform="translate(-410.719 -323.32)" fill="#fb1466"/>
              </g>
            </g>
            <g id="Group_1221742" data-name="Group 1221742" transform="translate(0 20.251)">
              <path id="Path_1171546" data-name="Path 1171546" d="M204.055,463.95H156.734a2.477,2.477,0,1,1,0-4.954h47.321a2.477,2.477,0,0,1,0,4.954Z" transform="translate(-154.257 -458.996)" fill="#fb3a82"/>
              <path id="Path_1171547" data-name="Path 1171547" d="M462.995,461.476a2.476,2.476,0,0,1-2.478,2.476h-4.8a2.476,2.476,0,1,0,0-4.952h4.8A2.477,2.477,0,0,1,462.995,461.476Z" transform="translate(-410.719 -458.999)" fill="#fb1466"/>
            </g>
          </g>
        </g>
        <g id="Group_1221752" data-name="Group 1221752" transform="translate(-0.001 12.193)">
          <g id="Group_1221747" data-name="Group 1221747" transform="translate(1.12 29.581)">
            <g id="Group_1221745" data-name="Group 1221745" transform="translate(0 9.474)">
              <path id="Path_1171548" data-name="Path 1171548" d="M40.1,277.855l-4-4L8.887,298.984a4.31,4.31,0,1,0,6.091,6.091Z" transform="translate(-7.5 -273.857)" fill="#873f30"/>
              <path id="Path_1171549" data-name="Path 1171549" d="M16.063,312.209a4.312,4.312,0,0,1-6.094,0,4.267,4.267,0,0,1-1.051-1.717,4.3,4.3,0,0,0,4.374-1.047c.041-.041.083-.085.123-.128L38.542,282.1l2.769,2.769L16.183,312.084C16.143,312.127,16.1,312.169,16.063,312.209Z" transform="translate(-8.706 -280.866)" fill="#6c3328"/>
            </g>
            <path id="Path_1171550" data-name="Path 1171550" d="M199.843,210.382l-9.207,10.983,3.761,3.761,10.983-9.207Z" transform="translate(-163.302 -210.382)" fill="#873f30"/>
            <path id="Path_1171551" data-name="Path 1171551" d="M208.288,210.382l-2.975,3.549.893.893a1.683,1.683,0,0,1,0,2.379l-5.643,5.643,2.28,2.28,10.983-9.207Z" transform="translate(-171.746 -210.382)" fill="#6c3328"/>
            <g id="Group_1221746" data-name="Group 1221746" transform="translate(24.287 8.734)">
              <path id="Path_1171552" data-name="Path 1171552" d="M174.665,277.164l-3.651-3.651a2.7,2.7,0,1,1,3.822-3.822l3.651,3.651a2.7,2.7,0,0,1-3.822,3.822Z" transform="translate(-170.222 -268.899)" fill="#ba5d4f"/>
              <path id="Path_1171553" data-name="Path 1171553" d="M188.031,286.713a2.7,2.7,0,0,1-3.822,0l-2.767-2.767a2.7,2.7,0,0,0,3.822-3.822l2.767,2.767A2.7,2.7,0,0,1,188.031,286.713Z" transform="translate(-179.766 -278.448)" fill="#a34f41"/>
            </g>
          </g>
          <g id="Group_1221748" data-name="Group 1221748" transform="translate(29.704 4.479)">
            <path id="Path_1171554" data-name="Path 1171554" d="M0,0H11.467V18H0Z" transform="translate(12.727 0) rotate(45)" fill="#ba5d4f"/>
            <path id="Path_1171555" data-name="Path 1171555" d="M0,0H11.467V18H0Z" transform="translate(25.865 38.603) rotate(-135)" fill="#a34f41"/>
          </g>
          <g id="Group_1221751" data-name="Group 1221751" transform="translate(0 0)">
            <path id="Path_1171556" data-name="Path 1171556" d="M177.562,38.574l-.282-.282a2.734,2.734,0,0,1,0-3.867l13.931-13.931a2.734,2.734,0,0,1,3.867,0l.282.282a2.734,2.734,0,0,1,0,3.867L181.429,38.574A2.735,2.735,0,0,1,177.562,38.574Z" transform="translate(-150.139 -18.574)" fill="#873f30"/>
            <path id="Path_1171557" data-name="Path 1171557" d="M349.044,210.056l.282.282a2.734,2.734,0,0,0,3.867,0l13.931-13.931a2.734,2.734,0,0,0,0-3.867l-.282-.282a2.734,2.734,0,0,0-3.867,0l-13.931,13.931A2.735,2.735,0,0,0,349.044,210.056Z" transform="translate(-296.266 -164.701)" fill="#6c3328"/>
            <g id="Group_1221750" data-name="Group 1221750">
              <path id="Path_1171558" data-name="Path 1171558" d="M0,0H12.877V27.188H0Z" transform="translate(54.056 9.608) rotate(45)" fill="#fcc16d"/>
              <path id="Path_1171559" data-name="Path 1171559" d="M0,0H27.188V6.517H0Z" transform="translate(39.325 33.337) rotate(-45)" fill="#fca62f"/>
              <path id="Path_1171560" data-name="Path 1171560" d="M244.371,67.93l-2.23-.912a2.051,2.051,0,0,0-2.226.448L224.253,83.129a2.051,2.051,0,0,0-.448,2.226l.912,2.23a1.367,1.367,0,0,0,2.232.449l17.872-17.872A1.367,1.367,0,0,0,244.371,67.93Z" transform="translate(-190.271 -58.706)" fill="#873f30"/>
              <path id="Path_1171561" data-name="Path 1171561" d="M308.926,132.485l.912,2.23a2.051,2.051,0,0,1-.448,2.226L293.727,152.6a2.051,2.051,0,0,1-2.226.448l-2.23-.912a1.367,1.367,0,0,1-.449-2.232l17.872-17.872A1.367,1.367,0,0,1,308.926,132.485Z" transform="translate(-245.372 -113.808)" fill="#6c3328"/>
              <g id="Group_1221749" data-name="Group 1221749">
                <path id="Path_1171562" data-name="Path 1171562" d="M72.821,77.761h-.833a11.578,11.578,0,0,1-.964-1.838,1.119,1.119,0,0,0-2.069.856c.138.334.293.66.456.982H25.5a3.582,3.582,0,0,0-.976.136,13.013,13.013,0,0,1-1.645-6.665c0-.488.022-.969.064-1.441H44.39a1.119,1.119,0,1,0,0-2.239h-20.5l2.63-2.849h42.89a13.974,13.974,0,0,0-1.078,2.849H53.614a1.119,1.119,0,0,0,0,2.239H67.937c-.044.455-.069.914-.071,1.377a1.119,1.119,0,0,0,1.115,1.124h0A1.119,1.119,0,0,0,70.1,71.179,11.978,11.978,0,0,1,71.987,64.7h.835a3.6,3.6,0,1,0,0-7.192H58.828L71.649,44.69a3.854,3.854,0,0,0,0-5.45l-.282-.282a3.852,3.852,0,0,0-5.252-.183l-1.982-1.982.675-.675a3.163,3.163,0,0,0,.693-3.442l-.912-2.23a2.481,2.481,0,0,0-1.8-1.494L61.232,27.4a1.119,1.119,0,0,0-1.583,1.583l.766.766L42.772,47.386,37.584,42.2,55.226,24.556l.687.687A1.119,1.119,0,1,0,57.5,23.66l-1.478-1.478a2.482,2.482,0,0,0-1.494-1.8h0l-2.23-.912a3.164,3.164,0,0,0-3.442.693l-.675.675L46.2,18.855a3.852,3.852,0,0,0-.183-5.252l-.282-.282a3.854,3.854,0,0,0-5.45,0L26.349,27.253a3.854,3.854,0,0,0,0,5.45l.281.282a3.852,3.852,0,0,0,5.252.183l1.982,1.982-.675.675a3.163,3.163,0,0,0-.693,3.441l.912,2.23a2.48,2.48,0,0,0,1.775,1.488l-5.613,6.7a3.824,3.824,0,0,0-5.052,4.849l-2.546,2.35a1.119,1.119,0,0,0,1.519,1.645l2.352-2.171,2.773,2.773L7.773,81.706A3.191,3.191,0,1,1,3.265,77.2L19.615,62.1A1.119,1.119,0,1,0,18.1,60.458L1.746,75.552a5.429,5.429,0,0,0,3.679,9.419h.112a5.383,5.383,0,0,0,3.881-1.746l6.709-7.268a12.9,12.9,0,0,0,1.8,3.838,2.607,2.607,0,0,0,2.123,1.09h1.886A3.59,3.59,0,0,0,25.5,84.954H72.821a3.6,3.6,0,1,0,0-7.192Zm1.357-16.654a1.359,1.359,0,0,1-1.357,1.357H28.583l1.861-2.016a3.826,3.826,0,0,0,3.818-.7H72.821a1.359,1.359,0,0,1,1.357,1.357ZM40.408,48.188l-6.482,5.434-2.577-2.577,5.434-6.482Zm-4.883,9.323a3.844,3.844,0,0,0-.233-2.112l6.7-5.613a2.481,2.481,0,0,0,1.488,1.775l2.23.912a3.164,3.164,0,0,0,3.441-.693l.675-.675L51.8,53.088a3.861,3.861,0,0,0-.446,4.423H35.524ZM68.642,40.069a1.6,1.6,0,0,1,1.142.473l.282.282a1.615,1.615,0,0,1,0,2.284L56.135,57.038a1.615,1.615,0,0,1-2.284,0l-.282-.282a1.617,1.617,0,0,1,0-2.284L67.5,40.542a1.6,1.6,0,0,1,1.142-.473Zm-4.118.282L53.379,51.5,51.4,49.523,62.551,38.377ZM44.24,49.085,62.112,31.213a.236.236,0,0,1,.171-.073.273.273,0,0,1,.053.005.238.238,0,0,1,.18.149l.912,2.23a.929.929,0,0,1-.2,1.011L47.563,50.2a.929.929,0,0,1-1.011.2l-2.23-.912a.248.248,0,0,1-.082-.4ZM29.356,31.875a1.6,1.6,0,0,1-1.142-.473l-.282-.282a1.615,1.615,0,0,1,0-2.284L41.864,14.905a1.615,1.615,0,0,1,2.284,0l.282.282a1.615,1.615,0,0,1,0,2.284L30.5,31.4a1.606,1.606,0,0,1-1.142.473Zm4.117-.282L44.62,20.446l1.974,1.974L35.448,33.567Zm1.3,5.815L50.435,21.745a.929.929,0,0,1,1.011-.2l2.23.912a.248.248,0,0,1,.081.4L35.886,40.73a.248.248,0,0,1-.4-.081l-.912-2.23A.929.929,0,0,1,34.773,37.407Zm-8.248,15.8a1.583,1.583,0,0,1,2.7-1.12l3.651,3.651a1.583,1.583,0,0,1-2.239,2.239L26.989,54.33a1.573,1.573,0,0,1-.464-1.12ZM19.752,78.5a11.293,11.293,0,0,1-1.793-4.524l2.683-2.907c0,.055,0,.111,0,.166a15.532,15.532,0,0,0,1.736,7.413H20.05A.364.364,0,0,1,19.752,78.5Zm53.07,4.218H25.5A1.357,1.357,0,1,1,25.5,80H72.821a1.357,1.357,0,1,1,0,2.715Z" transform="translate(0.001 -12.193)"/>
                <path id="Path_1171563" data-name="Path 1171563" d="M203.446,417.166a1.119,1.119,0,0,0,0,2.239h26.079a1.119,1.119,0,1,0,0-2.239Z" transform="translate(-172.128 -356.721)"/>
              </g>
            </g>
          </g>
        </g>
      </g>
    </g>
  </g>
</svg>
