<svg xmlns="http://www.w3.org/2000/svg" xmlns:xlink="http://www.w3.org/1999/xlink" width="108" height="108" viewBox="0 0 108 108">
  <defs>
    <filter id="Path_978624" x="0" y="0" width="108" height="108" filterUnits="userSpaceOnUse">
      <feOffset dy="3" input="SourceAlpha"/>
      <feGaussianBlur stdDeviation="3" result="blur"/>
      <feFlood flood-opacity="0.161"/>
      <feComposite operator="in" in2="blur"/>
      <feComposite in="SourceGraphic"/>
    </filter>
    <filter id="Path_1076716" x="0" y="0" width="108" height="108" filterUnits="userSpaceOnUse">
      <feOffset dy="3" input="SourceAlpha"/>
      <feGaussianBlur stdDeviation="3" result="blur-2"/>
      <feFlood flood-opacity="0.161"/>
      <feComposite operator="in" in2="blur-2"/>
      <feComposite in="SourceGraphic"/>
    </filter>
  </defs>
  <g id="Group_1222527" data-name="Group 1222527" transform="translate(-616 -3372)">
    <g id="Group_1221728" data-name="Group 1221728">
      <g id="Group_1210700" data-name="Group 1210700" transform="translate(0 1073)">
        <g id="Group_1208503" data-name="Group 1208503" transform="translate(0 1813)">
          <g id="Group_1200660" data-name="Group 1200660">
            <g id="Group_1181203" data-name="Group 1181203" transform="translate(625 492)">
              <g id="Group_1172348" data-name="Group 1172348" transform="translate(0)">
                <g id="Group_1171897" data-name="Group 1171897">
                  <g id="Group_1171052" data-name="Group 1171052">
                    <g id="Group_1164581" data-name="Group 1164581">
                      <g id="Group_1144123" data-name="Group 1144123">
                        <g transform="matrix(1, 0, 0, 1, -9, -6)" filter="url(#Path_978624)">
                          <g id="Path_978624-2" data-name="Path 978624" transform="translate(9 6)" fill="#fff9f4">
                            <path d="M 45 88.5 C 39.12687683105469 88.5 33.43022537231445 87.35007476806641 28.06830024719238 85.08217620849609 C 22.88852500915527 82.89131164550781 18.23629951477051 79.75458526611328 14.2408504486084 75.75914764404297 C 10.24541282653809 71.76370239257812 7.108687400817871 67.11147308349609 4.917825222015381 61.93170166015625 C 2.649924993515015 56.56977462768555 1.5 50.87312316894531 1.5 45 C 1.5 39.12687683105469 2.649924993515015 33.43022537231445 4.917825222015381 28.06830024719238 C 7.108687400817871 22.88852500915527 10.24541282653809 18.23629951477051 14.2408504486084 14.2408504486084 C 18.23629951477051 10.24541282653809 22.88852500915527 7.108687400817871 28.06830024719238 4.917825222015381 C 33.43022537231445 2.649924993515015 39.12687683105469 1.5 45 1.5 C 50.87312316894531 1.5 56.56977462768555 2.649924993515015 61.93170166015625 4.917825222015381 C 67.11147308349609 7.108687400817871 71.76370239257812 10.24541282653809 75.75914764404297 14.2408504486084 C 79.75458526611328 18.23629951477051 82.89131164550781 22.88852500915527 85.08217620849609 28.06830024719238 C 87.35007476806641 33.43022537231445 88.5 39.12687683105469 88.5 45 C 88.5 50.87312316894531 87.35007476806641 56.56977462768555 85.08217620849609 61.93170166015625 C 82.89131164550781 67.11147308349609 79.75458526611328 71.76370239257812 75.75914764404297 75.75914764404297 C 71.76370239257812 79.75458526611328 67.11147308349609 82.89131164550781 61.93170166015625 85.08217620849609 C 56.56977462768555 87.35007476806641 50.87312316894531 88.5 45 88.5 Z" stroke="none"/>
                            <path d="M 45 3 C 39.32871246337891 3 33.82865524291992 4.110054016113281 28.65262985229492 6.299339294433594 C 23.65165710449219 8.414573669433594 19.15968322753906 11.44334411621094 15.301513671875 15.301513671875 C 11.44334411621094 19.15968322753906 8.414573669433594 23.65165710449219 6.299339294433594 28.65262985229492 C 4.110054016113281 33.82865524291992 3 39.32871246337891 3 45 C 3 50.67128753662109 4.110054016113281 56.17134475708008 6.299339294433594 61.34737396240234 C 8.414573669433594 66.34834289550781 11.44334411621094 70.84031677246094 15.301513671875 74.698486328125 C 19.15968322753906 78.55665588378906 23.65165710449219 81.58542633056641 28.65262985229492 83.70066070556641 C 33.82865524291992 85.88994598388672 39.32871246337891 87 45 87 C 50.67128753662109 87 56.17134475708008 85.88994598388672 61.34737396240234 83.70066070556641 C 66.34834289550781 81.58542633056641 70.84031677246094 78.55665588378906 74.698486328125 74.698486328125 C 78.55665588378906 70.84031677246094 81.58542633056641 66.34834289550781 83.70066070556641 61.34737396240234 C 85.88994598388672 56.17134475708008 87 50.67128753662109 87 45 C 87 39.32871246337891 85.88994598388672 33.82865524291992 83.70066070556641 28.65262985229492 C 81.58542633056641 23.65165710449219 78.55665588378906 19.15968322753906 74.698486328125 15.301513671875 C 70.84031677246094 11.44334411621094 66.34834289550781 8.414573669433594 61.34737396240234 6.299339294433594 C 56.17134475708008 4.110054016113281 50.67128753662109 3 45 3 M 45 0 C 69.85281372070312 0 90 20.14718627929688 90 45 C 90 69.85281372070312 69.85281372070312 90 45 90 C 20.14718627929688 90 0 69.85281372070312 0 45 C 0 20.14718627929688 20.14718627929688 0 45 0 Z" stroke="none" fill="#8b7157"/>
                          </g>
                        </g>
                        <g transform="matrix(1, 0, 0, 1, -9, -6)" filter="url(#Path_1076716)">
                          <g id="Path_1076716-2" data-name="Path 1076716" transform="translate(9 6)" fill="#fff9f4">
                            <path d="M 45 88.5 C 39.12687683105469 88.5 33.43022537231445 87.35007476806641 28.06830024719238 85.08217620849609 C 22.88852500915527 82.89131164550781 18.23629951477051 79.75458526611328 14.2408504486084 75.75914764404297 C 10.24541282653809 71.76370239257812 7.108687400817871 67.11147308349609 4.917825222015381 61.93170166015625 C 2.649924993515015 56.56977462768555 1.5 50.87312316894531 1.5 45 C 1.5 39.12687683105469 2.649924993515015 33.43022537231445 4.917825222015381 28.06830024719238 C 7.108687400817871 22.88852500915527 10.24541282653809 18.23629951477051 14.2408504486084 14.2408504486084 C 18.23629951477051 10.24541282653809 22.88852500915527 7.108687400817871 28.06830024719238 4.917825222015381 C 33.43022537231445 2.649924993515015 39.12687683105469 1.5 45 1.5 C 50.87312316894531 1.5 56.56977462768555 2.649924993515015 61.93170166015625 4.917825222015381 C 67.11147308349609 7.108687400817871 71.76370239257812 10.24541282653809 75.75914764404297 14.2408504486084 C 79.75458526611328 18.23629951477051 82.89131164550781 22.88852500915527 85.08217620849609 28.06830024719238 C 87.35007476806641 33.43022537231445 88.5 39.12687683105469 88.5 45 C 88.5 50.87312316894531 87.35007476806641 56.56977462768555 85.08217620849609 61.93170166015625 C 82.89131164550781 67.11147308349609 79.75458526611328 71.76370239257812 75.75914764404297 75.75914764404297 C 71.76370239257812 79.75458526611328 67.11147308349609 82.89131164550781 61.93170166015625 85.08217620849609 C 56.56977462768555 87.35007476806641 50.87312316894531 88.5 45 88.5 Z" stroke="none"/>
                            <path d="M 45 3 C 39.32871246337891 3 33.82865524291992 4.110054016113281 28.65262985229492 6.299339294433594 C 23.65165710449219 8.414573669433594 19.15968322753906 11.44334411621094 15.301513671875 15.301513671875 C 11.44334411621094 19.15968322753906 8.414573669433594 23.65165710449219 6.299339294433594 28.65262985229492 C 4.110054016113281 33.82865524291992 3 39.32871246337891 3 45 C 3 50.67128753662109 4.110054016113281 56.17134475708008 6.299339294433594 61.34737396240234 C 8.414573669433594 66.34834289550781 11.44334411621094 70.84031677246094 15.301513671875 74.698486328125 C 19.15968322753906 78.55665588378906 23.65165710449219 81.58542633056641 28.65262985229492 83.70066070556641 C 33.82865524291992 85.88994598388672 39.32871246337891 87 45 87 C 50.67128753662109 87 56.17134475708008 85.88994598388672 61.34737396240234 83.70066070556641 C 66.34834289550781 81.58542633056641 70.84031677246094 78.55665588378906 74.698486328125 74.698486328125 C 78.55665588378906 70.84031677246094 81.58542633056641 66.34834289550781 83.70066070556641 61.34737396240234 C 85.88994598388672 56.17134475708008 87 50.67128753662109 87 45 C 87 39.32871246337891 85.88994598388672 33.82865524291992 83.70066070556641 28.65262985229492 C 81.58542633056641 23.65165710449219 78.55665588378906 19.15968322753906 74.698486328125 15.301513671875 C 70.84031677246094 11.44334411621094 66.34834289550781 8.414573669433594 61.34737396240234 6.299339294433594 C 56.17134475708008 4.110054016113281 50.67128753662109 3 45 3 M 45 0 C 69.85281372070312 0 90 20.14718627929688 90 45 C 90 69.85281372070312 69.85281372070312 90 45 90 C 20.14718627929688 90 0 69.85281372070312 0 45 C 0 20.14718627929688 20.14718627929688 0 45 0 Z" stroke="none" fill="#8b7157"/>
                          </g>
                        </g>
                      </g>
                    </g>
                  </g>
                </g>
              </g>
            </g>
          </g>
        </g>
      </g>
      <g id="medicamento_2_" data-name="medicamento (2)" transform="translate(635.635 3367.683)">
        <g id="Group_1221726" data-name="Group 1221726" transform="translate(1.007 25.207)">
          <path id="Path_1171483" data-name="Path 1171483" d="M320.106,56.55a.738.738,0,0,1-.435-.857,10.3,10.3,0,0,0-10.56-12.738.746.746,0,0,1-.763-.522,7.374,7.374,0,0,0-3.6-4.369H302.8l-2.953,4.391V90.962l1.163,3.58,3.745,2.034a7.373,7.373,0,0,0,3.6-4.369.746.746,0,0,1,.763-.522,10.3,10.3,0,0,0,10.56-12.738.738.738,0,0,1,.435-.857,11.648,11.648,0,0,0,0-21.54Z" transform="translate(-260.601 -37.21)" fill="#ffdecf"/>
          <path id="Path_1171484" data-name="Path 1171484" d="M256.339,84.453V39.172a7.546,7.546,0,0,1,3.972-6.615,7.313,7.313,0,0,0-3.4-.854,7.467,7.467,0,0,0-7.39,7.469L248.512,40.8V82.054l1.006,2.4a7.467,7.467,0,0,0,7.39,7.469,7.311,7.311,0,0,0,3.4-.854A7.546,7.546,0,0,1,256.339,84.453Z" transform="translate(-216.159 -31.702)" fill="#ffcebe"/>
          <path id="Path_1171485" data-name="Path 1171485" d="M75.41,39.107H72.919l-2.685,3.265H67.549L60.592,47.2,57.974,55.8s-3.669,4.4-4.027,5.062a83.946,83.946,0,0,0-2.237,9.526c0,.805,1.611,4.234,2.237,5.2s3.938,4.488,3.938,4.488,1.879,5.432,1.879,5.88,3.187,4.479,3.187,4.479l5.583,2.653,3.043,1.459L73.1,96.784l1.877.792a7.546,7.546,0,0,0,4.159-6.713V45.582a7.545,7.545,0,0,0-3.723-6.475Z" transform="translate(-45.775 -38.113)" fill="#ffdecf"/>
          <path id="Path_1171486" data-name="Path 1171486" d="M33.794,86.7a.746.746,0,0,0-.763-.522,10.3,10.3,0,0,1-10.56-12.738.738.738,0,0,0-.435-.857,11.648,11.648,0,0,1,0-21.54.738.738,0,0,0,.435-.857,10.3,10.3,0,0,1,10.56-12.738.746.746,0,0,0,.763-.522,7.373,7.373,0,0,1,3.345-4.229,7.155,7.155,0,0,0-3.667-.994,7.353,7.353,0,0,0-7,5.223.746.746,0,0,1-.763.522A10.3,10.3,0,0,0,15.15,50.183a.738.738,0,0,1-.435.857,11.648,11.648,0,0,0,0,21.54.738.738,0,0,1,.435.857A10.3,10.3,0,0,0,25.71,86.176a.746.746,0,0,1,.763.522,7.353,7.353,0,0,0,7,5.223,7.155,7.155,0,0,0,3.667-.994A7.374,7.374,0,0,1,33.794,86.7Z" transform="translate(-7.504 -31.7)" fill="#ffcebe"/>
          <path id="Path_1171487" data-name="Path 1171487" d="M225.342,187.835l2.174.837,1.568-1.491.1-.686a4.07,4.07,0,0,0-.832-2.372l-2.51-3.3-.536-.034-3.293,2.524Z" transform="translate(-193.22 -160.774)" fill="#60b9fe"/>
          <path id="Path_1171488" data-name="Path 1171488" d="M208.186,201.919s-1.589-2.034-3.168-4.063l-2.906,2.228-.08.466,2.51,3.3a4.079,4.079,0,0,0,2.93,1.6l.8-.154,2.039-1.939A5.33,5.33,0,0,1,208.186,201.919Z" transform="translate(-175.919 -175.551)" fill="#1ca8ff"/>
          <path id="Path_1171489" data-name="Path 1171489" d="M196.793,147.814v1.745l3.585,4.875,3.63-2.76-2.235-2.94a4.091,4.091,0,0,0-4.389-1.454Z" transform="translate(-171.383 -131.626)" fill="#ffe02f"/>
          <path id="Path_1171490" data-name="Path 1171490" d="M185.427,155.226c-1.043-1.341-2.113-2.718-2.744-3.542a3.605,3.605,0,0,1-.562-3.375A4.09,4.09,0,0,0,180,154.714l2.235,2.94Z" transform="translate(-156.12 -132.655)" fill="#fbc700"/>
          <path id="Path_1171491" data-name="Path 1171491" d="M273.6,225.634a6.852,6.852,0,0,0-2.538-1.61h-2.076l-2.527,2.631s-1.064,2.864-1.108,3.266a11.906,11.906,0,0,0,.5,2.685,29.754,29.754,0,0,0,1.819,2.461l1.314,1.566,1.574.5a6.877,6.877,0,0,0,3.04-11.5Z" transform="translate(-230.737 -198.206)" fill="#ff72c7"/>
          <path id="Path_1171492" data-name="Path 1171492" d="M246.01,232.757a6.881,6.881,0,0,1,2.536-11.34,6.881,6.881,0,0,0-9,8.137l.451.669,3.02,1.845,1.171,2.2.769.382a6.91,6.91,0,0,0,3.594-.288,6.854,6.854,0,0,1-2.537-1.61Z" transform="translate(-208.217 -195.6)" fill="#ff4fb9"/>
          <path id="Path_1171493" data-name="Path 1171493" d="M215.484,288.391a6.854,6.854,0,0,0-2.537-1.61H211.6a30.363,30.363,0,0,0-2.744,2.226,16.517,16.517,0,0,0-1.443,3.242,15.673,15.673,0,0,0,.4,3.862c.2.671,1.846,2.215,1.913,2.45a17.454,17.454,0,0,0,3.009,1.24,6.879,6.879,0,0,0,2.746-11.41Z" transform="translate(-180.561 -252.539)" fill="#ff72c7"/>
          <path id="Path_1171494" data-name="Path 1171494" d="M186.835,295.512a6.881,6.881,0,0,1,2.537-11.34,6.881,6.881,0,1,0,0,12.95A6.85,6.85,0,0,1,186.835,295.512Z" transform="translate(-156.985 -249.93)" fill="#ff4fb9"/>
        </g>
        <g id="Group_1221727" data-name="Group 1221727" transform="translate(0 24.2)">
          <path id="Path_1171495" data-name="Path 1171495" d="M210.472,327.511h-5.3a1.007,1.007,0,1,0,0,2.014h5.3a1.007,1.007,0,1,0,0-2.014Z" transform="translate(-176.756 -286.794)"/>
          <path id="Path_1171496" data-name="Path 1171496" d="M270.837,251.086a1.007,1.007,0,0,0-1.424,1.424l3.75,3.75a1.007,1.007,0,0,0,1.424-1.424Z" transform="translate(-232.992 -220.373)"/>
          <path id="Path_1171497" data-name="Path 1171497" d="M61.108,43.705A11.309,11.309,0,0,0,49.655,29.937a8.357,8.357,0,0,0-15.286-1.359,8.331,8.331,0,0,0-4.815-3.984,1.007,1.007,0,0,0-.612,1.918,6.324,6.324,0,0,1,4.417,6.047V43.231L32.2,41.7a5.1,5.1,0,0,0-8.114,6.17l4.745,6.24,0,.005a5.133,5.133,0,0,0,2.46,1.75,7.854,7.854,0,0,0-.153,2.167c-7.714-.084-10.931,9.974-4.61,14.337a7.876,7.876,0,0,0,4.535,1.433,8.045,8.045,0,0,0,2.293-.339v4.606a6.354,6.354,0,0,1-6.346,6.346c-4.149,0-7.713-4.194-5.6-8.554a1.007,1.007,0,1,0-1.812-.878,8.854,8.854,0,0,0-.823,3.7A9.294,9.294,0,0,1,9.537,67.617a12.959,12.959,0,0,0,6.33.315,6.906,6.906,0,0,0,3.487,2.086,1.007,1.007,0,0,0,.4-1.974,4.9,4.9,0,0,1-1.842-.937,5.061,5.061,0,0,1-1.748-4.385,1.007,1.007,0,1,0-2.012-.077,8.063,8.063,0,0,0,.573,3.471c-6.62.573-12.709-3.946-12.709-10.8,0-6.546,5.736-11.406,12.71-10.8a8.064,8.064,0,0,0-.573,3.471,1.007,1.007,0,0,0,1.005.968h.039a1.007,1.007,0,0,0,.968-1.044c-.17-4.456,3.429-5.288,3.6-5.324a1.007,1.007,0,0,0-.4-1.973A6.89,6.89,0,0,0,15.867,42.7a12.944,12.944,0,0,0-6.33.315,9.293,9.293,0,0,1,9.239-11.072,8.854,8.854,0,0,0,.823,3.7,1.007,1.007,0,0,0,1.812-.878,7.141,7.141,0,0,1-.591-3.587,6.386,6.386,0,0,1,4.067-4.6,1.007,1.007,0,1,0-.675-1.9,8.424,8.424,0,0,0-5.136,5.255A11.309,11.309,0,0,0,7.623,43.705a12.655,12.655,0,0,0,0,23.223A11.309,11.309,0,0,0,19.076,80.7a8.357,8.357,0,0,0,15.289,1.352A8.357,8.357,0,0,0,49.654,80.7,11.311,11.311,0,0,0,61.107,66.928a12.655,12.655,0,0,0,0-23.223ZM25.686,46.656a3.083,3.083,0,0,1,4.909-3.732l1.626,2.138-4.908,3.732Zm4.745,6.24-1.9-2.5,4.908-3.732,1.9,2.5.006.008a3.14,3.14,0,0,1,.526,1.091,7.914,7.914,0,0,0-2.44,1.659h0a7.811,7.811,0,0,0-1.475,2.046A3.1,3.1,0,0,1,30.431,52.9ZM27.1,70.259a5.872,5.872,0,0,1,4.322-10.2h.017a5.873,5.873,0,1,1-4.339,10.2Zm26.9-4.144a8.063,8.063,0,0,0,.573-3.471,1.007,1.007,0,1,0-2.012.077c.17,4.456-3.429,5.288-3.6,5.324a1.007,1.007,0,0,0,.4,1.973,6.889,6.889,0,0,0,3.488-2.086,12.927,12.927,0,0,0,6.33-.315,9.3,9.3,0,0,1-9.239,11.072,8.85,8.85,0,0,0-.823-3.7,1.007,1.007,0,1,0-1.812.878c2.1,4.327-1.418,8.554-5.6,8.554a6.354,6.354,0,0,1-6.346-6.346V72.531a7.865,7.865,0,0,0,3.564-7.145,7.886,7.886,0,0,0,7.485-5.193,1.007,1.007,0,0,0-1.893-.686,5.868,5.868,0,0,1-6.01,3.844A7.865,7.865,0,0,0,33.2,58.333a5.886,5.886,0,0,1,1.66-4.987h0a5.874,5.874,0,0,1,9.674,2.147,1.007,1.007,0,1,0,1.893-.686,7.888,7.888,0,0,0-8.614-5.1,5.124,5.124,0,0,0-.865-1.759L35.372,45.88V32.56A6.345,6.345,0,0,1,47.911,31.18a7.172,7.172,0,0,1-.591,3.589,1.007,1.007,0,1,0,1.812.878,8.853,8.853,0,0,0,.823-3.7,9.293,9.293,0,0,1,9.239,11.072c-2.81-.793-5.833-.6-6.33-.315a6.906,6.906,0,0,0-3.488-2.086,1.007,1.007,0,0,0-.4,1.974,4.9,4.9,0,0,1,1.842.937,5.062,5.062,0,0,1,1.748,4.385,1.007,1.007,0,0,0,.968,1.044h.039a1.007,1.007,0,0,0,1.005-.968,8.063,8.063,0,0,0-.573-3.471c6.624-.573,12.709,3.947,12.709,10.8,0,6.723-5.984,11.384-12.71,10.8Z" transform="translate(0 -24.2)"/>
        </g>
      </g>
    </g>
  </g>
</svg>
